<svg xmlns="http://www.w3.org/2000/svg" viewBox="0 0 1466 1080"><defs><style>.cls-1,.cls-14{isolation:isolate;}.cls-2{fill:none;stroke:#3b3b3b;stroke-width:6px;stroke-dasharray:8 6;}.cls-15,.cls-2{stroke-linejoin:round;}.cls-3{fill:#3b3b3b;}.cls-15,.cls-17,.cls-4{fill:#fff;}.cls-5{font-size:34.05px;}.cls-16,.cls-5{fill:#a36a2a;}.cls-17,.cls-5{font-family:OpenSans-ExtraBold, Open Sans;font-weight:800;}.cls-10,.cls-11,.cls-12,.cls-13,.cls-6,.cls-8{opacity:0.7;}.cls-10,.cls-11,.cls-14,.cls-7{fill:#fc7a00;}.cls-10,.cls-12,.cls-7,.cls-8{mix-blend-mode:multiply;}.cls-12,.cls-13,.cls-9{fill:#f90000;}.cls-14{opacity:0.2;}.cls-15{stroke:#fc7a00;stroke-width:4px;}.cls-17{font-size:26.18px;}</style></defs><title>Vietnam v2 no text</title><g class="cls-1"><g id="details"><g id="mongcai-line"><path class="cls-2" d="M1007.31,218.77l-6.32-6.32-16.16,2.81h-8.42l-11.94,7v14.05L955,232.47,946.56,236l-9.13,6.32-2.81,12.64-11.24-2.81-6.32,2.81-4.92,5.62-3.51-2.81-11.24,2.81H884.75v14.05l3.51,7.72-3.51,9.13-2.81,18.26V321l2.81,4.21-2.81,4.22a4.79,4.79,0,0,1-5.61,0c-2.81-2.11-14.75-2.11-14.75-2.11l-9.84,2.81s-6.32,8.43-8.42,9.13-9.13,2.81-9.13,2.81l-7-3.51S820.84,334.3,818,335s-6.32.7-9.13,3.51-2.81,3.51-2.81,3.51l-11.23-2.11s-3.52,2.81-6.32,4.92-19,13.34-19,13.34l-8.43,7V375l-5.61,4.21H731l-16.16-9.13-12.64-4.91-10.53-2.81-16.86-2.11h-5.62v10.54l-2.81,5.61-13.34,7a13.51,13.51,0,0,1-4.92,4.91c-3.51,2.11-11.94,8.43-11.94,8.43H627.7l-3.51,8.43s-7-7-8.43-2.81,0,2.81,0,2.81H604.53l-4.92,2.81,4.92,33-.7,14L608,466.34l.7,8.43L606.63,486l.71,4.21-.71,12.64-7,3.51-7.72,7-7.73,2.81v20.36L580,545v7.73l-5.62,5.61v11.94l4.21,5.62-4.21,7.73-4.22,2.81V630l2.81,5.62-2.81,19.66L565.2,665.8,561,675.63l-2.81,4.92-2.8,10.53V703L549,715.66l-7,8.43-5.62,6.32-5.62,7.73V757.8l2.81,7,.71,14s-7,4.92-3.52,5.62S542,790.11,542,790.11l2.81,5.62L542,800.64l-4.21,5.62-.7,18.26,7.72,4.92h5.62l2.81,5.62-3.51,7a72.49,72.49,0,0,0-.71,7.73,53.57,53.57,0,0,0,.71,7H542l-4.21,4.92h-7.73l-5.62-3.52-4.91,3.52H484.43s-5.62,3.51-6.32,4.91S474.6,873,474.6,873l-9.13,2.11L457,879.3l-2.81-2.8-4.91,2.8-7,11.24"/><polygon class="cls-3" points="577.78 624.11 570.8 600.67 556.99 620.68 577.78 624.11"/><polygon class="cls-3" points="782.86 358.93 798.39 340.04 774.07 339.78 782.86 358.93"/></g><g id="vietnam-text"><rect class="cls-4" x="241" y="119.06" width="203.87" height="58.46"/><text class="cls-5" transform="translate(262.76 160.53)">VIETNAM</text></g><g id="china-text"><rect class="cls-4" x="1058.53" y="39.16" width="152.65" height="58.46"/><text class="cls-5" transform="translate(1078.27 80.62)">CHINA</text></g><g id="circles"><g class="cls-6"><circle class="cls-7" cx="992.77" cy="204.78" r="18.23"/><circle class="cls-7" cx="971.51" cy="193.39" r="21.26"/><circle class="cls-7" cx="946.45" cy="216.93" r="16.71"/><circle class="cls-7" cx="885.7" cy="235.16" r="6.83"/><circle class="cls-7" cx="868.99" cy="296.67" r="6.83"/><circle class="cls-7" cx="733.81" cy="325.53" r="6.83"/><circle class="cls-7" cx="594.84" cy="301.99" r="5.32"/><circle class="cls-7" cx="580.41" cy="337.68" r="22.78"/><circle class="cls-7" cx="515.86" cy="441.72" r="28.86"/><circle class="cls-7" cx="590.28" cy="483.49" r="11.39"/><circle class="cls-7" cx="596.36" cy="526.02" r="15.19"/><circle class="cls-7" cx="563.7" cy="560.95" r="15.19"/><circle class="cls-7" cx="556.11" cy="579.93" r="11.39"/><circle class="cls-7" cx="520.41" cy="750.05" r="5.32"/><circle class="cls-7" cx="413.33" cy="751.56" r="6.83"/><circle class="cls-7" cx="532.56" cy="803.96" r="6.08"/><circle class="cls-7" cx="650.27" cy="921.67" r="6.08"/><circle class="cls-7" cx="516.62" cy="837.38" r="6.08"/><circle class="cls-7" cx="529.53" cy="846.49" r="18.99"/><circle class="cls-7" cx="493.83" cy="840.42" r="14.43"/><circle class="cls-7" cx="462.7" cy="847.25" r="11.39"/><circle class="cls-7" cx="431.56" cy="867.76" r="11.39"/><circle class="cls-7" cx="445.99" cy="858.64" r="21.26"/><circle class="cls-7" cx="529.53" cy="904.97" r="10.63"/><circle class="cls-7" cx="826.46" cy="325.53" r="6.08"/><circle class="cls-7" cx="809.75" cy="324.01" r="18.99"/><circle class="cls-7" cx="736.09" cy="346.03" r="22.78"/></g><g class="cls-8"><circle class="cls-9" cx="654.07" cy="259.46" r="6.83"/><circle class="cls-9" cx="560.66" cy="268.57" r="12.15"/><circle class="cls-9" cx="529.53" cy="902.69" r="10.63"/><circle class="cls-9" cx="586.48" cy="390.08" r="6.08"/><circle class="cls-9" cx="807.47" cy="318.69" r="18.99"/><circle class="cls-9" cx="778.62" cy="358.18" r="15.19"/><circle class="cls-9" cx="897.09" cy="186.55" r="25.82"/></g></g><g id="legend"><path class="cls-3" d="M917.77,608.15l5.8-2.35-5.8-2.65v-2.78l9.46,4.73v1.61l-9.46,4.2Z"/><path class="cls-3" d="M936.75,612.58H933v-7.24c0-.88,0-1.69.06-2.42a7.79,7.79,0,0,1-.86.88l-1.56,1.28-1.92-2.35,4.7-3.83h3.33Z"/><path class="cls-3" d="M949.73,605.76a9.22,9.22,0,0,1-1.22,5.32,4.3,4.3,0,0,1-3.73,1.69,4.22,4.22,0,0,1-3.69-1.77,9.06,9.06,0,0,1-1.25-5.24,9.35,9.35,0,0,1,1.22-5.36,4.83,4.83,0,0,1,7.42.08A9.18,9.18,0,0,1,949.73,605.76Zm-6.21,0a11.79,11.79,0,0,0,.29,3.19c.19.58.52.87,1,.87s.79-.3,1-.9a11.84,11.84,0,0,0,.29-3.16,12.1,12.1,0,0,0-.29-3.19c-.2-.61-.52-.91-1-.91s-.78.29-1,.88A12,12,0,0,0,943.52,605.76Z"/><path class="cls-3" d="M961,605.76a9.22,9.22,0,0,1-1.22,5.32,4.3,4.3,0,0,1-3.73,1.69,4.22,4.22,0,0,1-3.69-1.77,9.06,9.06,0,0,1-1.25-5.24,9.35,9.35,0,0,1,1.22-5.36,4.83,4.83,0,0,1,7.42.08A9.18,9.18,0,0,1,961,605.76Zm-6.21,0A11.79,11.79,0,0,0,955,609c.19.58.52.87,1,.87s.79-.3,1-.9a11.84,11.84,0,0,0,.29-3.16,12.1,12.1,0,0,0-.29-3.19c-.2-.61-.52-.91-1-.91s-.78.29-1,.88A12,12,0,0,0,954.75,605.76Z"/><path class="cls-3" d="M972.19,605.76a9.22,9.22,0,0,1-1.22,5.32,4.29,4.29,0,0,1-3.72,1.69,4.23,4.23,0,0,1-3.7-1.77,9.06,9.06,0,0,1-1.25-5.24,9.35,9.35,0,0,1,1.22-5.36,4.28,4.28,0,0,1,3.73-1.7,4.23,4.23,0,0,1,3.69,1.78A9.18,9.18,0,0,1,972.19,605.76Zm-6.21,0a11.79,11.79,0,0,0,.29,3.19c.19.58.52.87,1,.87s.78-.3,1-.9a11.84,11.84,0,0,0,.29-3.16,12.1,12.1,0,0,0-.29-3.19c-.19-.61-.52-.91-1-.91s-.79.29-1,.88A12,12,0,0,0,966,605.76Z"/><path class="cls-3" d="M917.77,671.9l5.8-2.35-5.8-2.65v-2.78l9.46,4.73v1.61l-9.46,4.2Z"/><path class="cls-3" d="M938.44,676.33h-9.93V673.9l3.34-3.38c.95-1,1.58-1.68,1.87-2a3.76,3.76,0,0,0,.61-.94,1.92,1.92,0,0,0,.18-.82,1.06,1.06,0,0,0-.35-.84,1.38,1.38,0,0,0-1-.31,2.64,2.64,0,0,0-1.31.37,9.18,9.18,0,0,0-1.49,1.09l-2-2.38a10.65,10.65,0,0,1,1.78-1.35,6.2,6.2,0,0,1,1.57-.62,7.35,7.35,0,0,1,1.9-.22,5.73,5.73,0,0,1,2.37.47,3.7,3.7,0,0,1,1.62,1.33,3.41,3.41,0,0,1,.58,2,5.35,5.35,0,0,1-.2,1.48,5.49,5.49,0,0,1-.63,1.35,9.62,9.62,0,0,1-1.11,1.39c-.47.48-1.46,1.41-3,2.77v.09h5.18Z"/><path class="cls-3" d="M949.73,669.51a9.22,9.22,0,0,1-1.22,5.32,4.3,4.3,0,0,1-3.73,1.69,4.22,4.22,0,0,1-3.69-1.77,9.06,9.06,0,0,1-1.25-5.24,9.35,9.35,0,0,1,1.22-5.36,4.83,4.83,0,0,1,7.42.08A9.18,9.18,0,0,1,949.73,669.51Zm-6.21,0a11.79,11.79,0,0,0,.29,3.19c.19.58.52.87,1,.87s.79-.3,1-.9a11.84,11.84,0,0,0,.29-3.16,12.1,12.1,0,0,0-.29-3.19c-.2-.61-.52-.91-1-.91s-.78.29-1,.88A12.06,12.06,0,0,0,943.52,669.51Z"/><path class="cls-3" d="M961,669.51a9.22,9.22,0,0,1-1.22,5.32,4.3,4.3,0,0,1-3.73,1.69,4.22,4.22,0,0,1-3.69-1.77,9.06,9.06,0,0,1-1.25-5.24,9.35,9.35,0,0,1,1.22-5.36,4.83,4.83,0,0,1,7.42.08A9.18,9.18,0,0,1,961,669.51Zm-6.21,0a11.79,11.79,0,0,0,.29,3.19c.19.58.52.87,1,.87s.79-.3,1-.9a11.84,11.84,0,0,0,.29-3.16,12.1,12.1,0,0,0-.29-3.19c-.2-.61-.52-.91-1-.91s-.78.29-1,.88A12.06,12.06,0,0,0,954.75,669.51Z"/><path class="cls-3" d="M962,672.65v-2.92h5.29v2.92Z"/><path class="cls-3" d="M976.54,676.33h-3.75v-7.24c0-.88,0-1.69.05-2.42a7.79,7.79,0,0,1-.86.88l-1.55,1.28-1.92-2.35,4.7-3.83h3.33Z"/><path class="cls-3" d="M989.51,669.51a9.22,9.22,0,0,1-1.22,5.32,4.29,4.29,0,0,1-3.72,1.69,4.23,4.23,0,0,1-3.7-1.77,9.07,9.07,0,0,1-1.24-5.24c0-2.44.4-4.22,1.21-5.36a4.29,4.29,0,0,1,3.73-1.7,4.2,4.2,0,0,1,3.69,1.78A9.18,9.18,0,0,1,989.51,669.51Zm-6.21,0a11.79,11.79,0,0,0,.29,3.19c.2.58.52.87,1,.87s.79-.3,1-.9a12,12,0,0,0,.28-3.16,11.68,11.68,0,0,0-.29-3.19c-.19-.61-.52-.91-1-.91s-.78.29-1,.88A12.06,12.06,0,0,0,983.3,669.51Z"/><path class="cls-3" d="M1000.74,669.51a9.22,9.22,0,0,1-1.22,5.32,4.29,4.29,0,0,1-3.72,1.69,4.23,4.23,0,0,1-3.7-1.77,9.07,9.07,0,0,1-1.24-5.24c0-2.44.4-4.22,1.21-5.36a4.29,4.29,0,0,1,3.73-1.7,4.2,4.2,0,0,1,3.69,1.78A9.18,9.18,0,0,1,1000.74,669.51Zm-6.2,0a11.39,11.39,0,0,0,.29,3.19c.19.58.51.87,1,.87s.79-.3,1-.9a12,12,0,0,0,.28-3.16,11.68,11.68,0,0,0-.29-3.19c-.19-.61-.52-.91-1-.91s-.78.29-1,.88A11.64,11.64,0,0,0,994.54,669.51Z"/><path class="cls-3" d="M1012,669.51c0,2.42-.4,4.19-1.22,5.32a4.29,4.29,0,0,1-3.72,1.69,4.23,4.23,0,0,1-3.7-1.77,9.07,9.07,0,0,1-1.24-5.24c0-2.44.4-4.22,1.21-5.36a4.3,4.3,0,0,1,3.73-1.7,4.2,4.2,0,0,1,3.69,1.78A9.18,9.18,0,0,1,1012,669.51Zm-6.2,0a11.39,11.39,0,0,0,.29,3.19c.19.58.51.87,1,.87s.79-.3,1-.9a12,12,0,0,0,.28-3.16,11.68,11.68,0,0,0-.29-3.19c-.19-.61-.52-.91-1-.91s-.78.29-1,.88A11.64,11.64,0,0,0,1005.77,669.51Z"/><path class="cls-3" d="M917.77,723.65l5.8-2.35-5.8-2.65v-2.78l9.46,4.73v1.61l-9.46,4.2Z"/><path class="cls-3" d="M936.75,728.08H933v-7.24c0-.88,0-1.69.06-2.42a7.79,7.79,0,0,1-.86.88l-1.56,1.28-1.92-2.35,4.7-3.83h3.33Z"/><path class="cls-3" d="M949.73,721.26a9.22,9.22,0,0,1-1.22,5.32,4.3,4.3,0,0,1-3.73,1.69,4.22,4.22,0,0,1-3.69-1.77,9.06,9.06,0,0,1-1.25-5.24,9.35,9.35,0,0,1,1.22-5.36,4.83,4.83,0,0,1,7.42.08A9.18,9.18,0,0,1,949.73,721.26Zm-6.21,0a11.79,11.79,0,0,0,.29,3.19c.19.58.52.87,1,.87s.79-.3,1-.9a11.84,11.84,0,0,0,.29-3.16,12.1,12.1,0,0,0-.29-3.19c-.2-.61-.52-.91-1-.91s-.78.29-1,.88A12,12,0,0,0,943.52,721.26Z"/><path class="cls-3" d="M961,721.26a9.22,9.22,0,0,1-1.22,5.32,4.3,4.3,0,0,1-3.73,1.69,4.22,4.22,0,0,1-3.69-1.77,9.06,9.06,0,0,1-1.25-5.24,9.35,9.35,0,0,1,1.22-5.36,4.83,4.83,0,0,1,7.42.08A9.18,9.18,0,0,1,961,721.26Zm-6.21,0a11.79,11.79,0,0,0,.29,3.19c.19.58.52.87,1,.87s.79-.3,1-.9a11.84,11.84,0,0,0,.29-3.16,12.1,12.1,0,0,0-.29-3.19c-.2-.61-.52-.91-1-.91s-.78.29-1,.88A12,12,0,0,0,954.75,721.26Z"/><path class="cls-3" d="M962,724.4v-2.92h5.29v2.92Z"/><path class="cls-3" d="M978.22,728.08h-9.93v-2.43l3.34-3.38c1-1,1.58-1.68,1.88-2a4.43,4.43,0,0,0,.61-.94,2.08,2.08,0,0,0,.17-.82,1.05,1.05,0,0,0-.34-.84,1.42,1.42,0,0,0-1-.31,2.6,2.6,0,0,0-1.3.37,9.21,9.21,0,0,0-1.5,1.09l-2-2.38a11.08,11.08,0,0,1,1.78-1.35,6.2,6.2,0,0,1,1.57-.62,7.4,7.4,0,0,1,1.9-.22,5.81,5.81,0,0,1,2.38.47,3.81,3.81,0,0,1,1.62,1.33,3.48,3.48,0,0,1,.57,2,5.35,5.35,0,0,1-.2,1.48,5.11,5.11,0,0,1-.62,1.35,9.74,9.74,0,0,1-1.12,1.39c-.47.48-1.46,1.41-3,2.77V725h5.17Z"/><path class="cls-3" d="M989.51,721.26a9.22,9.22,0,0,1-1.22,5.32,4.29,4.29,0,0,1-3.72,1.69,4.23,4.23,0,0,1-3.7-1.77,9.07,9.07,0,0,1-1.24-5.24c0-2.44.4-4.22,1.21-5.36a4.29,4.29,0,0,1,3.73-1.7,4.2,4.2,0,0,1,3.69,1.78A9.18,9.18,0,0,1,989.51,721.26Zm-6.21,0a11.79,11.79,0,0,0,.29,3.19c.2.58.52.87,1,.87s.79-.3,1-.9a12,12,0,0,0,.28-3.16,11.68,11.68,0,0,0-.29-3.19c-.19-.61-.52-.91-1-.91s-.78.29-1,.88A12,12,0,0,0,983.3,721.26Z"/><path class="cls-3" d="M1000.74,721.26a9.22,9.22,0,0,1-1.22,5.32,4.29,4.29,0,0,1-3.72,1.69,4.23,4.23,0,0,1-3.7-1.77,9.07,9.07,0,0,1-1.24-5.24c0-2.44.4-4.22,1.21-5.36a4.29,4.29,0,0,1,3.73-1.7,4.2,4.2,0,0,1,3.69,1.78A9.18,9.18,0,0,1,1000.74,721.26Zm-6.2,0a11.39,11.39,0,0,0,.29,3.19c.19.58.51.87,1,.87s.79-.3,1-.9a12,12,0,0,0,.28-3.16,11.68,11.68,0,0,0-.29-3.19c-.19-.61-.52-.91-1-.91s-.78.29-1,.88A11.6,11.6,0,0,0,994.54,721.26Z"/><path class="cls-3" d="M917.77,767.9l5.8-2.35-5.8-2.65v-2.78l9.46,4.73v1.61l-9.46,4.2Z"/><path class="cls-3" d="M938.44,772.33h-9.93V769.9l3.34-3.38c.95-1,1.58-1.68,1.87-2a3.76,3.76,0,0,0,.61-.94,1.92,1.92,0,0,0,.18-.82,1.06,1.06,0,0,0-.35-.84,1.38,1.38,0,0,0-1-.31,2.64,2.64,0,0,0-1.31.37,9.18,9.18,0,0,0-1.49,1.09l-2-2.38a10.65,10.65,0,0,1,1.78-1.35,6.2,6.2,0,0,1,1.57-.62,7.35,7.35,0,0,1,1.9-.22,5.73,5.73,0,0,1,2.37.47,3.7,3.7,0,0,1,1.62,1.33,3.41,3.41,0,0,1,.58,2,5.35,5.35,0,0,1-.2,1.48,5.49,5.49,0,0,1-.63,1.35,9.62,9.62,0,0,1-1.11,1.39c-.47.48-1.46,1.41-3,2.77v.09h5.18Z"/><path class="cls-3" d="M949.73,765.51a9.22,9.22,0,0,1-1.22,5.32,4.3,4.3,0,0,1-3.73,1.69,4.22,4.22,0,0,1-3.69-1.77,9.06,9.06,0,0,1-1.25-5.24,9.35,9.35,0,0,1,1.22-5.36,4.83,4.83,0,0,1,7.42.08A9.18,9.18,0,0,1,949.73,765.51Zm-6.21,0a11.79,11.79,0,0,0,.29,3.19c.19.58.52.87,1,.87s.79-.3,1-.9a11.84,11.84,0,0,0,.29-3.16,12.1,12.1,0,0,0-.29-3.19c-.2-.61-.52-.91-1-.91s-.78.29-1,.88A12.06,12.06,0,0,0,943.52,765.51Z"/><path class="cls-3" d="M950.8,768.65v-2.92h5.29v2.92Z"/><path class="cls-3" d="M965.31,772.33h-3.75v-7.24c0-.88,0-1.69.05-2.42a7.79,7.79,0,0,1-.86.88l-1.55,1.28-1.92-2.35,4.7-3.83h3.33Z"/><path class="cls-3" d="M978.28,765.51a9.22,9.22,0,0,1-1.22,5.32,4.29,4.29,0,0,1-3.72,1.69,4.23,4.23,0,0,1-3.7-1.77,9.07,9.07,0,0,1-1.24-5.24c0-2.44.4-4.22,1.21-5.36a4.29,4.29,0,0,1,3.73-1.7,4.2,4.2,0,0,1,3.69,1.78A9.18,9.18,0,0,1,978.28,765.51Zm-6.21,0a11.79,11.79,0,0,0,.29,3.19c.2.58.52.87,1,.87s.78-.3,1-.9a12,12,0,0,0,.28-3.16,12.1,12.1,0,0,0-.29-3.19c-.19-.61-.52-.91-1-.91s-.78.29-1,.88A12.06,12.06,0,0,0,972.07,765.51Z"/><path class="cls-3" d="M989.51,765.51a9.22,9.22,0,0,1-1.22,5.32,4.29,4.29,0,0,1-3.72,1.69,4.23,4.23,0,0,1-3.7-1.77,9.07,9.07,0,0,1-1.24-5.24c0-2.44.4-4.22,1.21-5.36a4.29,4.29,0,0,1,3.73-1.7,4.2,4.2,0,0,1,3.69,1.78A9.18,9.18,0,0,1,989.51,765.51Zm-6.21,0a11.79,11.79,0,0,0,.29,3.19c.2.58.52.87,1,.87s.79-.3,1-.9a12,12,0,0,0,.28-3.16,11.68,11.68,0,0,0-.29-3.19c-.19-.61-.52-.91-1-.91s-.78.29-1,.88A12.06,12.06,0,0,0,983.3,765.51Z"/><path class="cls-3" d="M917.77,806.9l5.8-2.35-5.8-2.65v-2.78l9.46,4.73v1.61l-9.46,4.2Z"/><path class="cls-3" d="M936.75,811.33H933v-7.24c0-.88,0-1.69.06-2.42a7.79,7.79,0,0,1-.86.88l-1.56,1.28-1.92-2.35,4.7-3.83h3.33Z"/><path class="cls-3" d="M939.57,807.65v-2.92h5.29v2.92Z"/><path class="cls-3" d="M955.76,811.33h-9.93V808.9l3.34-3.38c1-1,1.58-1.68,1.87-2a4.16,4.16,0,0,0,.62-.94,2.08,2.08,0,0,0,.17-.82,1.05,1.05,0,0,0-.34-.84,1.42,1.42,0,0,0-1-.31,2.6,2.6,0,0,0-1.3.37,9.21,9.21,0,0,0-1.5,1.09l-2-2.38a11.08,11.08,0,0,1,1.78-1.35,6.2,6.2,0,0,1,1.57-.62,7.4,7.4,0,0,1,1.9-.22,5.81,5.81,0,0,1,2.38.47,3.73,3.73,0,0,1,1.61,1.33,3.41,3.41,0,0,1,.58,2,5.35,5.35,0,0,1-.2,1.48,5.11,5.11,0,0,1-.62,1.35,9.74,9.74,0,0,1-1.12,1.39c-.47.48-1.46,1.41-3,2.77v.09h5.17Z"/><path class="cls-3" d="M967.05,804.51a9.22,9.22,0,0,1-1.22,5.32,4.29,4.29,0,0,1-3.72,1.69,4.23,4.23,0,0,1-3.7-1.77,9.07,9.07,0,0,1-1.24-5.24c0-2.44.4-4.22,1.21-5.36a4.29,4.29,0,0,1,3.73-1.7,4.2,4.2,0,0,1,3.69,1.78A9.18,9.18,0,0,1,967.05,804.51Zm-6.21,0a11.79,11.79,0,0,0,.29,3.19c.2.58.52.87,1,.87s.78-.3,1-.9a11.42,11.42,0,0,0,.29-3.16,12.1,12.1,0,0,0-.29-3.19c-.19-.61-.52-.91-1-.91s-.78.29-1,.88A12.06,12.06,0,0,0,960.84,804.51Z"/><circle class="cls-10" cx="874.25" cy="606" r="28.5"/><circle class="cls-10" cx="874.25" cy="670.5" r="22.5"/><circle class="cls-10" cx="874.25" cy="765.75" r="12"/><circle class="cls-10" cx="874.25" cy="721.5" r="18"/><circle class="cls-11" cx="874.25" cy="807.75" r="6.75"/><circle class="cls-12" cx="801.5" cy="606" r="28.5"/><circle class="cls-12" cx="801.5" cy="670.5" r="22.5"/><circle class="cls-12" cx="801.5" cy="765.75" r="12"/><circle class="cls-12" cx="801.5" cy="721.5" r="18"/><circle class="cls-13" cx="801.5" cy="807.75" r="6.75"/><path class="cls-3" d="M849.55,480.62a4,4,0,0,1-.65,2.26,4.17,4.17,0,0,1-1.86,1.53,6.8,6.8,0,0,1-2.85.55,11.51,11.51,0,0,1-2.3-.19,8.72,8.72,0,0,1-1.93-.67v-3.29a10.94,10.94,0,0,0,2.21.84,7.84,7.84,0,0,0,2.09.31,2.05,2.05,0,0,0,1.21-.29.88.88,0,0,0,.38-.73.81.81,0,0,0-.15-.49,1.85,1.85,0,0,0-.5-.43c-.23-.14-.83-.44-1.82-.88a9.09,9.09,0,0,1-2-1.18,3.76,3.76,0,0,1-1-1.31,4.44,4.44,0,0,1-.32-1.75,3.53,3.53,0,0,1,1.37-2.95,6.12,6.12,0,0,1,3.79-1.05,10.53,10.53,0,0,1,4.33,1l-1.13,2.85a8.35,8.35,0,0,0-3.32-.88,1.8,1.8,0,0,0-1.05.25.79.79,0,0,0-.32.63.91.91,0,0,0,.41.72,15,15,0,0,0,2.26,1.16,6.25,6.25,0,0,1,2.46,1.71A3.72,3.72,0,0,1,849.55,480.62Z"/><path class="cls-3" d="M859.79,484.77h-8.13V471.09h8.13v3h-4.43v2.15h4.1v3h-4.1v2.58h4.43Z"/><path class="cls-3" d="M862.18,484.77V471.09h3.72v13.68Z"/><path class="cls-3" d="M878.61,484.77H868v-2.28l5.92-8.41h-5.78v-3h10.37v2.28l-5.93,8.42h6.08Z"/><path class="cls-3" d="M892.2,471.09v8.24a5.55,5.55,0,0,1-1.52,4.16,6.08,6.08,0,0,1-4.39,1.47,6,6,0,0,1-4.3-1.43,5.44,5.44,0,0,1-1.5-4.12v-8.32h3.71v8a3.25,3.25,0,0,0,.55,2.11,2,2,0,0,0,1.6.65,1.94,1.94,0,0,0,1.64-.65,3.47,3.47,0,0,0,.51-2.13v-8Z"/><path class="cls-3" d="M898.77,479.79v5h-3.7V471.09h4.48q5.58,0,5.58,4a4,4,0,0,1-2.32,3.68l4,6h-4.2l-2.9-5Zm0-2.77h.69c1.29,0,1.94-.58,1.94-1.72,0-.94-.64-1.41-1.9-1.41h-.73Z"/><path class="cls-3" d="M916.16,484.77H908V471.09h8.12v3h-4.42v2.15h4.1v3h-4.1v2.58h4.42Z"/><path class="cls-3" d="M927.51,480.62a4,4,0,0,1-.65,2.26,4.17,4.17,0,0,1-1.86,1.53,6.82,6.82,0,0,1-2.86.55,11.4,11.4,0,0,1-2.29-.19,8.55,8.55,0,0,1-1.93-.67v-3.29a11.08,11.08,0,0,0,2.2.84,7.91,7.91,0,0,0,2.1.31,2.05,2.05,0,0,0,1.21-.29.88.88,0,0,0,.38-.73.81.81,0,0,0-.15-.49,1.85,1.85,0,0,0-.5-.43c-.23-.14-.83-.44-1.82-.88a9.09,9.09,0,0,1-2-1.18,3.64,3.64,0,0,1-1-1.31,4.27,4.27,0,0,1-.32-1.75,3.53,3.53,0,0,1,1.37-2.95,6.11,6.11,0,0,1,3.78-1.05,10.57,10.57,0,0,1,4.34,1l-1.14,2.85a8.3,8.3,0,0,0-3.31-.88,1.8,1.8,0,0,0-1,.25.76.76,0,0,0-.32.63.88.88,0,0,0,.41.72,15,15,0,0,0,2.26,1.16,6.25,6.25,0,0,1,2.46,1.71A3.72,3.72,0,0,1,927.51,480.62Z"/><path class="cls-3" d="M947.4,477.91a7.35,7.35,0,0,1-1.69,5.25,7.69,7.69,0,0,1-9.9,0,8.89,8.89,0,0,1,0-10.47,7.77,7.77,0,0,1,9.92,0A7.43,7.43,0,0,1,947.4,477.91Zm-9.41,0q0,4,2.76,4a2.37,2.37,0,0,0,2.08-1,7,7,0,0,0,0-6,2.32,2.32,0,0,0-2.05-1Q938,473.91,938,477.91Z"/><path class="cls-3" d="M953.51,484.77h-3.64V471.09H958v3h-4.45v2.61h4.1v3h-4.1Z"/><path class="cls-3" d="M968.83,484.77h-3.65V471.09h8.09v3h-4.44v2.61h4.09v3h-4.09Z"/><path class="cls-3" d="M979.21,479.79v5h-3.69V471.09H980q5.58,0,5.58,4a4,4,0,0,1-2.32,3.68l4,6h-4.19l-2.9-5Zm0-2.77h.7c1.29,0,1.93-.58,1.93-1.72,0-.94-.63-1.41-1.9-1.41h-.73Z"/><path class="cls-3" d="M1001.29,477.91a7.35,7.35,0,0,1-1.69,5.25,7.69,7.69,0,0,1-9.9,0,8.85,8.85,0,0,1,0-10.47,7.77,7.77,0,0,1,9.92,0A7.43,7.43,0,0,1,1001.29,477.91Zm-9.41,0q0,4,2.76,4a2.38,2.38,0,0,0,2.08-1,7,7,0,0,0,0-6,2.32,2.32,0,0,0-2.05-1C992.8,473.91,991.88,475.24,991.88,477.91Z"/><path class="cls-3" d="M1013.51,484.77h-10.66v-2.28l5.93-8.41H1003v-3h10.37v2.28l-5.92,8.42h6.07Z"/><path class="cls-3" d="M1023.59,484.77h-8.12V471.09h8.12v3h-4.42v2.15h4.09v3h-4.09v2.58h4.42Z"/><path class="cls-3" d="M1039,484.77h-4.85l-5-9.64h-.08c.12,1.52.17,2.68.17,3.48v6.16H1026V471.09h4.83l5,9.51h0c-.09-1.38-.13-2.49-.13-3.32v-6.19h3.3Z"/><path class="cls-3" d="M1056.88,475.44a4.61,4.61,0,0,1-1.35,3.55,5.46,5.46,0,0,1-3.84,1.24h-1v4.54H1047V471.09h4.74a5.81,5.81,0,0,1,3.89,1.13A4,4,0,0,1,1056.88,475.44Zm-6.23,1.78h.67a1.82,1.82,0,0,0,1.33-.47,1.72,1.72,0,0,0,.49-1.29c0-.92-.51-1.38-1.54-1.38h-.95Z"/><path class="cls-3" d="M1067.46,484.77l-.68-2.56h-4.44l-.7,2.56h-4.06l4.47-13.73H1067l4.52,13.73Zm-1.44-5.59-.59-2.25c-.14-.5-.31-1.14-.51-1.94s-.32-1.36-.38-1.7c-.06.32-.17.84-.34,1.57s-.53,2.17-1.1,4.32Z"/><path class="cls-3" d="M1086,484.77h-4.85l-5-9.64h-.08c.12,1.52.17,2.68.17,3.48v6.16H1073V471.09h4.83l5,9.51h0c-.09-1.38-.13-2.49-.13-3.32v-6.19h3.3Z"/><path class="cls-3" d="M1094.46,476.76h5.9v7.38a16.17,16.17,0,0,1-5.29.82,6.43,6.43,0,0,1-4.89-1.83,7.36,7.36,0,0,1-1.72-5.23,6.88,6.88,0,0,1,1.89-5.16,7.26,7.26,0,0,1,5.3-1.84,11.78,11.78,0,0,1,2.43.24,10.06,10.06,0,0,1,2,.62l-1.17,2.9a7.18,7.18,0,0,0-3.25-.73,3.08,3.08,0,0,0-2.5,1.05,5.66,5.66,0,0,0-.08,5.93,2.77,2.77,0,0,0,2.3,1,6.57,6.57,0,0,0,1.52-.16v-2.14h-2.44Z"/><path class="cls-3" d="M1116,477.91a7.35,7.35,0,0,1-1.69,5.25,7.69,7.69,0,0,1-9.9,0,8.89,8.89,0,0,1,0-10.47,7.77,7.77,0,0,1,9.92,0A7.43,7.43,0,0,1,1116,477.91Zm-9.41,0q0,4,2.76,4a2.37,2.37,0,0,0,2.08-1,7,7,0,0,0,0-6,2.32,2.32,0,0,0-2-1C1107.46,473.91,1106.54,475.24,1106.54,477.91Z"/><path class="cls-3" d="M1118.42,484.77V471.09h3.7v10.7h5.27v3Z"/><path class="cls-3" d="M1129.58,484.77V471.09h3.72v13.68Z"/><path class="cls-3" d="M1149.28,484.77h-4.85l-5-9.64h-.08q.18,2.28.18,3.48v6.16h-3.28V471.09h4.83l5,9.51h.06c-.09-1.38-.13-2.49-.13-3.32v-6.19h3.29Z"/><path class="cls-3" d="M1161.18,480.62a4,4,0,0,1-.64,2.26,4.17,4.17,0,0,1-1.86,1.53,6.85,6.85,0,0,1-2.86.55,11.4,11.4,0,0,1-2.29-.19,8.55,8.55,0,0,1-1.93-.67v-3.29a11.08,11.08,0,0,0,2.2.84,7.91,7.91,0,0,0,2.1.31,2,2,0,0,0,1.2-.29.86.86,0,0,0,.39-.73.76.76,0,0,0-.16-.49,1.65,1.65,0,0,0-.49-.43c-.23-.14-.84-.44-1.82-.88a8.85,8.85,0,0,1-2-1.18,3.53,3.53,0,0,1-1-1.31,4.27,4.27,0,0,1-.33-1.75,3.51,3.51,0,0,1,1.38-2.95,6.11,6.11,0,0,1,3.78-1.05,10.49,10.49,0,0,1,4.33,1l-1.13,2.85a8.3,8.3,0,0,0-3.31-.88,1.8,1.8,0,0,0-1,.25.77.77,0,0,0-.33.63.9.9,0,0,0,.42.72,15,15,0,0,0,2.26,1.16,6.25,6.25,0,0,1,2.46,1.71A3.71,3.71,0,0,1,1161.18,480.62Z"/><path class="cls-3" d="M1181.08,477.91a7.35,7.35,0,0,1-1.69,5.25,7.69,7.69,0,0,1-9.9,0,8.85,8.85,0,0,1,0-10.47,7.77,7.77,0,0,1,9.92,0A7.43,7.43,0,0,1,1181.08,477.91Zm-9.41,0q0,4,2.76,4a2.38,2.38,0,0,0,2.08-1,7,7,0,0,0,0-6,2.32,2.32,0,0,0-2-1C1172.59,473.91,1171.67,475.24,1171.67,477.91Z"/><path class="cls-3" d="M1187.25,479.79v5h-3.7V471.09H1188q5.57,0,5.57,4a4,4,0,0,1-2.32,3.68l4,6h-4.19l-2.91-5Zm0-2.77h.69c1.29,0,1.94-.58,1.94-1.72,0-.94-.63-1.41-1.9-1.41h-.73Z"/><path class="cls-3" d="M1210.45,480.62a4,4,0,0,1-.65,2.26,4.17,4.17,0,0,1-1.86,1.53,6.8,6.8,0,0,1-2.85.55,11.51,11.51,0,0,1-2.3-.19,8.48,8.48,0,0,1-1.92-.67v-3.29a10.63,10.63,0,0,0,2.2.84,7.9,7.9,0,0,0,2.09.31,2.05,2.05,0,0,0,1.21-.29.88.88,0,0,0,.38-.73.81.81,0,0,0-.15-.49,1.71,1.71,0,0,0-.5-.43c-.23-.14-.83-.44-1.82-.88a9.09,9.09,0,0,1-2-1.18,3.76,3.76,0,0,1-1-1.31,4.44,4.44,0,0,1-.32-1.75,3.53,3.53,0,0,1,1.37-2.95,6.12,6.12,0,0,1,3.79-1.05,10.53,10.53,0,0,1,4.33,1l-1.13,2.85a8.35,8.35,0,0,0-3.32-.88,1.74,1.74,0,0,0-1,.25.77.77,0,0,0-.33.63.91.91,0,0,0,.41.72,15.54,15.54,0,0,0,2.26,1.16,6.25,6.25,0,0,1,2.46,1.71A3.72,3.72,0,0,1,1210.45,480.62Z"/><path class="cls-3" d="M1218.66,473.93a2.36,2.36,0,0,0-2.06,1.08,5.15,5.15,0,0,0-.74,3q0,3.94,3,3.95a6.45,6.45,0,0,0,1.76-.25c.57-.17,1.14-.38,1.71-.61v3.12a9.38,9.38,0,0,1-3.87.76,6.12,6.12,0,0,1-4.75-1.8,7.4,7.4,0,0,1-1.65-5.19,8.29,8.29,0,0,1,.8-3.73,5.7,5.7,0,0,1,2.3-2.48,6.92,6.92,0,0,1,3.53-.86,9.77,9.77,0,0,1,4.24,1l-1.13,2.91a12,12,0,0,0-1.52-.6A5.29,5.29,0,0,0,1218.66,473.93Z"/><path class="cls-3" d="M1233.4,484.77l-.68-2.56h-4.44l-.7,2.56h-4.06L1228,471h4.93l4.52,13.73Zm-1.44-5.59-.59-2.25c-.14-.5-.31-1.14-.51-1.94s-.32-1.36-.38-1.7c-.06.32-.17.84-.34,1.57s-.53,2.17-1.1,4.32Z"/><path class="cls-3" d="M1238.92,484.77V471.09h3.7v10.7h5.26v3Z"/><path class="cls-3" d="M1258.2,484.77h-8.13V471.09h8.13v3h-4.43v2.15h4.1v3h-4.1v2.58h4.43Z"/><path class="cls-3" d="M1269.54,480.62a4,4,0,0,1-.65,2.26,4.17,4.17,0,0,1-1.86,1.53,6.8,6.8,0,0,1-2.85.55,11.51,11.51,0,0,1-2.3-.19,8.48,8.48,0,0,1-1.92-.67v-3.29a10.63,10.63,0,0,0,2.2.84,7.9,7.9,0,0,0,2.09.31,2.05,2.05,0,0,0,1.21-.29.88.88,0,0,0,.38-.73.81.81,0,0,0-.15-.49,1.71,1.71,0,0,0-.5-.43c-.23-.14-.83-.44-1.82-.88a8.75,8.75,0,0,1-2-1.18,3.67,3.67,0,0,1-1-1.31,4.44,4.44,0,0,1-.32-1.75,3.51,3.51,0,0,1,1.38-2.95,6.07,6.07,0,0,1,3.78-1.05,10.53,10.53,0,0,1,4.33,1l-1.13,2.85a8.35,8.35,0,0,0-3.32-.88,1.74,1.74,0,0,0-1,.25.77.77,0,0,0-.33.63.91.91,0,0,0,.41.72,15.3,15.3,0,0,0,2.27,1.16,6.28,6.28,0,0,1,2.45,1.71A3.72,3.72,0,0,1,1269.54,480.62Z"/><path class="cls-3" d="M850.55,535.62a4,4,0,0,1-.65,2.26,4.17,4.17,0,0,1-1.86,1.53,6.8,6.8,0,0,1-2.85.55,11.51,11.51,0,0,1-2.3-.19,8.72,8.72,0,0,1-1.93-.67v-3.29a10.94,10.94,0,0,0,2.21.84,7.84,7.84,0,0,0,2.09.31,2.05,2.05,0,0,0,1.21-.29.88.88,0,0,0,.38-.73.81.81,0,0,0-.15-.49,1.85,1.85,0,0,0-.5-.43c-.23-.14-.83-.44-1.82-.88a9.09,9.09,0,0,1-2-1.18,3.76,3.76,0,0,1-1-1.31,4.44,4.44,0,0,1-.32-1.75,3.53,3.53,0,0,1,1.37-2.95,6.12,6.12,0,0,1,3.79-1.05,10.53,10.53,0,0,1,4.33,1l-1.13,2.85a8.35,8.35,0,0,0-3.32-.88,1.8,1.8,0,0,0-1.05.25.79.79,0,0,0-.32.63.91.91,0,0,0,.41.72,15,15,0,0,0,2.26,1.16,6.25,6.25,0,0,1,2.46,1.71A3.72,3.72,0,0,1,850.55,535.62Z"/><path class="cls-3" d="M860.79,539.77h-8.13V526.09h8.13v3h-4.43v2.15h4.1v3h-4.1v2.58h4.43Z"/><path class="cls-3" d="M863.18,539.77V526.09h3.72v13.68Z"/><path class="cls-3" d="M879.61,539.77H869v-2.28l5.92-8.41h-5.78v-3h10.37v2.28l-5.93,8.42h6.08Z"/><path class="cls-3" d="M893.2,526.09v8.24a5.55,5.55,0,0,1-1.52,4.16,6.08,6.08,0,0,1-4.39,1.47,6,6,0,0,1-4.3-1.43,5.44,5.44,0,0,1-1.5-4.12v-8.32h3.71v8a3.25,3.25,0,0,0,.55,2.11,2,2,0,0,0,1.6.65,1.94,1.94,0,0,0,1.64-.65,3.47,3.47,0,0,0,.51-2.13v-8Z"/><path class="cls-3" d="M899.77,534.79v5h-3.7V526.09h4.48q5.58,0,5.58,4a4,4,0,0,1-2.32,3.68l4,6h-4.2l-2.9-5Zm0-2.77h.69c1.29,0,1.94-.58,1.94-1.72,0-.94-.64-1.41-1.9-1.41h-.73Z"/><path class="cls-3" d="M917.16,539.77H909V526.09h8.12v3h-4.42v2.15h4.1v3h-4.1v2.58h4.42Z"/><path class="cls-3" d="M928.51,535.62a4,4,0,0,1-.65,2.26,4.17,4.17,0,0,1-1.86,1.53,6.82,6.82,0,0,1-2.86.55,11.4,11.4,0,0,1-2.29-.19,8.55,8.55,0,0,1-1.93-.67v-3.29a11.08,11.08,0,0,0,2.2.84,7.91,7.91,0,0,0,2.1.31,2.05,2.05,0,0,0,1.21-.29.88.88,0,0,0,.38-.73.81.81,0,0,0-.15-.49,1.85,1.85,0,0,0-.5-.43c-.23-.14-.83-.44-1.82-.88a9.09,9.09,0,0,1-2-1.18,3.64,3.64,0,0,1-1-1.31,4.27,4.27,0,0,1-.32-1.75,3.53,3.53,0,0,1,1.37-2.95,6.11,6.11,0,0,1,3.78-1.05,10.57,10.57,0,0,1,4.34,1l-1.14,2.85a8.3,8.3,0,0,0-3.31-.88,1.8,1.8,0,0,0-1,.25.76.76,0,0,0-.32.63.88.88,0,0,0,.41.72,15,15,0,0,0,2.26,1.16,6.25,6.25,0,0,1,2.46,1.71A3.72,3.72,0,0,1,928.51,535.62Z"/><path class="cls-3" d="M948.4,532.91a7.35,7.35,0,0,1-1.69,5.25,7.69,7.69,0,0,1-9.9,0,8.89,8.89,0,0,1,0-10.47,7.77,7.77,0,0,1,9.92,0A7.43,7.43,0,0,1,948.4,532.91Zm-9.41,0q0,4,2.76,4a2.37,2.37,0,0,0,2.08-1,7,7,0,0,0,0-6,2.32,2.32,0,0,0-2.05-1Q939,528.91,939,532.91Z"/><path class="cls-3" d="M954.51,539.77h-3.64V526.09H959v3h-4.45v2.61h4.1v3h-4.1Z"/><path class="cls-3" d="M966.18,539.77V526.09h3.7v10.7h5.27v3Z"/><path class="cls-3" d="M977.34,539.77V526.09h3.72v13.68Z"/><path class="cls-3" d="M991.7,526.09h4.13l-4.48,13.68H987l-4.47-13.68h4.16l1.86,6.94a21.1,21.1,0,0,1,.64,3.22,16.26,16.26,0,0,1,.26-1.64c.13-.66.25-1.17.35-1.55Z"/><path class="cls-3" d="M1005.43,539.77h-8.12V526.09h8.12v3H1001v2.15h4.1v3H1001v2.58h4.42Z"/><path class="cls-3" d="M1022.74,530.44a4.61,4.61,0,0,1-1.35,3.55,5.47,5.47,0,0,1-3.85,1.24h-1v4.54h-3.7V526.09h4.73a5.84,5.84,0,0,1,3.9,1.13A4,4,0,0,1,1022.74,530.44Zm-6.23,1.78h.67a1.78,1.78,0,0,0,1.32-.47,1.69,1.69,0,0,0,.5-1.29c0-.92-.52-1.38-1.54-1.38h-1Z"/><path class="cls-3" d="M1033.31,539.77l-.67-2.56h-4.44l-.7,2.56h-4.06l4.47-13.73h4.93l4.52,13.73Zm-1.44-5.59-.59-2.25c-.13-.5-.3-1.14-.5-1.94s-.32-1.36-.39-1.7c-.05.32-.16.84-.33,1.57s-.53,2.17-1.1,4.32Z"/><path class="cls-3" d="M1051.86,539.77H1047l-5-9.64h-.09q.18,2.28.18,3.48v6.16h-3.27V526.09h4.83l5,9.51h.06c-.09-1.38-.13-2.49-.13-3.32v-6.19h3.29Z"/><path class="cls-3" d="M1060.32,531.76h5.9v7.38a16.22,16.22,0,0,1-5.29.82,6.4,6.4,0,0,1-4.89-1.83,7.36,7.36,0,0,1-1.72-5.23,6.88,6.88,0,0,1,1.89-5.16,7.25,7.25,0,0,1,5.29-1.84,11.88,11.88,0,0,1,2.44.24,10.06,10.06,0,0,1,2,.62l-1.17,2.9a7.21,7.21,0,0,0-3.25-.73A3.08,3.08,0,0,0,1059,530a4.56,4.56,0,0,0-.89,3,4.62,4.62,0,0,0,.8,2.92,2.8,2.8,0,0,0,2.31,1,6.57,6.57,0,0,0,1.52-.16v-2.14h-2.44Z"/><path class="cls-3" d="M1081.81,532.91a7.35,7.35,0,0,1-1.69,5.25,7.69,7.69,0,0,1-9.9,0,8.85,8.85,0,0,1,0-10.47,7.77,7.77,0,0,1,9.92,0A7.43,7.43,0,0,1,1081.81,532.91Zm-9.41,0q0,4,2.76,4a2.38,2.38,0,0,0,2.08-1,7,7,0,0,0,0-6,2.32,2.32,0,0,0-2-1C1073.32,528.91,1072.4,530.24,1072.4,532.91Z"/><path class="cls-3" d="M1084.28,539.77V526.09h3.7v10.7h5.27v3Z"/><path class="cls-3" d="M1095.44,539.77V526.09h3.71v13.68Z"/><path class="cls-3" d="M1115.14,539.77h-4.85l-5-9.64h-.08q.18,2.28.18,3.48v6.16h-3.28V526.09h4.83l5,9.51h0c-.08-1.38-.13-2.49-.13-3.32v-6.19h3.3Z"/><path class="cls-3" d="M1127,535.62a4,4,0,0,1-.64,2.26,4.15,4.15,0,0,1-1.87,1.53,6.8,6.8,0,0,1-2.85.55,11.33,11.33,0,0,1-2.29-.19,8.55,8.55,0,0,1-1.93-.67v-3.29a10.85,10.85,0,0,0,2.2.84,7.9,7.9,0,0,0,2.09.31,2,2,0,0,0,1.21-.29.86.86,0,0,0,.39-.73.82.82,0,0,0-.16-.49,1.79,1.79,0,0,0-.49-.43c-.23-.14-.84-.44-1.82-.88a8.63,8.63,0,0,1-2-1.18,3.53,3.53,0,0,1-1-1.31,4.27,4.27,0,0,1-.33-1.75,3.51,3.51,0,0,1,1.38-2.95,6.11,6.11,0,0,1,3.78-1.05,10.49,10.49,0,0,1,4.33,1l-1.13,2.85a8.3,8.3,0,0,0-3.31-.88,1.8,1.8,0,0,0-1,.25.77.77,0,0,0-.33.63.9.9,0,0,0,.42.72,15,15,0,0,0,2.26,1.16,6.13,6.13,0,0,1,2.45,1.71A3.72,3.72,0,0,1,1127,535.62Z"/><circle class="cls-12" cx="800.5" cy="477.5" r="18.5"/><circle class="cls-10" cx="800.5" cy="532.5" r="18.5"/><path d="M787.65,840.65a3.28,3.28,0,0,0-2.6,1.1,4.45,4.45,0,0,0-.95,3,4.55,4.55,0,0,0,.92,3,3.26,3.26,0,0,0,2.62,1.07,9.05,9.05,0,0,0,2.39-.38v1a7.39,7.39,0,0,1-2.57.39,4.36,4.36,0,0,1-3.41-1.34,5.51,5.51,0,0,1-1.2-3.81,6,6,0,0,1,.58-2.7,4.16,4.16,0,0,1,1.67-1.8,5.15,5.15,0,0,1,2.57-.62,6.29,6.29,0,0,1,2.75.57l-.5,1A5.21,5.21,0,0,0,787.65,840.65Z"/><path d="M798.5,846a4.15,4.15,0,0,1-.92,2.86,3.25,3.25,0,0,1-2.55,1,3.38,3.38,0,0,1-1.78-.47,3.15,3.15,0,0,1-1.21-1.36,4.7,4.7,0,0,1-.42-2.06,4.12,4.12,0,0,1,.91-2.85,3.26,3.26,0,0,1,2.55-1,3.18,3.18,0,0,1,2.5,1A4.15,4.15,0,0,1,798.5,846Zm-5.71,0a3.57,3.57,0,0,0,.58,2.19,2,2,0,0,0,1.69.75,2,2,0,0,0,1.69-.75,3.57,3.57,0,0,0,.58-2.19,3.51,3.51,0,0,0-.58-2.17,2.06,2.06,0,0,0-1.71-.74,2,2,0,0,0-1.68.73A3.5,3.5,0,0,0,792.79,846Z"/><path d="M810,849.75v-4.87a2,2,0,0,0-.38-1.34,1.48,1.48,0,0,0-1.19-.45,1.92,1.92,0,0,0-1.57.61,2.92,2.92,0,0,0-.5,1.87v4.18h-1.14v-4.87a2,2,0,0,0-.38-1.34,1.49,1.49,0,0,0-1.2-.45,1.84,1.84,0,0,0-1.56.64,3.44,3.44,0,0,0-.49,2.09v3.93h-1.14v-7.49h.92l.19,1h0a2.29,2.29,0,0,1,.91-.86,2.81,2.81,0,0,1,1.31-.31,2.24,2.24,0,0,1,2.3,1.28h.05a2.29,2.29,0,0,1,1-.93,3,3,0,0,1,1.45-.35,2.51,2.51,0,0,1,1.9.66,2.92,2.92,0,0,1,.64,2.09v4.88Z"/><path d="M817,849.89a3.27,3.27,0,0,1-1.34-.27,2.53,2.53,0,0,1-1-.83h-.08a11,11,0,0,1,.08,1.24v3.09h-1.14V842.26h.93l.15,1h.06a2.6,2.6,0,0,1,1-.89,3.1,3.1,0,0,1,1.33-.28,2.77,2.77,0,0,1,2.3,1,5.44,5.44,0,0,1,0,5.73A2.78,2.78,0,0,1,817,849.89Zm-.16-6.8a2,2,0,0,0-1.67.63,3.32,3.32,0,0,0-.52,2V846a3.76,3.76,0,0,0,.52,2.26,2,2,0,0,0,1.69.68,1.73,1.73,0,0,0,1.52-.79,3.67,3.67,0,0,0,.55-2.16,3.56,3.56,0,0,0-.55-2.15A1.79,1.79,0,0,0,816.84,843.09Z"/><path d="M822,840.23a.74.74,0,0,1,.19-.57.68.68,0,0,1,.48-.18.67.67,0,0,1,.47.18.77.77,0,0,1,.2.57.74.74,0,0,1-.2.57.64.64,0,0,1-.47.19.65.65,0,0,1-.48-.19A.74.74,0,0,1,822,840.23Zm1.23,9.52h-1.14v-7.49h1.14Z"/><path d="M826.77,849.75h-1.14V839.12h1.14Z"/><path d="M832.34,849.89a3.45,3.45,0,0,1-2.62-1,3.93,3.93,0,0,1-1-2.81,4.37,4.37,0,0,1,.89-2.88,3,3,0,0,1,2.4-1.07,2.8,2.8,0,0,1,2.22.93,3.53,3.53,0,0,1,.82,2.44v.72h-5.16a3,3,0,0,0,.67,2,2.33,2.33,0,0,0,1.78.68,5.94,5.94,0,0,0,2.39-.51v1a6,6,0,0,1-1.13.38A6.85,6.85,0,0,1,832.34,849.89Zm-.31-6.82a1.87,1.87,0,0,0-1.44.59,2.74,2.74,0,0,0-.63,1.63h3.92a2.47,2.47,0,0,0-.48-1.64A1.7,1.7,0,0,0,832,843.07Z"/><path d="M842.13,848.75h-.06a2.68,2.68,0,0,1-2.35,1.14,2.78,2.78,0,0,1-2.29-1,4.41,4.41,0,0,1-.82-2.86,4.53,4.53,0,0,1,.82-2.88,2.79,2.79,0,0,1,2.29-1,2.71,2.71,0,0,1,2.33,1.11h.09l0-.54,0-.52v-3h1.13v10.63h-.92Zm-2.27.19a2.05,2.05,0,0,0,1.68-.63,3.18,3.18,0,0,0,.53-2V846a3.82,3.82,0,0,0-.53-2.28,2,2,0,0,0-1.69-.68,1.73,1.73,0,0,0-1.53.78,3.81,3.81,0,0,0-.53,2.19,3.72,3.72,0,0,0,.52,2.17A1.79,1.79,0,0,0,839.86,848.94Z"/><path d="M852.62,843.14h-1.91v6.61h-1.13v-6.61h-1.34v-.51l1.34-.41v-.42c0-1.84.8-2.76,2.41-2.76a5,5,0,0,1,1.4.24l-.3.91A3.74,3.74,0,0,0,852,840a1.08,1.08,0,0,0-1,.43,2.41,2.41,0,0,0-.31,1.37v.48h1.91Z"/><path d="M857.41,842.12a4,4,0,0,1,.89.09l-.15,1a3.79,3.79,0,0,0-.82-.1,2,2,0,0,0-1.56.74,2.68,2.68,0,0,0-.65,1.83v4H854v-7.49h.94l.13,1.39h.05a3.28,3.28,0,0,1,1-1.13A2.29,2.29,0,0,1,857.41,842.12Z"/><path d="M866.17,846a4.15,4.15,0,0,1-.92,2.86,3.25,3.25,0,0,1-2.55,1,3.44,3.44,0,0,1-1.79-.47,3.12,3.12,0,0,1-1.2-1.36,4.7,4.7,0,0,1-.42-2.06,4.12,4.12,0,0,1,.91-2.85,3.26,3.26,0,0,1,2.55-1,3.18,3.18,0,0,1,2.5,1A4.15,4.15,0,0,1,866.17,846Zm-5.71,0a3.51,3.51,0,0,0,.58,2.19,2,2,0,0,0,1.69.75,2,2,0,0,0,1.69-.75A3.57,3.57,0,0,0,865,846a3.51,3.51,0,0,0-.58-2.17,2.06,2.06,0,0,0-1.71-.74,2,2,0,0,0-1.68.73A3.5,3.5,0,0,0,860.46,846Z"/><path d="M877.71,849.75v-4.87a2,2,0,0,0-.38-1.34,1.48,1.48,0,0,0-1.19-.45,1.92,1.92,0,0,0-1.57.61,2.92,2.92,0,0,0-.5,1.87v4.18h-1.14v-4.87a2,2,0,0,0-.38-1.34,1.5,1.5,0,0,0-1.2-.45,1.84,1.84,0,0,0-1.56.64,3.43,3.43,0,0,0-.5,2.09v3.93h-1.13v-7.49h.92l.19,1h.05a2.29,2.29,0,0,1,.91-.86,2.81,2.81,0,0,1,1.31-.31,2.22,2.22,0,0,1,2.29,1.28h.06a2.29,2.29,0,0,1,1-.93,3,3,0,0,1,1.45-.35,2.51,2.51,0,0,1,1.9.66,2.92,2.92,0,0,1,.63,2.09v4.88Z"/><path d="M894.37,849.75v-4.87a2,2,0,0,0-.38-1.34,1.5,1.5,0,0,0-1.19-.45,1.92,1.92,0,0,0-1.57.61,2.86,2.86,0,0,0-.5,1.87v4.18h-1.14v-4.87a2,2,0,0,0-.38-1.34,1.5,1.5,0,0,0-1.2-.45,1.84,1.84,0,0,0-1.56.64,3.43,3.43,0,0,0-.5,2.09v3.93h-1.13v-7.49h.92l.19,1H886a2.29,2.29,0,0,1,.91-.86,2.81,2.81,0,0,1,1.31-.31,2.22,2.22,0,0,1,2.29,1.28h.06a2.24,2.24,0,0,1,1-.93,3,3,0,0,1,1.45-.35,2.51,2.51,0,0,1,1.9.66,2.92,2.92,0,0,1,.63,2.09v4.88Z"/><path d="M901,849.89a3.49,3.49,0,0,1-2.63-1,4,4,0,0,1-1-2.81,4.32,4.32,0,0,1,.9-2.88,3,3,0,0,1,2.39-1.07,2.83,2.83,0,0,1,2.23.93,3.53,3.53,0,0,1,.82,2.44v.72H898.6a3,3,0,0,0,.67,2,2.31,2.31,0,0,0,1.78.68,6,6,0,0,0,2.39-.51v1a5.86,5.86,0,0,1-1.14.38A6.82,6.82,0,0,1,901,849.89Zm-.31-6.82a1.87,1.87,0,0,0-1.44.59,2.68,2.68,0,0,0-.63,1.63h3.91a2.47,2.47,0,0,0-.47-1.64A1.7,1.7,0,0,0,900.7,843.07Z"/><path d="M910.8,848.75h-.07a2.65,2.65,0,0,1-2.35,1.14,2.76,2.76,0,0,1-2.28-1,4.41,4.41,0,0,1-.82-2.86,4.47,4.47,0,0,1,.82-2.88,2.78,2.78,0,0,1,2.28-1,2.72,2.72,0,0,1,2.34,1.11h.09l0-.54,0-.52v-3h1.14v10.63H911Zm-2.27.19a2.07,2.07,0,0,0,1.68-.63,3.18,3.18,0,0,0,.52-2V846a3.75,3.75,0,0,0-.53-2.28,2,2,0,0,0-1.69-.68,1.72,1.72,0,0,0-1.52.78,3.81,3.81,0,0,0-.53,2.19,3.72,3.72,0,0,0,.52,2.17A1.78,1.78,0,0,0,908.53,848.94Z"/><path d="M914.18,840.23a.74.74,0,0,1,.19-.57.68.68,0,0,1,.48-.18.67.67,0,0,1,.47.18.77.77,0,0,1,.2.57.74.74,0,0,1-.2.57.64.64,0,0,1-.47.19.65.65,0,0,1-.48-.19A.74.74,0,0,1,914.18,840.23Zm1.23,9.52h-1.13v-7.49h1.13Z"/><path d="M922.42,849.75l-.22-1.06h-.06a3.13,3.13,0,0,1-1.11.95,3.41,3.41,0,0,1-1.4.25,2.5,2.5,0,0,1-1.74-.57,2.12,2.12,0,0,1-.63-1.64q0-2.26,3.63-2.38l1.27,0v-.46a1.9,1.9,0,0,0-.38-1.3,1.53,1.53,0,0,0-1.22-.43,5,5,0,0,0-2.11.58l-.35-.87a5.16,5.16,0,0,1,1.21-.47,5.43,5.43,0,0,1,1.32-.17,2.88,2.88,0,0,1,2,.59,2.5,2.5,0,0,1,.64,1.91v5.11Zm-2.56-.8a2.31,2.31,0,0,0,1.67-.58,2.14,2.14,0,0,0,.6-1.62v-.68l-1.13,0a4.1,4.1,0,0,0-2,.42,1.26,1.26,0,0,0-.59,1.16,1.14,1.14,0,0,0,.37.93A1.51,1.51,0,0,0,919.86,849Z"/><path d="M932.66,842.12a4,4,0,0,1,.89.09l-.15,1a3.79,3.79,0,0,0-.82-.1,2,2,0,0,0-1.56.74,2.68,2.68,0,0,0-.65,1.83v4h-1.13v-7.49h.94l.13,1.39h.05a3.28,3.28,0,0,1,1-1.13A2.29,2.29,0,0,1,932.66,842.12Z"/><path d="M938.12,849.89a3.45,3.45,0,0,1-2.62-1,3.93,3.93,0,0,1-1-2.81,4.31,4.31,0,0,1,.89-2.88,3,3,0,0,1,2.4-1.07,2.8,2.8,0,0,1,2.22.93,3.53,3.53,0,0,1,.82,2.44v.72h-5.16a3,3,0,0,0,.67,2,2.31,2.31,0,0,0,1.78.68,6,6,0,0,0,2.39-.51v1a6,6,0,0,1-1.13.38A6.93,6.93,0,0,1,938.12,849.89Zm-.31-6.82a1.87,1.87,0,0,0-1.44.59,2.68,2.68,0,0,0-.63,1.63h3.92a2.47,2.47,0,0,0-.48-1.64A1.7,1.7,0,0,0,937.81,843.07Z"/><path d="M946.29,849.89a3.23,3.23,0,0,1-1.33-.27,2.56,2.56,0,0,1-1-.83h-.08a9.09,9.09,0,0,1,.08,1.24v3.09h-1.13V842.26h.92l.16,1h.05a2.67,2.67,0,0,1,1-.89,3.13,3.13,0,0,1,1.33-.28,2.79,2.79,0,0,1,2.31,1,4.55,4.55,0,0,1,.81,2.86,4.46,4.46,0,0,1-.83,2.87A2.78,2.78,0,0,1,946.29,849.89Zm-.16-6.8a2,2,0,0,0-1.66.63,3.31,3.31,0,0,0-.53,2V846a3.75,3.75,0,0,0,.53,2.26,2,2,0,0,0,1.69.68,1.74,1.74,0,0,0,1.52-.79,3.67,3.67,0,0,0,.55-2.16,3.56,3.56,0,0,0-.55-2.15A1.81,1.81,0,0,0,946.13,843.09Z"/><path d="M957.85,846a4.1,4.1,0,0,1-.92,2.86,3.22,3.22,0,0,1-2.55,1,3.4,3.4,0,0,1-1.78-.47,3.21,3.21,0,0,1-1.21-1.36A4.7,4.7,0,0,1,951,846a4.12,4.12,0,0,1,.92-2.85,3.23,3.23,0,0,1,2.54-1,3.17,3.17,0,0,1,2.5,1A4.1,4.1,0,0,1,957.85,846Zm-5.7,0a3.58,3.58,0,0,0,.57,2.19,2.28,2.28,0,0,0,3.38,0,3.51,3.51,0,0,0,.58-2.19,3.44,3.44,0,0,0-.58-2.17,2,2,0,0,0-1.7-.74,2,2,0,0,0-1.69.73A3.57,3.57,0,0,0,952.15,846Z"/><path d="M963.26,842.12a4.16,4.16,0,0,1,.9.09l-.16,1a3.72,3.72,0,0,0-.82-.1,2,2,0,0,0-1.56.74,2.67,2.67,0,0,0-.64,1.83v4h-1.14v-7.49h.94l.13,1.39H961a3.39,3.39,0,0,1,1-1.13A2.29,2.29,0,0,1,963.26,842.12Z"/><path d="M968,849a3.69,3.69,0,0,0,.58,0l.44-.09v.87a2.55,2.55,0,0,1-.54.14,3.93,3.93,0,0,1-.65.06c-1.44,0-2.17-.76-2.17-2.29v-4.46h-1.07v-.54l1.07-.48.48-1.6h.66v1.74H969v.88h-2.17v4.41a1.49,1.49,0,0,0,.32,1A1.1,1.1,0,0,0,968,849Z"/><path d="M975.33,847.71a1.87,1.87,0,0,1-.78,1.61,3.6,3.6,0,0,1-2.18.57,4.83,4.83,0,0,1-2.33-.47v-1a6.16,6.16,0,0,0,1.16.43,5,5,0,0,0,1.19.15,2.69,2.69,0,0,0,1.37-.28.94.94,0,0,0,.48-.86.93.93,0,0,0-.38-.75,5.77,5.77,0,0,0-1.48-.74,7.79,7.79,0,0,1-1.49-.68,1.94,1.94,0,0,1-.65-.66,1.64,1.64,0,0,1-.22-.88,1.69,1.69,0,0,1,.75-1.45,3.48,3.48,0,0,1,2-.53,6,6,0,0,1,2.37.5l-.41.92a5.42,5.42,0,0,0-2-.47,2.35,2.35,0,0,0-1.22.26.79.79,0,0,0-.41.69.81.81,0,0,0,.16.52,1.48,1.48,0,0,0,.49.4,11.18,11.18,0,0,0,1.31.55,5.08,5.08,0,0,1,1.81,1A1.73,1.73,0,0,1,975.33,847.71Z"/><path d="M984.3,842.14a2.78,2.78,0,0,1,2.3,1,5.43,5.43,0,0,1,0,5.72,2.78,2.78,0,0,1-2.29,1,3.23,3.23,0,0,1-1.33-.27,2.49,2.49,0,0,1-1-.83h-.08l-.24,1h-.81V839.12H982v2.58c0,.58,0,1.1-.05,1.56H982A2.68,2.68,0,0,1,984.3,842.14Zm-.16,1a2,2,0,0,0-1.68.66A3.81,3.81,0,0,0,982,846a3.75,3.75,0,0,0,.53,2.26,2,2,0,0,0,1.69.68,1.74,1.74,0,0,0,1.55-.76,3.85,3.85,0,0,0,.52-2.19,3.67,3.67,0,0,0-.52-2.18A1.81,1.81,0,0,0,984.14,843.09Z"/><path d="M988.21,842.26h1.21l1.64,4.27a15.18,15.18,0,0,1,.67,2.12h.06c.06-.24.18-.63.37-1.2s.81-2.29,1.86-5.19h1.21L992,850.79a4.35,4.35,0,0,1-1.11,1.8,2.4,2.4,0,0,1-1.57.53,4.46,4.46,0,0,1-1-.12v-.91a3.63,3.63,0,0,0,.84.08,1.72,1.72,0,0,0,1.67-1.31l.42-1.07Z"/><path d="M1004.54,840.65a3.26,3.26,0,0,0-2.6,1.1,4.4,4.4,0,0,0-1,3,4.55,4.55,0,0,0,.92,3,3.28,3.28,0,0,0,2.62,1.07,9,9,0,0,0,2.39-.38v1a7.33,7.33,0,0,1-2.56.39,4.34,4.34,0,0,1-3.41-1.34,5.51,5.51,0,0,1-1.2-3.81,5.9,5.9,0,0,1,.58-2.7,4.14,4.14,0,0,1,1.66-1.8,5.17,5.17,0,0,1,2.57-.62,6.25,6.25,0,0,1,2.75.57l-.49,1A5.28,5.28,0,0,0,1004.54,840.65Z"/><path d="M1012.08,849.89a3.46,3.46,0,0,1-2.62-1,3.93,3.93,0,0,1-1-2.81,4.37,4.37,0,0,1,.89-2.88,3,3,0,0,1,2.4-1.07,2.83,2.83,0,0,1,2.23.93,3.53,3.53,0,0,1,.82,2.44v.72h-5.16a3,3,0,0,0,.66,2,2.34,2.34,0,0,0,1.78.68,6,6,0,0,0,2.4-.51v1a5.86,5.86,0,0,1-1.14.38A6.85,6.85,0,0,1,1012.08,849.89Zm-.3-6.82a1.85,1.85,0,0,0-1.44.59,2.68,2.68,0,0,0-.63,1.63h3.91a2.47,2.47,0,0,0-.48-1.64A1.68,1.68,0,0,0,1011.78,843.07Z"/><path d="M1021.9,849.75v-4.84a2,2,0,0,0-.42-1.37,1.68,1.68,0,0,0-1.3-.45,2.14,2.14,0,0,0-1.72.63,3.2,3.2,0,0,0-.55,2.1v3.93h-1.14v-7.49h.93l.18,1h.06a2.26,2.26,0,0,1,1-.86,3.23,3.23,0,0,1,1.4-.31,2.81,2.81,0,0,1,2,.66,2.75,2.75,0,0,1,.69,2.09v4.88Z"/><path d="M1027.79,849a3.69,3.69,0,0,0,.58,0l.44-.09v.87a2.55,2.55,0,0,1-.54.14,4,4,0,0,1-.65.06c-1.45,0-2.17-.76-2.17-2.29v-4.46h-1.07v-.54l1.07-.48.48-1.6h.65v1.74h2.18v.88h-2.18v4.41a1.54,1.54,0,0,0,.32,1A1.14,1.14,0,0,0,1027.79,849Z"/><path d="M1033.73,842.12a4,4,0,0,1,.89.09l-.16,1a3.65,3.65,0,0,0-.82-.1,2,2,0,0,0-1.55.74,2.68,2.68,0,0,0-.65,1.83v4h-1.13v-7.49h.94l.13,1.39h0a3.36,3.36,0,0,1,1-1.13A2.34,2.34,0,0,1,1033.73,842.12Z"/><path d="M1039.19,849.89a3.45,3.45,0,0,1-2.62-1,3.93,3.93,0,0,1-1-2.81,4.31,4.31,0,0,1,.89-2.88,3,3,0,0,1,2.39-1.07,2.81,2.81,0,0,1,2.23.93,3.53,3.53,0,0,1,.82,2.44v.72h-5.16a3,3,0,0,0,.67,2,2.31,2.31,0,0,0,1.78.68,6,6,0,0,0,2.39-.51v1a5.86,5.86,0,0,1-1.14.38A6.74,6.74,0,0,1,1039.19,849.89Zm-.31-6.82a1.87,1.87,0,0,0-1.44.59,2.68,2.68,0,0,0-.63,1.63h3.92a2.47,2.47,0,0,0-.48-1.64A1.7,1.7,0,0,0,1038.88,843.07Z"/><path d="M1050.89,843.14H1049v6.61h-1.13v-6.61h-1.34v-.51l1.34-.41v-.42c0-1.84.8-2.76,2.41-2.76a5,5,0,0,1,1.4.24l-.3.91a3.74,3.74,0,0,0-1.12-.21,1.08,1.08,0,0,0-1,.43,2.41,2.41,0,0,0-.31,1.37v.48h1.91Z"/><path d="M1058.73,846a4.1,4.1,0,0,1-.93,2.86,3.22,3.22,0,0,1-2.55,1,3.4,3.4,0,0,1-1.78-.47,3.12,3.12,0,0,1-1.2-1.36,4.57,4.57,0,0,1-.43-2.06,4.12,4.12,0,0,1,.92-2.85,3.25,3.25,0,0,1,2.54-1,3.17,3.17,0,0,1,2.5,1A4.11,4.11,0,0,1,1058.73,846Zm-5.71,0a3.58,3.58,0,0,0,.57,2.19,2.28,2.28,0,0,0,3.38,0,3.51,3.51,0,0,0,.58-2.19,3.44,3.44,0,0,0-.58-2.17,2,2,0,0,0-1.7-.74,2,2,0,0,0-1.69.73A3.57,3.57,0,0,0,1053,846Z"/><path d="M1064.13,842.12a4.09,4.09,0,0,1,.9.09l-.16,1a3.72,3.72,0,0,0-.82-.1,2,2,0,0,0-1.55.74,2.63,2.63,0,0,0-.65,1.83v4h-1.14v-7.49h.94l.13,1.39h.06a3.26,3.26,0,0,1,1-1.13A2.29,2.29,0,0,1,1064.13,842.12Z"/><path d="M787.8,869.75l-3.39-8.86h-.06c.07.71.1,1.54.1,2.51v6.35h-1.08v-10h1.75l3.17,8.24h.05l3.2-8.24h1.73v10h-1.16v-6.44c0-.73,0-1.54.1-2.4h-.06l-3.42,8.84Z"/><path d="M799,869.89a3.45,3.45,0,0,1-2.62-1,3.93,3.93,0,0,1-1-2.81,4.31,4.31,0,0,1,.89-2.88,3,3,0,0,1,2.39-1.07,2.81,2.81,0,0,1,2.23.93,3.53,3.53,0,0,1,.82,2.44v.72H796.6a3,3,0,0,0,.67,2,2.31,2.31,0,0,0,1.78.68,6,6,0,0,0,2.39-.51v1a5.86,5.86,0,0,1-1.14.38A6.74,6.74,0,0,1,799,869.89Zm-.31-6.82a1.87,1.87,0,0,0-1.44.59,2.68,2.68,0,0,0-.63,1.63h3.92a2.47,2.47,0,0,0-.48-1.64A1.7,1.7,0,0,0,798.7,863.07Z"/><path d="M808.8,868.75h-.06a2.68,2.68,0,0,1-2.36,1.14,2.76,2.76,0,0,1-2.28-1,4.41,4.41,0,0,1-.82-2.86,4.47,4.47,0,0,1,.82-2.88,2.78,2.78,0,0,1,2.28-1,2.72,2.72,0,0,1,2.34,1.11h.09l0-.54,0-.52v-3h1.13v10.63H809Zm-2.27.19a2.07,2.07,0,0,0,1.68-.63,3.18,3.18,0,0,0,.53-2V866a3.82,3.82,0,0,0-.53-2.28,2,2,0,0,0-1.7-.68,1.72,1.72,0,0,0-1.52.78,3.81,3.81,0,0,0-.53,2.19,3.72,3.72,0,0,0,.52,2.17A1.78,1.78,0,0,0,806.53,868.94Z"/><path d="M812.18,860.23a.74.74,0,0,1,.19-.57.68.68,0,0,1,.48-.18.67.67,0,0,1,.47.18.77.77,0,0,1,.2.57.74.74,0,0,1-.2.57.64.64,0,0,1-.47.19.65.65,0,0,1-.48-.19A.74.74,0,0,1,812.18,860.23Zm1.23,9.52h-1.13v-7.49h1.13Z"/><path d="M820.42,869.75l-.22-1.06h-.06a3.13,3.13,0,0,1-1.11.95,3.36,3.36,0,0,1-1.39.25,2.51,2.51,0,0,1-1.75-.57,2.12,2.12,0,0,1-.63-1.64q0-2.26,3.63-2.38l1.27,0v-.46a1.9,1.9,0,0,0-.38-1.3,1.53,1.53,0,0,0-1.21-.43,5,5,0,0,0-2.12.58l-.35-.87a5.16,5.16,0,0,1,1.21-.47,5.43,5.43,0,0,1,1.32-.17,2.88,2.88,0,0,1,2,.59,2.51,2.51,0,0,1,.65,1.91v5.11Zm-2.56-.8a2.31,2.31,0,0,0,1.67-.58,2.14,2.14,0,0,0,.6-1.62v-.68l-1.13,0a4.1,4.1,0,0,0-2,.42,1.28,1.28,0,0,0-.59,1.16,1.14,1.14,0,0,0,.37.93A1.52,1.52,0,0,0,817.86,869Z"/><path d="M831.85,869.75l-.23-1.06h0a3.24,3.24,0,0,1-1.12.95,3.36,3.36,0,0,1-1.39.25,2.53,2.53,0,0,1-1.75-.57,2.12,2.12,0,0,1-.63-1.64q0-2.26,3.63-2.38l1.27,0v-.46a1.85,1.85,0,0,0-.38-1.3,1.53,1.53,0,0,0-1.21-.43,5,5,0,0,0-2.12.58l-.35-.87a5.16,5.16,0,0,1,1.21-.47,5.45,5.45,0,0,1,1.33-.17,2.87,2.87,0,0,1,2,.59,2.51,2.51,0,0,1,.65,1.91v5.11Zm-2.57-.8a2.31,2.31,0,0,0,1.67-.58,2.14,2.14,0,0,0,.6-1.62v-.68l-1.13,0a4.09,4.09,0,0,0-1.95.42,1.26,1.26,0,0,0-.6,1.16,1.14,1.14,0,0,0,.37.93A1.52,1.52,0,0,0,829.28,869Z"/><path d="M840.15,869.75v-4.84a2,2,0,0,0-.41-1.37,1.72,1.72,0,0,0-1.31-.45,2.16,2.16,0,0,0-1.72.63,3.2,3.2,0,0,0-.55,2.1v3.93H835v-7.49H836l.18,1h.06a2.29,2.29,0,0,1,1-.86,3.17,3.17,0,0,1,1.4-.31,2.8,2.8,0,0,1,2,.66,2.75,2.75,0,0,1,.69,2.09v4.88Z"/><path d="M848.72,868.75h-.06a2.68,2.68,0,0,1-2.35,1.14,2.78,2.78,0,0,1-2.29-1,4.41,4.41,0,0,1-.82-2.86,4.53,4.53,0,0,1,.82-2.88,2.79,2.79,0,0,1,2.29-1,2.71,2.71,0,0,1,2.33,1.11h.09l-.05-.54,0-.52v-3h1.13v10.63h-.92Zm-2.27.19a2.05,2.05,0,0,0,1.68-.63,3.18,3.18,0,0,0,.53-2V866a3.82,3.82,0,0,0-.53-2.28,2,2,0,0,0-1.69-.68,1.73,1.73,0,0,0-1.53.78,3.81,3.81,0,0,0-.53,2.19,3.72,3.72,0,0,0,.52,2.17A1.78,1.78,0,0,0,846.45,868.94Z"/><path d="M864,864.66a5,5,0,0,1-1.34,3.78,5.27,5.27,0,0,1-3.87,1.31H856v-10h3.06a4.48,4.48,0,0,1,4.91,4.9Zm-1.23,0a4,4,0,0,0-1-2.94,3.88,3.88,0,0,0-2.91-1h-1.69v8h1.41a4.32,4.32,0,0,0,3.13-1A4.08,4.08,0,0,0,862.75,864.7Z"/><path d="M869.21,869.89a3.47,3.47,0,0,1-2.63-1,3.93,3.93,0,0,1-1-2.81,4.32,4.32,0,0,1,.9-2.88,3,3,0,0,1,2.39-1.07,2.83,2.83,0,0,1,2.23.93,3.53,3.53,0,0,1,.82,2.44v.72H866.8a2.94,2.94,0,0,0,.67,2,2.31,2.31,0,0,0,1.78.68,6,6,0,0,0,2.39-.51v1a5.86,5.86,0,0,1-1.14.38A6.82,6.82,0,0,1,869.21,869.89Zm-.31-6.82a1.87,1.87,0,0,0-1.44.59,2.68,2.68,0,0,0-.63,1.63h3.91a2.52,2.52,0,0,0-.47-1.64A1.7,1.7,0,0,0,868.9,863.07Z"/><path d="M875.54,869.75l-2.85-7.49h1.22l1.61,4.44c.37,1,.58,1.72.65,2h.05c0-.24.21-.74.47-1.5s.87-2.42,1.8-5h1.22l-2.85,7.49Z"/><path d="M884.07,869.89a3.46,3.46,0,0,1-2.62-1,3.93,3.93,0,0,1-1-2.81,4.37,4.37,0,0,1,.89-2.88,3,3,0,0,1,2.4-1.07,2.83,2.83,0,0,1,2.23.93,3.53,3.53,0,0,1,.82,2.44v.72h-5.16a3,3,0,0,0,.66,2,2.35,2.35,0,0,0,1.79.68,6,6,0,0,0,2.39-.51v1a5.86,5.86,0,0,1-1.14.38A6.85,6.85,0,0,1,884.07,869.89Zm-.3-6.82a1.87,1.87,0,0,0-1.44.59,2.68,2.68,0,0,0-.63,1.63h3.91a2.47,2.47,0,0,0-.48-1.64A1.68,1.68,0,0,0,883.77,863.07Z"/><path d="M889.9,869.75h-1.14V859.12h1.14Z"/><path d="M898.77,866a4.15,4.15,0,0,1-.92,2.86,3.25,3.25,0,0,1-2.55,1,3.44,3.44,0,0,1-1.79-.47,3.19,3.19,0,0,1-1.2-1.36,4.7,4.7,0,0,1-.42-2.06,4.12,4.12,0,0,1,.91-2.85,3.26,3.26,0,0,1,2.55-1,3.18,3.18,0,0,1,2.5,1A4.15,4.15,0,0,1,898.77,866Zm-5.71,0a3.51,3.51,0,0,0,.58,2.19,2,2,0,0,0,1.69.75,2,2,0,0,0,1.69-.75,3.57,3.57,0,0,0,.58-2.19,3.51,3.51,0,0,0-.58-2.17,2.06,2.06,0,0,0-1.71-.74,2,2,0,0,0-1.68.73A3.5,3.5,0,0,0,893.06,866Z"/><path d="M904.25,869.89a3.24,3.24,0,0,1-1.34-.27,2.53,2.53,0,0,1-1-.83h-.09a9.16,9.16,0,0,1,.09,1.24v3.09h-1.14V862.26h.92l.16,1h.06a2.64,2.64,0,0,1,1-.89,3.18,3.18,0,0,1,1.34-.28,2.77,2.77,0,0,1,2.3,1,5.42,5.42,0,0,1,0,5.73A2.77,2.77,0,0,1,904.25,869.89Zm-.17-6.8a2,2,0,0,0-1.66.63,3.25,3.25,0,0,0-.52,2V866a3.76,3.76,0,0,0,.52,2.26,2,2,0,0,0,1.69.68,1.74,1.74,0,0,0,1.52-.79,3.67,3.67,0,0,0,.55-2.16,3.56,3.56,0,0,0-.55-2.15A1.81,1.81,0,0,0,904.08,863.09Z"/><path d="M918.89,869.75v-4.87a2,2,0,0,0-.38-1.34,1.48,1.48,0,0,0-1.19-.45,1.92,1.92,0,0,0-1.57.61,2.92,2.92,0,0,0-.5,1.87v4.18h-1.14v-4.87a2,2,0,0,0-.38-1.34,1.5,1.5,0,0,0-1.2-.45,1.84,1.84,0,0,0-1.56.64,3.43,3.43,0,0,0-.5,2.09v3.93h-1.13v-7.49h.92l.19,1h0a2.29,2.29,0,0,1,.91-.86,2.81,2.81,0,0,1,1.31-.31A2.22,2.22,0,0,1,915,863.4h.06a2.29,2.29,0,0,1,1-.93,3,3,0,0,1,1.45-.35,2.51,2.51,0,0,1,1.9.66,2.92,2.92,0,0,1,.63,2.09v4.88Z"/><path d="M925.53,869.89a3.45,3.45,0,0,1-2.62-1,3.93,3.93,0,0,1-1-2.81,4.31,4.31,0,0,1,.89-2.88,3,3,0,0,1,2.39-1.07,2.81,2.81,0,0,1,2.23.93,3.53,3.53,0,0,1,.82,2.44v.72h-5.16a3,3,0,0,0,.67,2,2.31,2.31,0,0,0,1.78.68,6,6,0,0,0,2.39-.51v1a5.86,5.86,0,0,1-1.14.38A6.82,6.82,0,0,1,925.53,869.89Zm-.31-6.82a1.87,1.87,0,0,0-1.44.59,2.68,2.68,0,0,0-.63,1.63h3.92a2.47,2.47,0,0,0-.48-1.64A1.7,1.7,0,0,0,925.22,863.07Z"/><path d="M935.34,869.75v-4.84a2,2,0,0,0-.41-1.37,1.72,1.72,0,0,0-1.31-.45,2.16,2.16,0,0,0-1.72.63,3.2,3.2,0,0,0-.55,2.1v3.93h-1.13v-7.49h.92l.18,1h.06a2.29,2.29,0,0,1,1-.86,3.2,3.2,0,0,1,1.4-.31,2.8,2.8,0,0,1,2,.66,2.75,2.75,0,0,1,.69,2.09v4.88Z"/><path d="M941.23,869a3.69,3.69,0,0,0,.58,0l.44-.09v.87a2.55,2.55,0,0,1-.54.14,3.91,3.91,0,0,1-.64.06c-1.45,0-2.18-.76-2.18-2.29v-4.46h-1.07v-.54l1.07-.48.48-1.6H940v1.74h2.17v.88H940v4.41a1.49,1.49,0,0,0,.32,1A1.12,1.12,0,0,0,941.23,869Z"/><path d="M947.56,869.75v-10h1.16v10Z"/><path d="M956.42,869.75v-4.84a2,2,0,0,0-.42-1.37,1.69,1.69,0,0,0-1.3-.45,2.18,2.18,0,0,0-1.73.63,3.27,3.27,0,0,0-.54,2.1v3.93h-1.14v-7.49h.92l.19,1h.05a2.34,2.34,0,0,1,1-.86,3.23,3.23,0,0,1,1.4-.31,2.83,2.83,0,0,1,2,.66,2.75,2.75,0,0,1,.68,2.09v4.88Z"/><path d="M959.79,860.23a.74.74,0,0,1,.19-.57.68.68,0,0,1,.48-.18.67.67,0,0,1,.47.18.77.77,0,0,1,.2.57.74.74,0,0,1-.2.57.64.64,0,0,1-.47.19.65.65,0,0,1-.48-.19A.74.74,0,0,1,959.79,860.23Zm1.23,9.52h-1.14v-7.49H961Z"/><path d="M965.85,869a3.69,3.69,0,0,0,.58,0l.44-.09v.87a2.55,2.55,0,0,1-.54.14,4,4,0,0,1-.65.06c-1.45,0-2.17-.76-2.17-2.29v-4.46h-1.08v-.54l1.08-.48.48-1.6h.65v1.74h2.18v.88h-2.18v4.41a1.54,1.54,0,0,0,.32,1A1.14,1.14,0,0,0,965.85,869Z"/><path d="M968.27,860.23a.78.78,0,0,1,.19-.57.68.68,0,0,1,.48-.18.67.67,0,0,1,.47.18.74.74,0,0,1,.2.57.71.71,0,0,1-.2.57.64.64,0,0,1-.47.19.65.65,0,0,1-.48-.19A.78.78,0,0,1,968.27,860.23Zm1.23,9.52h-1.13v-7.49h1.13Z"/><path d="M976.52,869.75l-.23-1.06h0a3.24,3.24,0,0,1-1.12.95,3.36,3.36,0,0,1-1.39.25,2.51,2.51,0,0,1-1.75-.57,2.12,2.12,0,0,1-.63-1.64q0-2.26,3.63-2.38l1.27,0v-.46a1.9,1.9,0,0,0-.38-1.3,1.53,1.53,0,0,0-1.21-.43,5,5,0,0,0-2.12.58l-.35-.87a5.16,5.16,0,0,1,1.21-.47,5.45,5.45,0,0,1,1.33-.17,2.87,2.87,0,0,1,2,.59,2.51,2.51,0,0,1,.65,1.91v5.11ZM974,869a2.31,2.31,0,0,0,1.67-.58,2.14,2.14,0,0,0,.6-1.62v-.68l-1.13,0a4.09,4.09,0,0,0-2,.42,1.26,1.26,0,0,0-.6,1.16,1.14,1.14,0,0,0,.37.93A1.52,1.52,0,0,0,974,869Z"/><path d="M982.12,869a3.69,3.69,0,0,0,.58,0l.44-.09v.87a2.55,2.55,0,0,1-.54.14,4,4,0,0,1-.65.06c-1.45,0-2.17-.76-2.17-2.29v-4.46H978.7v-.54l1.08-.48.48-1.6h.65v1.74h2.18v.88h-2.18v4.41a1.54,1.54,0,0,0,.32,1A1.14,1.14,0,0,0,982.12,869Z"/><path d="M984.54,860.23a.78.78,0,0,1,.19-.57.68.68,0,0,1,.48-.18.67.67,0,0,1,.47.18.74.74,0,0,1,.2.57.71.71,0,0,1-.2.57.64.64,0,0,1-.47.19.65.65,0,0,1-.48-.19A.78.78,0,0,1,984.54,860.23Zm1.23,9.52h-1.13v-7.49h1.13Z"/><path d="M989.82,869.75,987,862.26h1.21l1.62,4.44c.36,1,.57,1.72.64,2h0a15,15,0,0,1,.48-1.5c.27-.76.86-2.42,1.79-5H994l-2.84,7.49Z"/><path d="M998.36,869.89a3.45,3.45,0,0,1-2.62-1,3.93,3.93,0,0,1-1-2.81,4.31,4.31,0,0,1,.89-2.88,3,3,0,0,1,2.39-1.07,2.81,2.81,0,0,1,2.23.93,3.53,3.53,0,0,1,.82,2.44v.72H996a3,3,0,0,0,.67,2,2.31,2.31,0,0,0,1.78.68,6,6,0,0,0,2.39-.51v1a5.86,5.86,0,0,1-1.14.38A6.82,6.82,0,0,1,998.36,869.89Zm-.31-6.82a1.87,1.87,0,0,0-1.44.59,2.68,2.68,0,0,0-.63,1.63h3.92a2.47,2.47,0,0,0-.48-1.64A1.7,1.7,0,0,0,998.05,863.07Z"/><path d="M1007.88,867.71a1.87,1.87,0,0,1-.78,1.61,3.66,3.66,0,0,1-2.19.57,4.78,4.78,0,0,1-2.32-.47v-1a5.91,5.91,0,0,0,1.16.43,5,5,0,0,0,1.19.15,2.72,2.72,0,0,0,1.37-.28.94.94,0,0,0,.48-.86.93.93,0,0,0-.38-.75,6,6,0,0,0-1.48-.74,7.5,7.5,0,0,1-1.49-.68,2.08,2.08,0,0,1-.66-.66,1.74,1.74,0,0,1-.21-.88,1.71,1.71,0,0,1,.74-1.45,3.51,3.51,0,0,1,2.05-.53,6,6,0,0,1,2.36.5l-.4.92a5.42,5.42,0,0,0-2-.47,2.33,2.33,0,0,0-1.22.26.79.79,0,0,0-.41.69.86.86,0,0,0,.15.52,1.53,1.53,0,0,0,.5.4,10.45,10.45,0,0,0,1.31.55,4.93,4.93,0,0,1,1.8,1A1.74,1.74,0,0,1,1007.88,867.71Z"/><path d="M1012.72,865.92a10.66,10.66,0,0,1,.53-3.39,8.3,8.3,0,0,1,1.53-2.77h1.1a9.67,9.67,0,0,0-1.47,2.9,10.44,10.44,0,0,0-.5,3.24,10.27,10.27,0,0,0,.51,3.21,9.89,9.89,0,0,0,1.45,2.86h-1.09a8.06,8.06,0,0,1-1.53-2.72A10.29,10.29,0,0,1,1012.72,865.92Z"/><path d="M1022.1,869.75l-3.39-8.86h-.06c.07.71.1,1.54.1,2.51v6.35h-1.07v-10h1.75l3.16,8.24h.06l3.19-8.24h1.73v10h-1.16v-6.44c0-.73,0-1.54.1-2.4h-.06l-3.41,8.84Z"/><path d="M1038.29,864.66a5,5,0,0,1-1.34,3.78,5.29,5.29,0,0,1-3.87,1.31h-2.76v-10h3.06a4.48,4.48,0,0,1,4.91,4.9Zm-1.23,0a4,4,0,0,0-1-2.94,3.88,3.88,0,0,0-2.91-1h-1.69v8h1.41a4.32,4.32,0,0,0,3.13-1A4.08,4.08,0,0,0,1037.06,864.7Z"/><path d="M1040.52,869.75v-10h1.16v10Z"/><path d="M1046.63,865.92a10.14,10.14,0,0,1-.53,3.35,8.12,8.12,0,0,1-1.52,2.7h-1.1a9.79,9.79,0,0,0,1.46-2.86,10.55,10.55,0,0,0,.5-3.21,10.74,10.74,0,0,0-.49-3.24,9.7,9.7,0,0,0-1.48-2.9h1.11a8.35,8.35,0,0,1,1.53,2.78A10.64,10.64,0,0,1,1046.63,865.92Z"/></g><g id="marker-mong"><circle class="cls-14" cx="1007" cy="212" r="40" transform="translate(-0.98 4.69) rotate(-0.27)"/><circle class="cls-15" cx="1007" cy="212" r="8.66" transform="translate(-0.98 4.69) rotate(-0.27)"/></g><g id="marker-cau"><circle class="cls-14" cx="446" cy="887" r="40"/><circle class="cls-15" cx="446" cy="887" r="8.66"/></g><g id="legend-2" data-name="legend"><rect class="cls-16" x="922.64" y="245.71" width="164.94" height="44.95"/><text class="cls-17" transform="translate(935.46 277.59)">MNG CI</text></g><g id="cau-text"><rect class="cls-16" x="262.39" y="917.38" width="359.59" height="44.95"/><text class="cls-17" transform="translate(283.22 949.26)">CAU TREO BORDER PASS</text></g></g></g></svg>