<?xml version="1.0" encoding="utf-8"?>
<!-- Generator: Adobe Illustrator 23.0.0, SVG Export Plug-In . SVG Version: 6.00 Build 0)  -->
<svg version="1.1" id="Layer_1" xmlns="http://www.w3.org/2000/svg" xmlns:xlink="http://www.w3.org/1999/xlink" x="0px" y="0px"
	 viewBox="0 0 1466 1080" style="enable-background:new 0 0 1466 1080;" xml:space="preserve">
<style type="text/css">
	.st0{fill:none;stroke:#FC7A00;stroke-width:6;stroke-linejoin:round;}
	.st1{opacity:0.2;fill:#FC7A00;enable-background:new    ;}
	.st2{fill:#FFFFFF;stroke:#FC7A00;stroke-width:4;stroke-linejoin:round;}
	.st3{fill:#FFFFFF;}
	.st4{fill:#A36A2A;}
	.st5{font-family:'OpenSans-ExtraBold';}
	.st6{font-size:20.94px;}
	.st7{fill:#A36A2A;stroke:#A36A2A;stroke-width:20;stroke-miterlimit:10;}
	.st8{font-size:22px;}
	.st9{opacity:0.7;}
	.st10{fill:#FC7A00;}
	.st11{fill:#F90000;}
	.st12{fill:#3B3B3B;}
	.st13{opacity:0.7;fill:#FC7A00;enable-background:new    ;}
	.st14{opacity:0.7;fill:#F90000;enable-background:new    ;}
</style>
<title>Vietnam v3 no text</title>
<g id="mongcai-line">
	<path class="st0" d="M973,233.8l-4.7-4.8l-12.1,2.1h-6.3l-9,5.3V247l-7.1-2.9l-6.3,2.6l-6.8,4.7l-2.1,9.5l-8.4-2.2l-4.7,2.1
		l-3.7,4.2l-2.6-2.1l-8.4,2.1H881v10.5l2.6,5.8l-2.6,6.9l-2.1,13.7v8.4l2.1,3.2l-2.1,3.2c-1.3,0.9-3,0.9-4.2,0
		c-2.1-1.6-11.1-1.6-11.1-1.6l-7.4,2.1c0,0-4.7,6.3-6.3,6.9s-6.8,2.1-6.8,2.1l-5.3-2.6c0,0-4.7-3.2-6.8-2.6s-4.7,0.5-6.8,2.6
		s-2.1,2.6-2.1,2.6l-8.4-1.6c0,0-2.6,2.1-4.7,3.7s-14.2,10-14.2,10l-6.3,5.3v7.4l-4.2,3.2h-18.4l-12.1-6.9l-9.4-3.7l-8-2.1
		l-12.6-1.6h-4.2v7.9l-2.1,4.2l-10,5.3c-0.9,1.5-2.2,2.8-3.7,3.7c-2.6,1.6-9,6.3-9,6.3h-6.3l-2.6,6.3c0,0-5.3-5.3-6.3-2.1
		s0,2.1,0,2.1h-8.4l-3.7,2.1l3.7,24.8l-0.5,10.5l3.2,8.4l0.5,6.3l-1.6,8.4l0.5,3.2l-0.5,9.5l-5.3,2.6l-5.8,5.3l-5.8,2.1v15.3
		l-3.2,6.3v5.8l-4.2,4.2v9l3.2,4.2l-3.2,5.8l-3.2,2.1v32.7l2.1,4.2l-2.1,14.8l-3.7,7.9l-3.1,7.4l-2.1,3.7l-2.1,7.9v9l-4.8,9.5
		l-5.3,6.3l-4.2,4.8l-4.2,5.8v14.8l2.1,5.3l0.5,10.5c0,0-5.3,3.7-2.6,4.2s8.4,4.2,8.4,4.2l2.1,4.2l-2.1,3.7l-3.2,4.2l-0.5,13.7
		l5.8,3.7h4.2l2.1,4.2l-2.6,5.3c-0.3,1.9-0.5,3.9-0.5,5.8c0.1,1.8,0.2,3.5,0.5,5.3h-5.8l-3.2,3.7h-5.8l-4.2-2.6l-3.7,2.6h-26.3
		c0,0-4.2,2.6-4.7,3.7s-2.6,4.7-2.6,4.7l-6.8,1.6l-6.3,3.2l-2.1-2.1l-3.7,2.1l-5.3,8.4"/>
</g>
<g id="marker-mong">
	<circle class="st1" cx="969" cy="231.9" r="40"/>
	<ellipse transform="matrix(1 -4.712373e-03 4.712373e-03 1 -1.0822 4.5689)" class="st2" cx="969" cy="231.9" rx="8.7" ry="8.7"/>
</g>
<g id="marker-cau">
	<circle class="st1" cx="549" cy="735" r="40"/>
	<circle class="st2" cx="549" cy="735" r="8.7"/>
</g>
<rect x="519.2" y="164.9" class="st3" width="115.8" height="38.1"/>
<text transform="matrix(1 0 0 1 527.81 191.69)" class="st4 st5 st6">VIETNAM</text>
<rect x="1092.2" y="69.8" class="st3" width="89.8" height="38.1"/>
<text transform="matrix(1 0 0 1 1102.3199 96.69)" class="st4 st5 st6">CHINA</text>
<g id="legend">
	<rect x="918" y="171" class="st7" width="117" height="17"/>
	<text transform="matrix(1 0 0 1 918.11 185.59)" class="st3 st5 st8">MÓNG CÁI</text>
</g>
<g id="cau-text">
	<rect x="414" y="791" class="st7" width="268" height="17"/>
	<text transform="matrix(1 0 0 1 414.19 808.26)" class="st3 st5 st8">CAU TREO BORDER PASS</text>
</g>
<g id="circles">
	<g class="st9">
		<circle class="st10" cx="970.6" cy="219.9" r="14"/>
		<circle class="st10" cx="954.2" cy="211.1" r="16.3"/>
		<circle class="st10" cx="935" cy="229.2" r="12.8"/>
		<circle class="st10" cx="888.3" cy="243.2" r="5.2"/>
		<circle class="st10" cx="875.4" cy="290.5" r="5.2"/>
		<circle class="st10" cx="771.6" cy="312.6" r="5.2"/>
		<circle class="st10" cx="664.8" cy="294.5" r="4.1"/>
		<circle class="st10" cx="653.7" cy="322" r="17.5"/>
		<circle class="st10" cx="604.1" cy="401.9" r="22.2"/>
		<circle class="st10" cx="661.3" cy="434" r="8.8"/>
		<circle class="st10" cx="665.9" cy="466.7" r="11.7"/>
		<circle class="st10" cx="640.8" cy="493.5" r="11.7"/>
		<circle class="st10" cx="635" cy="508.1" r="8.8"/>
		<circle class="st10" cx="607.6" cy="638.9" r="4.1"/>
		<circle class="st10" cx="525.3" cy="640" r="5.2"/>
		<circle class="st10" cx="616.9" cy="680.3" r="4.7"/>
		<circle class="st10" cx="707.4" cy="770.8" r="4.7"/>
		<circle class="st10" cx="604.7" cy="706" r="4.7"/>
		<circle class="st10" cx="614.6" cy="713" r="14.6"/>
		<circle class="st10" cx="587.2" cy="708.3" r="11.1"/>
		<circle class="st10" cx="563.2" cy="713.6" r="8.8"/>
		<circle class="st10" cx="539.3" cy="729.3" r="8.8"/>
		<circle class="st10" cx="550.4" cy="722.3" r="16.3"/>
		<circle class="st10" cx="614.6" cy="757.9" r="8.2"/>
		<circle class="st10" cx="842.8" cy="312.6" r="4.7"/>
		<circle class="st10" cx="829.9" cy="311.5" r="14.6"/>
		<circle class="st10" cx="773.3" cy="328.4" r="17.5"/>
	</g>
	<g class="st9">
		<circle class="st11" cx="710.3" cy="261.9" r="5.2"/>
		<circle class="st11" cx="638.5" cy="268.9" r="9.3"/>
		<circle class="st11" cx="614.6" cy="756.2" r="8.2"/>
		<circle class="st11" cx="658.3" cy="362.2" r="4.7"/>
		<circle class="st11" cx="828.2" cy="307.4" r="14.6"/>
		<circle class="st11" cx="806" cy="337.7" r="11.7"/>
		<circle class="st11" cx="897" cy="205.8" r="19.8"/>
	</g>
</g>
<g id="legend-2">
	<path class="st12" d="M912.9,529.8l4.5-1.8l-4.5-2v-2.1l7.3,3.6v1.2l-7.3,3.2V529.8z"/>
	<path class="st12" d="M927.5,533.2h-2.9v-5.6c0-0.7,0-1.3,0-1.8c-0.2,0.2-0.4,0.5-0.7,0.7l-1.2,1l-1.5-1.8l3.6-3h2.6L927.5,533.2z"
		/>
	<path class="st12" d="M937.5,528c0.1,1.4-0.2,2.9-0.9,4.1c-0.7,0.9-1.7,1.4-2.9,1.3c-1.1,0.1-2.2-0.4-2.8-1.3c-0.7-1.2-1.1-2.6-1-4
		c-0.1-1.4,0.2-2.9,0.9-4.1c1.3-1.6,3.7-1.8,5.2-0.4c0.2,0.1,0.3,0.3,0.5,0.5C937.2,525.2,937.6,526.6,937.5,528z M932.7,528
		c0,0.8,0,1.6,0.2,2.5c0.2,0.4,0.4,0.7,0.8,0.7s0.6-0.2,0.8-0.7c0.2-0.8,0.3-1.6,0.2-2.4c0-0.8,0-1.6-0.2-2.5
		c-0.2-0.5-0.4-0.7-0.8-0.7s-0.6,0.2-0.8,0.7C932.8,526.3,932.7,527.2,932.7,528z"/>
	<path class="st12" d="M946.1,528c0.1,1.4-0.2,2.9-0.9,4.1c-0.7,0.9-1.7,1.4-2.9,1.3c-1.1,0.1-2.2-0.4-2.8-1.3c-0.7-1.2-1.1-2.6-1-4
		c-0.1-1.4,0.2-2.9,0.9-4.1c1.3-1.6,3.7-1.8,5.2-0.4c0.2,0.1,0.3,0.3,0.5,0.5C945.9,525.2,946.2,526.6,946.1,528z M941.3,528
		c0,0.8,0,1.6,0.2,2.5c0.2,0.4,0.4,0.7,0.8,0.7s0.6-0.2,0.8-0.7c0.2-0.8,0.3-1.6,0.2-2.4c0-0.8,0-1.6-0.2-2.5
		c-0.2-0.5-0.4-0.7-0.8-0.7s-0.6,0.2-0.8,0.7C941.4,526.3,941.3,527.2,941.3,528z"/>
	<path class="st12" d="M954.8,528c0.1,1.4-0.2,2.9-0.9,4.1c-0.7,0.9-1.7,1.4-2.9,1.3c-1.1,0.1-2.2-0.4-2.8-1.3c-0.7-1.2-1.1-2.6-1-4
		c-0.1-1.4,0.2-2.9,0.9-4.1c1.3-1.6,3.7-1.8,5.2-0.4c0.2,0.1,0.3,0.3,0.5,0.5C954.5,525.2,954.8,526.6,954.8,528z M950,528
		c0,0.8,0,1.6,0.2,2.5c0.2,0.4,0.4,0.7,0.8,0.7s0.6-0.2,0.8-0.7c0.2-0.8,0.3-1.6,0.2-2.4c0-0.8,0-1.6-0.2-2.5
		c-0.2-0.5-0.4-0.7-0.8-0.7s-0.6,0.2-0.8,0.7C950,526.3,950,527.2,950,528z"/>
	<path class="st12" d="M912.9,578.8l4.5-1.8l-4.5-2v-2.1l7.3,3.6v1.2l-7.3,3.2V578.8z"/>
	<path class="st12" d="M928.8,582.2h-7.6v-1.9l2.6-2.6c0.7-0.8,1.2-1.3,1.4-1.6c0.2-0.2,0.3-0.5,0.5-0.7c0.1-0.2,0.1-0.4,0.1-0.6
		c0-0.2-0.1-0.5-0.3-0.7c-0.2-0.2-0.5-0.3-0.8-0.2c-0.4,0-0.7,0.1-1,0.3c-0.4,0.2-0.8,0.5-1.2,0.8l-1.6-1.8c0.4-0.4,0.9-0.7,1.4-1
		c0.4-0.2,0.8-0.4,1.2-0.5c0.5-0.1,1-0.2,1.5-0.2c0.6,0,1.3,0.1,1.8,0.4c0.5,0.2,0.9,0.6,1.2,1c0.3,0.4,0.4,1,0.4,1.5
		c0,0.4,0,0.8-0.2,1.1c-0.1,0.4-0.3,0.7-0.5,1c-0.3,0.4-0.5,0.7-0.9,1.1c-0.4,0.4-1.1,1.1-2.3,2.1v0.1h4L928.8,582.2z"/>
	<path class="st12" d="M937.5,577c0.1,1.4-0.2,2.8-0.9,4.1c-1.3,1.6-3.7,1.8-5.3,0.4c-0.2-0.1-0.3-0.3-0.4-0.4c-0.7-1.2-1.1-2.6-1-4
		c-0.1-1.4,0.2-2.9,0.9-4.1c1.3-1.6,3.7-1.8,5.2-0.4c0.2,0.1,0.3,0.3,0.5,0.5C937.2,574.2,937.6,575.6,937.5,577z M932.7,577
		c0,0.8,0,1.6,0.2,2.5c0.2,0.4,0.4,0.7,0.8,0.7s0.6-0.2,0.8-0.7c0.2-0.8,0.3-1.6,0.2-2.4c0-0.8,0-1.6-0.2-2.5
		c-0.2-0.5-0.4-0.7-0.8-0.7s-0.6,0.2-0.8,0.7C932.8,575.3,932.7,576.2,932.7,577z"/>
	<path class="st12" d="M946.1,577c0.1,1.4-0.2,2.8-0.9,4.1c-1.3,1.6-3.7,1.8-5.3,0.4c-0.2-0.1-0.3-0.3-0.4-0.4c-0.7-1.2-1.1-2.6-1-4
		c-0.1-1.4,0.2-2.9,0.9-4.1c1.3-1.6,3.7-1.8,5.2-0.4c0.2,0.1,0.3,0.3,0.5,0.5C945.8,574.2,946.2,575.6,946.1,577z M941.3,577
		c0,0.8,0,1.6,0.2,2.5c0.2,0.4,0.4,0.7,0.8,0.7s0.6-0.2,0.8-0.7c0.2-0.8,0.3-1.6,0.2-2.4c0-0.8,0-1.6-0.2-2.5
		c-0.2-0.5-0.4-0.7-0.8-0.7s-0.6,0.2-0.8,0.7C941.4,575.3,941.3,576.2,941.3,577z"/>
	<path class="st12" d="M946.9,579.4v-2.2h4.1v2.2H946.9z"/>
	<path class="st12" d="M958.1,582.2h-2.9v-5.6c0-0.7,0-1.3,0-1.8c-0.2,0.2-0.4,0.5-0.7,0.7l-1.2,1l-1.5-1.8l3.6-3h2.6L958.1,582.2z"
		/>
	<path class="st12" d="M968.1,577c0.1,1.4-0.2,2.8-0.9,4.1c-0.7,0.9-1.8,1.4-2.9,1.3c-1.1,0.1-2.2-0.4-2.8-1.3c-0.7-1.2-1-2.6-1-4
		c-0.1-1.4,0.2-2.9,0.9-4.1c1.3-1.6,3.7-1.8,5.2-0.4c0.2,0.1,0.3,0.3,0.5,0.5C967.8,574.2,968.2,575.6,968.1,577z M963.3,577
		c0,0.8,0,1.6,0.2,2.5c0.2,0.4,0.4,0.7,0.8,0.7s0.6-0.2,0.8-0.7c0.2-0.8,0.3-1.6,0.2-2.4c0-0.8,0-1.6-0.2-2.5
		c-0.2-0.5-0.4-0.7-0.8-0.7s-0.6,0.2-0.8,0.7C963.3,575.3,963.3,576.2,963.3,577z"/>
	<path class="st12" d="M976.7,577c0.1,1.4-0.2,2.8-0.9,4.1c-0.7,0.9-1.8,1.4-2.9,1.3c-1.1,0.1-2.2-0.4-2.8-1.3c-0.7-1.2-1-2.6-1-4
		c-0.1-1.4,0.2-2.9,0.9-4.1c1.3-1.6,3.7-1.8,5.2-0.4c0.2,0.1,0.3,0.3,0.5,0.5C976.4,574.2,976.8,575.6,976.7,577z M971.9,577
		c0,0.8,0,1.6,0.2,2.5c0.1,0.4,0.4,0.7,0.7,0.7s0.6-0.2,0.8-0.7c0.2-0.8,0.3-1.6,0.2-2.4c0-0.8,0-1.6-0.2-2.5
		c-0.2-0.5-0.4-0.7-0.8-0.7s-0.6,0.2-0.7,0.7C972,575.3,971.9,576.2,971.9,577z"/>
	<path class="st12" d="M985.3,577c0.1,1.4-0.2,2.8-0.9,4.1c-0.7,0.9-1.8,1.4-2.9,1.3c-1.1,0.1-2.2-0.4-2.8-1.3c-0.7-1.2-1-2.6-1-4
		c-0.1-1.4,0.2-2.9,0.9-4.1c1.3-1.6,3.7-1.8,5.2-0.4c0.2,0.1,0.3,0.3,0.5,0.5C985.1,574.2,985.4,575.6,985.3,577z M980.5,577
		c0,0.8,0,1.6,0.2,2.5c0.1,0.4,0.4,0.7,0.7,0.7s0.6-0.2,0.8-0.7c0.2-0.8,0.3-1.6,0.2-2.4c0-0.8,0-1.6-0.2-2.5
		c-0.2-0.5-0.4-0.7-0.8-0.7s-0.6,0.2-0.7,0.7C980.6,575.3,980.5,576.2,980.5,577z"/>
	<path class="st12" d="M912.9,618.6l4.5-1.8l-4.5-2v-2.2l7.3,3.6v1.2l-7.3,3.2V618.6z"/>
	<path class="st12" d="M927.5,622h-2.9v-5.6c0-0.7,0-1.3,0-1.8c-0.2,0.2-0.4,0.5-0.7,0.7l-1.2,1l-1.5-1.8l3.6-2.9h2.6L927.5,622z"/>
	<path class="st12" d="M937.5,616.7c0.1,1.4-0.2,2.9-0.9,4.1c-1.3,1.6-3.7,1.7-5.3,0.4c-0.2-0.1-0.3-0.3-0.4-0.4
		c-0.7-1.2-1.1-2.6-1-4c-0.1-1.4,0.2-2.9,0.9-4.1c1.3-1.6,3.7-1.8,5.2-0.5c0.2,0.1,0.3,0.3,0.5,0.5
		C937.2,613.9,937.6,615.3,937.5,616.7z M932.7,616.7c0,0.8,0,1.7,0.2,2.5c0.2,0.4,0.4,0.7,0.8,0.7s0.6-0.2,0.8-0.7
		c0.3-1.6,0.3-3.3,0-4.9c-0.2-0.5-0.4-0.7-0.8-0.7s-0.6,0.2-0.8,0.7C932.8,615.1,932.7,615.9,932.7,616.7z"/>
	<path class="st12" d="M946.1,616.7c0.1,1.4-0.2,2.9-0.9,4.1c-1.3,1.6-3.7,1.7-5.3,0.4c-0.2-0.1-0.3-0.3-0.4-0.4
		c-0.7-1.2-1.1-2.6-1-4c-0.1-1.4,0.2-2.9,0.9-4.1c1.3-1.6,3.7-1.8,5.2-0.5c0.2,0.1,0.3,0.3,0.5,0.5
		C945.9,613.9,946.2,615.3,946.1,616.7z M941.3,616.7c0,0.8,0,1.7,0.2,2.5c0.2,0.4,0.4,0.7,0.8,0.7s0.6-0.2,0.8-0.7
		c0.3-1.6,0.3-3.3,0-4.9c-0.2-0.5-0.4-0.7-0.8-0.7s-0.6,0.2-0.8,0.7C941.4,615.1,941.3,615.9,941.3,616.7z"/>
	<path class="st12" d="M946.9,619.2v-2.2h4.1v2.2H946.9z"/>
	<path class="st12" d="M959.4,622h-7.6v-1.9l2.6-2.6c0.7-0.8,1.2-1.3,1.4-1.6c0.2-0.2,0.3-0.5,0.5-0.7c0.1-0.2,0.1-0.4,0.1-0.6
		c0-0.2-0.1-0.5-0.3-0.6c-0.2-0.2-0.5-0.3-0.8-0.2c-0.4,0-0.7,0.1-1,0.3c-0.4,0.2-0.8,0.5-1.2,0.8l-1.6-1.8c0.4-0.4,0.9-0.7,1.4-1
		c0.4-0.2,0.8-0.4,1.2-0.5c0.5-0.1,1-0.2,1.5-0.2c0.6,0,1.2,0.1,1.8,0.4c0.5,0.2,0.9,0.6,1.2,1c0.3,0.4,0.5,1,0.5,1.5
		c0,0.4-0.1,0.8-0.2,1.1c-0.1,0.4-0.3,0.7-0.5,1c-0.2,0.4-0.5,0.7-0.9,1.1c-0.3,0.4-1.1,1.1-2.3,2.1v0.1h4L959.4,622z"/>
	<path class="st12" d="M968.1,616.7c0.1,1.4-0.2,2.9-0.9,4.1c-0.7,0.9-1.8,1.4-2.9,1.3c-1.1,0.1-2.2-0.4-2.8-1.3c-0.7-1.2-1-2.6-1-4
		c-0.1-1.4,0.2-2.9,0.9-4.1c1.3-1.6,3.7-1.8,5.2-0.5c0.2,0.1,0.3,0.3,0.5,0.5C967.8,613.9,968.2,615.3,968.1,616.7z M963.3,616.7
		c0,0.8,0,1.7,0.2,2.5c0.2,0.4,0.4,0.7,0.8,0.7s0.6-0.2,0.8-0.7c0.3-1.6,0.3-3.3,0-4.9c-0.2-0.5-0.4-0.7-0.8-0.7s-0.6,0.2-0.8,0.7
		C963.3,615.1,963.3,615.9,963.3,616.7z"/>
	<path class="st12" d="M976.7,616.7c0.1,1.4-0.2,2.9-0.9,4.1c-0.7,0.9-1.8,1.4-2.9,1.3c-1.1,0.1-2.2-0.4-2.8-1.3c-0.7-1.2-1-2.6-1-4
		c-0.1-1.4,0.2-2.9,0.9-4.1c1.3-1.6,3.7-1.8,5.2-0.5c0.2,0.1,0.3,0.3,0.5,0.5C976.5,613.9,976.8,615.3,976.7,616.7z M971.9,616.7
		c0,0.8,0,1.7,0.2,2.5c0.1,0.4,0.4,0.7,0.7,0.7s0.6-0.2,0.8-0.7c0.3-1.6,0.3-3.3,0-4.9c-0.2-0.5-0.4-0.7-0.8-0.7s-0.6,0.2-0.7,0.7
		C972,615.1,971.9,615.9,971.9,616.7z"/>
	<path class="st12" d="M912.9,652.6l4.5-1.8l-4.5-2v-2.1l7.3,3.6v1.2l-7.3,3.2V652.6z"/>
	<path class="st12" d="M928.8,656h-7.6v-1.9l2.6-2.6c0.7-0.8,1.2-1.3,1.4-1.6c0.2-0.2,0.3-0.5,0.5-0.7c0.1-0.2,0.1-0.4,0.1-0.6
		c0-0.2-0.1-0.5-0.3-0.7c-0.2-0.2-0.5-0.3-0.8-0.2c-0.4,0-0.7,0.1-1,0.3c-0.4,0.2-0.8,0.5-1.2,0.8l-1.6-1.8c0.4-0.4,0.9-0.7,1.4-1
		c0.4-0.2,0.8-0.4,1.2-0.5c0.5-0.1,1-0.2,1.5-0.2c0.6,0,1.3,0.1,1.8,0.4c0.5,0.2,0.9,0.6,1.2,1c0.3,0.4,0.4,1,0.4,1.5
		c0,0.4,0,0.8-0.2,1.2c-0.1,0.4-0.3,0.7-0.5,1c-0.3,0.4-0.5,0.7-0.9,1.1c-0.4,0.4-1.1,1.1-2.3,2.1v0.1h4L928.8,656z"/>
	<path class="st12" d="M937.5,650.8c0.1,1.4-0.2,2.9-0.9,4.1c-1.3,1.6-3.7,1.7-5.2,0.4c-0.2-0.1-0.3-0.3-0.5-0.5
		c-0.7-1.2-1.1-2.6-1-4c-0.1-1.4,0.2-2.9,0.9-4.1c1.3-1.6,3.7-1.8,5.2-0.4c0.2,0.1,0.3,0.3,0.5,0.5
		C937.2,647.9,937.6,649.3,937.5,650.8z M932.7,650.8c0,0.8,0,1.6,0.2,2.5c0.2,0.5,0.4,0.7,0.8,0.7s0.6-0.2,0.8-0.7
		c0.2-0.8,0.3-1.6,0.2-2.4c0-0.8,0-1.6-0.2-2.5c-0.2-0.5-0.4-0.7-0.8-0.7s-0.6,0.2-0.8,0.7C932.8,649.1,932.7,649.9,932.7,650.8z"/>
	<path class="st12" d="M938.3,653.2v-2.2h4.1v2.2H938.3z"/>
	<path class="st12" d="M949.5,656h-2.9v-5.6c0-0.7,0-1.3,0-1.9c-0.2,0.2-0.4,0.5-0.7,0.7l-1.2,1l-1.5-1.8l3.6-2.9h2.6L949.5,656z"/>
	<path class="st12" d="M959.4,650.8c0.1,1.4-0.2,2.9-0.9,4.1c-0.7,0.9-1.8,1.4-2.9,1.3c-1.1,0.1-2.2-0.5-2.8-1.4c-0.7-1.2-1-2.6-1-4
		c-0.1-1.4,0.2-2.9,0.9-4.1c1.3-1.6,3.7-1.8,5.2-0.4c0.2,0.1,0.3,0.3,0.5,0.5C959.2,647.9,959.5,649.3,959.4,650.8z M954.7,650.8
		c0,0.8,0,1.6,0.2,2.5c0.2,0.5,0.4,0.7,0.8,0.7s0.6-0.2,0.8-0.7c0.2-0.8,0.3-1.6,0.2-2.4c0-0.8,0-1.6-0.2-2.5
		c-0.2-0.5-0.4-0.7-0.8-0.7s-0.6,0.2-0.8,0.7C954.7,649.1,954.6,649.9,954.7,650.8z"/>
	<path class="st12" d="M968.1,650.8c0.1,1.4-0.2,2.9-0.9,4.1c-0.7,0.9-1.8,1.4-2.9,1.3c-1.1,0.1-2.2-0.5-2.8-1.4c-0.7-1.2-1-2.6-1-4
		c-0.1-1.4,0.2-2.9,0.9-4.1c1.3-1.6,3.7-1.8,5.2-0.4c0.2,0.1,0.3,0.3,0.5,0.5C967.8,647.9,968.2,649.3,968.1,650.8z M963.3,650.8
		c0,0.8,0,1.6,0.2,2.5c0.2,0.5,0.4,0.7,0.8,0.7s0.6-0.2,0.8-0.7c0.2-0.8,0.3-1.6,0.2-2.4c0-0.8,0-1.6-0.2-2.5
		c-0.2-0.5-0.4-0.7-0.8-0.7s-0.6,0.2-0.8,0.7C963.3,649.1,963.3,649.9,963.3,650.8z"/>
	<path class="st12" d="M912.9,682.6l4.5-1.8l-4.5-2v-2.1l7.3,3.6v1.2l-7.3,3.2V682.6z"/>
	<path class="st12" d="M927.5,686h-2.9v-5.6c0-0.7,0-1.3,0-1.9c-0.2,0.2-0.4,0.5-0.7,0.7l-1.2,1l-1.5-1.8l3.6-2.9h2.6L927.5,686z"/>
	<path class="st12" d="M929.7,683.1v-2.2h4.1v2.2H929.7z"/>
	<path class="st12" d="M942.1,686h-7.6v-1.9l2.6-2.6c0.7-0.8,1.2-1.3,1.4-1.6c0.2-0.2,0.3-0.5,0.5-0.7c0.1-0.2,0.1-0.4,0.1-0.6
		c0-0.2-0.1-0.5-0.3-0.7c-0.2-0.2-0.5-0.3-0.8-0.2c-0.4,0-0.7,0.1-1,0.3c-0.4,0.2-0.8,0.5-1.2,0.8l-1.6-1.8c0.4-0.4,0.9-0.7,1.4-1
		c0.4-0.2,0.8-0.4,1.2-0.5c0.5-0.1,1-0.2,1.5-0.2c0.6,0,1.2,0.1,1.8,0.4c0.5,0.2,0.9,0.6,1.2,1c0.3,0.4,0.5,1,0.5,1.5
		c0,0.4-0.1,0.8-0.2,1.2c-0.1,0.4-0.3,0.7-0.5,1c-0.2,0.4-0.5,0.7-0.9,1.1c-0.3,0.4-1.1,1.1-2.3,2.1v0.1h4L942.1,686z"/>
	<path class="st12" d="M950.8,680.7c0.1,1.4-0.2,2.9-0.9,4.1c-1.3,1.6-3.7,1.7-5.2,0.4c-0.2-0.1-0.3-0.3-0.5-0.5c-0.7-1.2-1-2.6-1-4
		c-0.1-1.4,0.2-2.9,0.9-4.1c1.3-1.6,3.7-1.8,5.2-0.5c0.2,0.1,0.3,0.3,0.5,0.5C950.6,677.9,950.9,679.3,950.8,680.7z M946,680.7
		c0,0.8,0,1.6,0.2,2.5c0.2,0.5,0.4,0.7,0.8,0.7s0.6-0.2,0.8-0.7c0.2-0.8,0.3-1.6,0.2-2.4c0-0.8,0-1.6-0.2-2.5
		c-0.2-0.5-0.4-0.7-0.8-0.7s-0.6,0.2-0.8,0.7C946.1,679.1,946,679.9,946,680.7L946,680.7z"/>
	<circle class="st13" cx="879.5" cy="528.2" r="21.9"/>
	<circle class="st13" cx="879.5" cy="577.7" r="17.3"/>
	<circle class="st13" cx="879.5" cy="650.9" r="9.2"/>
	<circle class="st13" cx="879.5" cy="616.9" r="13.8"/>
	<circle class="st13" cx="879.5" cy="683.2" r="5.2"/>
	<circle class="st14" cx="823.6" cy="528.2" r="21.9"/>
	<circle class="st14" cx="823.6" cy="577.7" r="17.3"/>
	<circle class="st14" cx="823.6" cy="650.9" r="9.2"/>
	<circle class="st14" cx="823.6" cy="616.9" r="13.8"/>
	<circle class="st14" cx="823.6" cy="683.2" r="5.2"/>
	<path class="st12" d="M860.5,431.8c0,0.6-0.2,1.2-0.5,1.7c-0.4,0.5-0.9,0.9-1.4,1.2c-0.7,0.3-1.4,0.4-2.2,0.4c-0.6,0-1.2,0-1.8-0.1
		c-0.5-0.1-1-0.3-1.5-0.5V432c0.5,0.3,1.1,0.5,1.7,0.7c0.5,0.1,1.1,0.2,1.6,0.2c0.3,0,0.7-0.1,0.9-0.2c0.2-0.1,0.3-0.3,0.3-0.6
		c0-0.1,0-0.3-0.1-0.4c-0.1-0.1-0.2-0.2-0.4-0.3c-0.2-0.1-0.6-0.3-1.4-0.7c-0.6-0.2-1.1-0.5-1.5-0.9c-0.3-0.3-0.6-0.6-0.8-1
		c-0.2-0.4-0.3-0.9-0.2-1.3c0-0.9,0.4-1.7,1.1-2.3c0.9-0.6,1.9-0.9,2.9-0.8c1.2,0,2.3,0.3,3.3,0.8l-0.9,2.2
		c-0.8-0.4-1.7-0.6-2.5-0.7c-0.3,0-0.6,0-0.8,0.2c-0.2,0.1-0.2,0.3-0.2,0.5c0,0.2,0.1,0.4,0.3,0.5c0.6,0.3,1.1,0.6,1.7,0.9
		c0.7,0.3,1.4,0.7,1.9,1.3C860.3,430.6,860.5,431.2,860.5,431.8z"/>
	<path class="st12" d="M868.4,435h-6.2v-10.5h6.2v2.3H865v1.6h3.2v2.3H865v2h3.4L868.4,435z"/>
	<path class="st12" d="M870.2,435v-10.5h2.9V435H870.2z"/>
	<path class="st12" d="M882.8,435h-8.2v-1.8l4.6-6.5h-4.5v-2.3h8v1.8l-4.5,6.5h4.7L882.8,435z"/>
	<path class="st12" d="M893.3,424.5v6.3c0.1,1.2-0.4,2.3-1.2,3.2c-0.9,0.8-2.1,1.2-3.4,1.1c-1.2,0.1-2.4-0.3-3.3-1.1
		c-0.8-0.8-1.2-2-1.2-3.2v-6.4h2.9v6.2c0,0.6,0.1,1.1,0.4,1.6c0.7,0.7,1.8,0.7,2.5,0c0.3-0.5,0.4-1.1,0.4-1.6v-6.2H893.3z"/>
	<path class="st12" d="M898.3,431.2v3.8h-2.8v-10.5h3.4c2.9,0,4.3,1,4.3,3.1c0,1.2-0.7,2.3-1.8,2.8l3.1,4.6h-3.2l-2.2-3.8
		L898.3,431.2z M898.3,429h0.5c1,0,1.5-0.4,1.5-1.3s-0.5-1.1-1.5-1.1h-0.6V429z"/>
	<path class="st12" d="M911.7,435h-6.2v-10.5h6.2v2.3h-3.4v1.6h3.2v2.3h-3.2v2h3.4V435z"/>
	<path class="st12" d="M920.4,431.8c0,0.6-0.2,1.2-0.5,1.7c-0.4,0.5-0.9,0.9-1.4,1.2c-0.7,0.3-1.4,0.4-2.2,0.4c-0.6,0-1.2,0-1.8-0.1
		c-0.5-0.1-1-0.3-1.5-0.5V432c0.5,0.3,1.1,0.5,1.7,0.7c0.5,0.1,1.1,0.2,1.6,0.2c0.3,0,0.7-0.1,0.9-0.2c0.2-0.1,0.3-0.3,0.3-0.6
		c0-0.1,0-0.3-0.1-0.4c-0.1-0.1-0.2-0.2-0.4-0.3c-0.2-0.1-0.6-0.3-1.4-0.7c-0.6-0.2-1.1-0.5-1.5-0.9c-0.3-0.3-0.6-0.6-0.8-1
		c-0.2-0.4-0.3-0.9-0.2-1.3c0-0.9,0.4-1.7,1.1-2.3c0.9-0.6,1.9-0.9,2.9-0.8c1.2,0,2.3,0.3,3.3,0.8l-0.9,2.2
		c-0.8-0.4-1.7-0.6-2.5-0.7c-0.3,0-0.6,0-0.8,0.2c-0.2,0.1-0.3,0.3-0.2,0.5c0,0.2,0.1,0.4,0.3,0.5c0.6,0.3,1.1,0.6,1.7,0.9
		c0.7,0.3,1.4,0.7,1.9,1.3C920.2,430.6,920.4,431.2,920.4,431.8z"/>
	<path class="st12" d="M935.7,429.7c0.1,1.5-0.4,2.9-1.3,4c-2.2,1.8-5.4,1.8-7.6,0c-0.9-1.1-1.4-2.5-1.3-4c-0.1-1.5,0.4-2.9,1.3-4
		c2.2-1.8,5.4-1.8,7.6,0C935.3,426.9,935.8,428.3,935.7,429.7z M928.5,429.7c0,2,0.7,3,2.1,3c0.6,0,1.2-0.2,1.6-0.7
		c0.7-1.5,0.7-3.2,0-4.6c-0.4-0.5-1-0.8-1.6-0.8C929.2,426.7,928.5,427.7,928.5,429.7L928.5,429.7z"/>
	<path class="st12" d="M940.4,435h-2.8v-10.5h6.2v2.3h-3.4v2h3.2v2.3h-3.2V435z"/>
	<path class="st12" d="M952.2,435h-2.8v-10.5h6.2v2.3h-3.4v2h3.2v2.3h-3.2L952.2,435z"/>
	<path class="st12" d="M960.2,431.2v3.8h-2.8v-10.5h3.4c2.9,0,4.3,1,4.3,3.1c0,1.2-0.7,2.3-1.8,2.8l3.1,4.6h-3.2l-2.2-3.8
		L960.2,431.2z M960.2,429h0.5c1,0,1.5-0.4,1.5-1.3s-0.5-1.1-1.5-1.1h-0.6V429z"/>
	<path class="st12" d="M977.1,429.7c0.1,1.5-0.4,2.9-1.3,4c-2.2,1.8-5.4,1.8-7.6,0c-0.9-1.1-1.4-2.5-1.3-4c-0.1-1.5,0.4-2.9,1.3-4
		c1-1,2.4-1.5,3.8-1.4c1.4-0.1,2.8,0.4,3.8,1.4C976.7,426.9,977.2,428.3,977.1,429.7z M969.9,429.7c0,2,0.7,3,2.1,3
		c0.6,0,1.2-0.2,1.6-0.7c0.7-1.5,0.7-3.2,0-4.6c-0.4-0.5-0.9-0.8-1.6-0.8C970.6,426.7,969.9,427.7,969.9,429.7z"/>
	<path class="st12" d="M986.5,435h-8.2v-1.8l4.5-6.5h-4.5v-2.3h8v1.8l-4.5,6.5h4.7L986.5,435z"/>
	<path class="st12" d="M994.2,435H988v-10.5h6.2v2.3h-3.4v1.6h3.2v2.3h-3.2v2h3.4V435z"/>
	<path class="st12" d="M1006.1,435h-3.7l-3.8-7.4h-0.1c0.1,1.2,0.1,2,0.1,2.7v4.7h-2.5v-10.5h3.7l3.8,7.3l0,0
		c-0.1-1.1-0.1-1.9-0.1-2.6v-4.8h2.5L1006.1,435z"/>
	<path class="st12" d="M1019.8,427.8c0.1,1-0.3,2-1,2.7c-0.8,0.7-1.9,1.1-3,1h-0.8v3.4h-2.8v-10.5h3.6c1.1-0.1,2.1,0.2,3,0.9
		C1019.6,426,1019.9,426.9,1019.8,427.8z M1015,429.2h0.5c0.4,0,0.7-0.1,1-0.4c0.3-0.3,0.4-0.6,0.4-1c0-0.7-0.4-1.1-1.2-1.1h-0.8
		L1015,429.2z"/>
	<path class="st12" d="M1028,435l-0.5-2h-3.5l-0.5,2h-3.1l3.4-10.5h3.8l3.5,10.5H1028z M1026.9,430.7l-0.4-1.7
		c-0.1-0.4-0.2-0.9-0.4-1.5s-0.2-1-0.3-1.3c0,0.2-0.1,0.6-0.3,1.2s-0.4,1.7-0.8,3.3H1026.9z"/>
	<path class="st12" d="M1042.2,435h-3.7l-3.8-7.4h-0.1c0.1,1.2,0.1,2,0.1,2.7v4.7h-2.5v-10.5h3.7l3.8,7.3l0,0
		c-0.1-1.1-0.1-1.9-0.1-2.6v-4.8h2.5L1042.2,435z"/>
	<path class="st12" d="M1048.7,428.9h4.5v5.7c-1.3,0.4-2.7,0.6-4.1,0.6c-1.4,0.1-2.8-0.4-3.8-1.4c-0.9-1.1-1.4-2.5-1.3-4
		c-0.1-1.5,0.4-2.9,1.4-4c1.1-1,2.6-1.5,4.1-1.4c0.6,0,1.3,0.1,1.9,0.2c0.5,0.1,1,0.3,1.5,0.5l-0.9,2.2c-0.8-0.4-1.6-0.6-2.5-0.6
		c-0.7,0-1.4,0.3-1.9,0.8c-0.5,0.7-0.7,1.5-0.7,2.3c-0.1,0.8,0.2,1.6,0.6,2.2c0.4,0.5,1.1,0.8,1.8,0.8c0.4,0,0.8,0,1.2-0.1V431h-1.9
		V428.9z"/>
	<path class="st12" d="M1065.2,429.7c0.1,1.5-0.4,2.9-1.3,4c-2.2,1.8-5.4,1.8-7.6,0c-1.7-2.4-1.7-5.6,0-8c1-1,2.4-1.5,3.8-1.4
		c1.4-0.1,2.8,0.4,3.8,1.4C1064.9,426.8,1065.3,428.3,1065.2,429.7z M1058,429.7c0,2,0.7,3,2.1,3c0.6,0,1.2-0.2,1.6-0.7
		c0.7-1.5,0.7-3.2,0-4.6c-0.4-0.5-1-0.8-1.6-0.8C1058.7,426.7,1058,427.7,1058,429.7L1058,429.7z"/>
	<path class="st12" d="M1067.1,435v-10.5h2.9v8.2h4v2.3H1067.1z"/>
	<path class="st12" d="M1075.7,435v-10.5h2.9V435H1075.7z"/>
	<path class="st12" d="M1090.8,435h-3.7l-3.8-7.4h-0.1c0.1,1.2,0.1,2,0.1,2.7v4.7h-2.5v-10.5h3.7l3.8,7.3h0.1
		c-0.1-1.1-0.1-1.9-0.1-2.6v-4.8h2.5V435z"/>
	<path class="st12" d="M1100,431.8c0,0.6-0.2,1.2-0.5,1.7c-0.4,0.5-0.9,0.9-1.4,1.2c-0.7,0.3-1.4,0.4-2.2,0.4c-0.6,0-1.2,0-1.8-0.1
		c-0.5-0.1-1-0.3-1.5-0.5V432c0.5,0.3,1.1,0.5,1.7,0.7c0.5,0.1,1.1,0.2,1.6,0.2c0.3,0,0.7-0.1,0.9-0.2c0.2-0.1,0.3-0.3,0.3-0.6
		c0-0.1,0-0.3-0.1-0.4c-0.1-0.1-0.2-0.2-0.4-0.3c-0.2-0.1-0.7-0.3-1.4-0.7c-0.6-0.2-1.1-0.5-1.6-0.9c-0.3-0.3-0.6-0.6-0.8-1
		c-0.2-0.4-0.3-0.9-0.2-1.3c0-0.9,0.4-1.7,1.1-2.3c0.9-0.6,1.9-0.9,2.9-0.8c1.2,0,2.3,0.3,3.3,0.8l-0.9,2.2
		c-0.8-0.4-1.7-0.6-2.6-0.7c-0.3,0-0.6,0-0.8,0.2c-0.2,0.1-0.2,0.3-0.2,0.5c0,0.2,0.1,0.4,0.3,0.5c0.6,0.3,1.1,0.6,1.7,0.9
		c0.7,0.3,1.4,0.7,1.9,1.3C1099.8,430.6,1100,431.2,1100,431.8z"/>
	<path class="st12" d="M1115.3,429.7c0.1,1.5-0.4,2.9-1.3,4c-2.2,1.8-5.4,1.8-7.6,0c-1.7-2.4-1.7-5.6,0-8c1-1,2.4-1.5,3.8-1.4
		c1.4-0.1,2.8,0.4,3.8,1.4C1114.9,426.8,1115.4,428.3,1115.3,429.7z M1108,429.7c0,2,0.7,3,2.1,3c0.6,0,1.2-0.2,1.6-0.7
		c0.4-0.7,0.6-1.5,0.5-2.3c0.1-0.8-0.1-1.6-0.5-2.3c-0.4-0.5-1-0.8-1.6-0.8C1108.8,426.7,1108,427.7,1108,429.7L1108,429.7z"/>
	<path class="st12" d="M1120,431.2v3.8h-2.8v-10.5h3.4c2.9,0,4.3,1,4.3,3.1c0,1.2-0.7,2.3-1.8,2.8l3.1,4.6h-3.2l-2.2-3.8L1120,431.2
		z M1120,429h0.5c1,0,1.5-0.4,1.5-1.3s-0.5-1.1-1.5-1.1h-0.6V429z"/>
	<path class="st12" d="M1137.8,431.8c0,0.6-0.2,1.2-0.5,1.7c-0.4,0.5-0.9,0.9-1.4,1.2c-0.7,0.3-1.4,0.4-2.2,0.4
		c-0.6,0-1.2-0.1-1.7-0.2c-0.5-0.1-1-0.3-1.5-0.5V432c0.5,0.3,1.1,0.5,1.7,0.7c0.5,0.1,1.1,0.2,1.6,0.2c0.3,0,0.7-0.1,0.9-0.2
		c0.2-0.1,0.3-0.3,0.3-0.6c0-0.1,0-0.3-0.1-0.4c-0.1-0.1-0.2-0.2-0.4-0.3c-0.2-0.1-0.6-0.3-1.4-0.7c-0.6-0.2-1.1-0.5-1.6-0.9
		c-0.3-0.3-0.6-0.6-0.8-1c-0.2-0.4-0.3-0.9-0.2-1.3c0-0.9,0.4-1.7,1.1-2.3c0.9-0.6,1.9-0.9,2.9-0.8c1.2,0,2.3,0.3,3.3,0.8l-0.9,2.2
		c-0.8-0.4-1.7-0.6-2.5-0.7c-0.3,0-0.6,0-0.8,0.2c-0.2,0.1-0.2,0.3-0.2,0.5c0,0.2,0.1,0.4,0.3,0.5c0.6,0.3,1.1,0.6,1.7,0.9
		c0.7,0.3,1.4,0.7,1.9,1.3C1137.7,430.6,1137.9,431.2,1137.8,431.8z"/>
	<path class="st12" d="M1144.2,426.7c-0.6,0-1.2,0.3-1.6,0.8c-0.4,0.7-0.6,1.5-0.6,2.3c0,2,0.8,3,2.3,3c0.5,0,0.9-0.1,1.3-0.2
		c0.4-0.1,0.9-0.3,1.3-0.5v2.4c-0.9,0.4-2,0.6-3,0.6c-1.4,0.1-2.7-0.4-3.7-1.4c-0.9-1.1-1.4-2.6-1.3-4c0-1,0.2-2,0.6-2.9
		c0.4-0.8,1-1.5,1.8-1.9c0.8-0.5,1.8-0.7,2.7-0.7c1.1,0,2.2,0.3,3.3,0.7l-0.9,2.2c-0.4-0.2-0.8-0.3-1.2-0.5
		C1145,426.7,1144.6,426.7,1144.2,426.7z"/>
	<path class="st12" d="M1155.5,435l-0.5-2h-3.4l-0.5,2h-3.1l3.4-10.5h3.8l3.5,10.5H1155.5z M1154.4,430.7l-0.4-1.7
		c-0.1-0.4-0.2-0.9-0.4-1.5s-0.2-1-0.3-1.3c0,0.2-0.1,0.6-0.2,1.2s-0.4,1.7-0.8,3.3H1154.4z"/>
	<path class="st12" d="M1159.7,435v-10.5h2.8v8.2h4v2.3H1159.7z"/>
	<path class="st12" d="M1174.5,435h-6.2v-10.5h6.2v2.3h-3.4v1.6h3.2v2.3h-3.2v2h3.4V435z"/>
	<path class="st12" d="M1183.2,431.8c0,0.6-0.2,1.2-0.5,1.7c-0.4,0.5-0.9,0.9-1.4,1.2c-0.7,0.3-1.4,0.4-2.2,0.4
		c-0.6,0-1.2,0-1.8-0.1c-0.5-0.1-1-0.3-1.5-0.5V432c0.5,0.3,1.1,0.5,1.7,0.7c0.5,0.1,1.1,0.2,1.6,0.2c0.3,0,0.7-0.1,0.9-0.2
		c0.2-0.1,0.3-0.3,0.3-0.6c0-0.1,0-0.3-0.1-0.4c-0.1-0.1-0.2-0.2-0.4-0.3c-0.2-0.1-0.6-0.3-1.4-0.7c-0.6-0.2-1.1-0.5-1.5-0.9
		c-0.3-0.3-0.6-0.6-0.8-1c-0.2-0.4-0.3-0.9-0.2-1.3c0-0.9,0.4-1.7,1.1-2.3c0.9-0.6,1.9-0.9,2.9-0.8c1.2,0,2.3,0.3,3.3,0.8l-0.9,2.2
		c-0.8-0.4-1.7-0.6-2.5-0.7c-0.3,0-0.6,0-0.8,0.2c-0.2,0.1-0.3,0.3-0.2,0.5c0,0.2,0.1,0.4,0.3,0.5c0.6,0.3,1.1,0.6,1.7,0.9
		c0.7,0.3,1.4,0.7,1.9,1.3C1183.1,430.6,1183.3,431.2,1183.2,431.8z"/>
	<path class="st12" d="M861.3,474.1c0,0.6-0.2,1.2-0.5,1.7c-0.4,0.5-0.8,0.9-1.4,1.2c-0.7,0.3-1.4,0.4-2.2,0.4c-0.6,0-1.2,0-1.8-0.1
		c-0.5-0.1-1-0.3-1.5-0.5v-2.5c0.5,0.3,1.1,0.5,1.7,0.6c0.5,0.2,1.1,0.2,1.6,0.2c0.3,0,0.6-0.1,0.9-0.2c0.2-0.1,0.3-0.3,0.3-0.6
		c0-0.1,0-0.3-0.1-0.4c-0.1-0.1-0.2-0.2-0.4-0.3c-0.5-0.3-0.9-0.5-1.4-0.7c-0.6-0.2-1.1-0.6-1.5-0.9c-0.3-0.3-0.6-0.6-0.8-1
		c-0.2-0.4-0.3-0.9-0.2-1.4c0-0.9,0.4-1.7,1.1-2.3c0.8-0.6,1.9-0.9,2.9-0.8c1.2,0,2.3,0.3,3.3,0.8l-0.9,2.2
		c-0.8-0.4-1.7-0.6-2.5-0.7c-0.3,0-0.6,0-0.8,0.2c-0.2,0.1-0.3,0.3-0.2,0.5c0,0.2,0.1,0.4,0.3,0.6c0.6,0.3,1.1,0.6,1.7,0.9
		c0.7,0.3,1.4,0.7,1.9,1.3C861.1,472.8,861.3,473.4,861.3,474.1z"/>
	<path class="st12" d="M869.1,477.3h-6.2v-10.5h6.2v2.3h-3.4v1.6h3.2v2.3h-3.2v2h3.4V477.3z"/>
	<path class="st12" d="M871,477.3v-10.5h2.9v10.5H871z"/>
	<path class="st12" d="M883.6,477.3h-8.2v-1.8l4.6-6.5h-4.5v-2.3h8v1.7l-4.6,6.5h4.7V477.3z"/>
	<path class="st12" d="M894,466.8v6.3c0.1,1.2-0.3,2.3-1.2,3.2c-2,1.5-4.7,1.5-6.7,0c-0.8-0.8-1.2-2-1.2-3.2v-6.4h2.9v6.2
		c-0.1,0.6,0.1,1.1,0.4,1.6c0.7,0.7,1.8,0.7,2.5,0c0.3-0.5,0.5-1.1,0.4-1.6v-6.1L894,466.8z"/>
	<path class="st12" d="M899.1,473.5v3.8h-2.8v-10.5h3.5c2.9,0,4.3,1,4.3,3.1c0,1.2-0.7,2.3-1.8,2.8l3.1,4.6H902l-2.2-3.8
		L899.1,473.5z M899.1,471.3h0.5c1,0,1.5-0.4,1.5-1.3c0-0.7-0.5-1.1-1.5-1.1h-0.6V471.3z"/>
	<path class="st12" d="M912.5,477.3h-6.2v-10.5h6.2v2.3h-3.4v1.6h3.2v2.3h-3.2v2h3.4V477.3z"/>
	<path class="st12" d="M921.2,474.1c0,0.6-0.2,1.2-0.5,1.7c-0.4,0.5-0.9,0.9-1.4,1.2c-0.7,0.3-1.4,0.4-2.2,0.4c-0.6,0-1.2,0-1.8-0.1
		c-0.5-0.1-1-0.3-1.5-0.5v-2.5c0.5,0.3,1.1,0.5,1.7,0.6c0.5,0.2,1.1,0.2,1.6,0.2c0.3,0,0.6-0.1,0.9-0.2c0.2-0.1,0.3-0.3,0.3-0.6
		c0-0.1,0-0.3-0.1-0.4c-0.1-0.1-0.2-0.2-0.4-0.3c-0.5-0.3-0.9-0.5-1.4-0.7c-0.6-0.2-1.1-0.5-1.5-0.9c-0.3-0.3-0.6-0.6-0.8-1
		c-0.2-0.4-0.3-0.9-0.2-1.4c0-0.9,0.4-1.7,1.1-2.3c0.8-0.6,1.9-0.9,2.9-0.8c1.2,0,2.3,0.3,3.3,0.8l-0.9,2.2
		c-0.8-0.4-1.7-0.6-2.5-0.7c-0.3,0-0.6,0-0.8,0.2c-0.2,0.1-0.3,0.3-0.2,0.5c0,0.2,0.1,0.4,0.3,0.6c0.6,0.3,1.1,0.6,1.7,0.9
		c0.7,0.3,1.4,0.7,1.9,1.3C921,472.8,921.2,473.5,921.2,474.1z"/>
	<path class="st12" d="M936.5,472c0.1,1.5-0.4,2.9-1.3,4c-2.2,1.8-5.4,1.8-7.6,0c-0.9-1.1-1.4-2.6-1.3-4c-0.1-1.5,0.4-2.9,1.3-4
		c2.2-1.8,5.4-1.8,7.6,0C936.1,469.1,936.6,470.5,936.5,472z M929.2,472c0,2,0.7,3,2.1,3c0.6,0,1.2-0.2,1.6-0.7
		c0.4-0.7,0.6-1.5,0.5-2.3c0.1-0.8-0.1-1.6-0.5-2.3c-0.4-0.5-1-0.8-1.6-0.8C930,468.9,929.2,470,929.2,472z"/>
	<path class="st12" d="M941.2,477.3h-2.8v-10.5h6.2v2.3h-3.4v2h3.2v2.3h-3.2L941.2,477.3z"/>
	<path class="st12" d="M950.1,477.3v-10.5h2.9v8.2h4v2.3L950.1,477.3z"/>
	<path class="st12" d="M958.7,477.3v-10.5h2.8v10.5H958.7z"/>
	<path class="st12" d="M969.7,466.8h3.2l-3.5,10.5h-3.3l-3.4-10.5h3.2l1.4,5.3c0.2,0.8,0.4,1.6,0.5,2.5c0-0.3,0.1-0.8,0.2-1.3
		s0.2-0.9,0.3-1.2L969.7,466.8z"/>
	<path class="st12" d="M980.3,477.3h-6.2v-10.5h6.2v2.3h-3.4v1.6h3.2v2.3h-3.1v2h3.4L980.3,477.3z"/>
	<path class="st12" d="M993.6,470.1c0.1,1-0.3,2-1,2.7c-0.8,0.7-1.9,1.1-3,1h-0.8v3.5H986v-10.5h3.6c1.1-0.1,2.1,0.2,3,0.9
		C993.3,468.3,993.7,469.2,993.6,470.1z M988.8,471.5h0.5c0.4,0,0.7-0.1,1-0.4c0.3-0.3,0.4-0.6,0.4-1c0-0.7-0.4-1.1-1.2-1.1h-0.7
		L988.8,471.5z"/>
	<path class="st12" d="M1001.7,477.3l-0.5-2h-3.4l-0.5,2h-3.1l3.4-10.6h3.8l3.5,10.6H1001.7z M1000.6,473l-0.5-1.7
		c-0.1-0.4-0.2-0.9-0.4-1.5s-0.2-1-0.3-1.3c0,0.2-0.1,0.6-0.3,1.2s-0.4,1.7-0.8,3.3L1000.6,473z"/>
	<path class="st12" d="M1016,477.3h-3.7l-3.8-7.4h-0.1c0.1,1.2,0.1,2.1,0.1,2.7v4.7h-2.5v-10.5h3.7l3.8,7.3l0,0
		c-0.1-1.1-0.1-1.9-0.1-2.5v-4.8h2.6V477.3z"/>
	<path class="st12" d="M1022.5,471.1h4.5v5.7c-1.3,0.4-2.7,0.6-4.1,0.6c-1.4,0.1-2.8-0.4-3.8-1.4c-0.9-1.1-1.4-2.5-1.3-4
		c-0.1-1.5,0.4-2.9,1.5-4c1.1-1,2.6-1.5,4.1-1.4c0.6,0,1.3,0.1,1.9,0.2c0.5,0.1,1,0.3,1.5,0.5l-0.9,2.2c-0.8-0.4-1.6-0.6-2.5-0.6
		c-0.7,0-1.4,0.3-1.9,0.8c-0.5,0.7-0.7,1.5-0.7,2.3c-0.1,0.8,0.2,1.6,0.6,2.2c0.4,0.5,1.1,0.8,1.8,0.8c0.4,0,0.8,0,1.2-0.1v-1.6
		h-1.9L1022.5,471.1z"/>
	<path class="st12" d="M1039,472c0.1,1.5-0.4,2.9-1.3,4c-2.2,1.8-5.4,1.8-7.6,0c-0.9-1.1-1.4-2.6-1.3-4c-0.1-1.5,0.4-2.9,1.3-4
		c2.2-1.8,5.4-1.8,7.6,0C1038.6,469.1,1039.1,470.5,1039,472z M1031.8,472c0,2,0.7,3,2.1,3c0.6,0,1.2-0.2,1.6-0.7
		c0.4-0.7,0.6-1.5,0.5-2.3c0.1-0.8-0.1-1.6-0.5-2.3c-0.4-0.5-1-0.8-1.6-0.8C1032.5,468.9,1031.8,470,1031.8,472L1031.8,472z"/>
	<path class="st12" d="M1040.9,477.3v-10.5h2.8v8.2h4v2.3L1040.9,477.3z"/>
	<path class="st12" d="M1049.5,477.3v-10.5h2.9v10.5H1049.5z"/>
	<path class="st12" d="M1064.6,477.3h-3.7l-3.8-7.4h0c0.1,1.2,0.1,2.1,0.1,2.7v4.7h-2.5v-10.5h3.7l3.8,7.3l0,0
		c-0.1-1.1-0.1-1.9-0.1-2.5v-4.8h2.5L1064.6,477.3z"/>
	<path class="st12" d="M1073.8,474.1c0,0.6-0.2,1.2-0.5,1.7c-0.3,0.5-0.8,0.9-1.4,1.2c-0.7,0.3-1.4,0.4-2.2,0.4
		c-0.6,0-1.2,0-1.8-0.1c-0.5-0.1-1-0.3-1.5-0.5v-2.5c0.5,0.3,1.1,0.5,1.7,0.6c0.5,0.2,1.1,0.2,1.6,0.2c0.3,0,0.6-0.1,0.9-0.2
		c0.2-0.1,0.3-0.3,0.3-0.6c0-0.1,0-0.3-0.1-0.4c-0.1-0.1-0.2-0.2-0.4-0.3c-0.2-0.1-0.6-0.3-1.4-0.7c-0.6-0.2-1.1-0.5-1.5-0.9
		c-0.3-0.3-0.6-0.6-0.8-1c-0.2-0.4-0.3-0.9-0.2-1.4c-0.1-0.9,0.3-1.7,1-2.3c0.9-0.6,1.9-0.9,2.9-0.8c1.2,0,2.3,0.3,3.3,0.8l-0.9,2.2
		c-0.8-0.4-1.7-0.6-2.6-0.7c-0.3,0-0.6,0-0.8,0.2c-0.2,0.1-0.3,0.3-0.2,0.5c0,0.2,0.1,0.4,0.3,0.6c0.6,0.3,1.1,0.6,1.7,0.9
		c0.7,0.3,1.4,0.7,1.9,1.3C1073.6,472.8,1073.8,473.5,1073.8,474.1z"/>
	<circle class="st14" cx="822.8" cy="429.4" r="14.2"/>
	<circle class="st13" cx="822.8" cy="471.7" r="14.2"/>
	<path d="M812.9,708.5c-0.8,0-1.5,0.3-2,0.8c-0.5,0.7-0.8,1.5-0.7,2.3c-0.1,0.8,0.2,1.7,0.7,2.3c0.5,0.6,1.2,0.9,2,0.8
		c0.6,0,1.2-0.1,1.8-0.3v0.8c-0.6,0.2-1.3,0.3-2,0.3c-1,0.1-1.9-0.3-2.6-1c-0.7-0.8-1-1.9-0.9-2.9c0-0.7,0.1-1.4,0.5-2.1
		c0.3-0.6,0.7-1.1,1.3-1.4c0.6-0.3,1.3-0.5,2-0.5c0.7,0,1.4,0.1,2.1,0.4l-0.4,0.8C814.1,708.7,813.5,708.5,812.9,708.5z"/>
	<path d="M821.3,712.6c0,0.8-0.2,1.6-0.7,2.2c-0.5,0.6-1.2,0.8-2,0.8c-0.5,0-1-0.1-1.4-0.4c-0.4-0.2-0.7-0.6-0.9-1
		c-0.2-0.5-0.3-1-0.3-1.6c0-0.8,0.2-1.6,0.7-2.2c0.5-0.5,1.2-0.8,2-0.8c0.7,0,1.4,0.3,1.9,0.8C821.1,711.1,821.3,711.8,821.3,712.6z
		 M816.9,712.6c0,0.6,0.1,1.2,0.4,1.7c0.7,0.7,1.8,0.8,2.5,0.1c0,0,0.1-0.1,0.1-0.1c0.3-0.5,0.5-1.1,0.4-1.7c0-0.6-0.1-1.2-0.4-1.7
		c-0.3-0.4-0.8-0.6-1.3-0.6c-0.5,0-1,0.2-1.3,0.6C817,711.4,816.8,712,816.9,712.6z"/>
	<path d="M830.1,715.5v-3.8c0-0.4-0.1-0.7-0.3-1c-0.2-0.2-0.6-0.4-0.9-0.3c-0.5,0-0.9,0.1-1.2,0.5c-0.3,0.4-0.4,0.9-0.4,1.4v3.2
		h-0.9v-3.8c0-0.4-0.1-0.7-0.3-1c-0.2-0.2-0.6-0.4-0.9-0.3c-0.5,0-0.9,0.1-1.2,0.5c-0.3,0.5-0.4,1-0.4,1.6v3h-0.9v-5.8h0.7l0.1,0.8
		l0,0c0.2-0.3,0.4-0.5,0.7-0.7c0.3-0.2,0.7-0.2,1-0.2c0.7-0.1,1.5,0.3,1.8,1l0,0c0.2-0.3,0.4-0.5,0.7-0.7c0.3-0.2,0.7-0.3,1.1-0.3
		c0.5,0,1.1,0.1,1.5,0.5c0.4,0.5,0.5,1,0.5,1.6v3.8L830.1,715.5z"/>
	<path d="M835.5,715.6c-0.3,0-0.7-0.1-1-0.2c-0.3-0.1-0.6-0.4-0.8-0.6h-0.1c0,0.3,0.1,0.7,0.1,1v2.4h-0.9v-8.3h0.7l0.1,0.8h0
		c0.2-0.3,0.5-0.5,0.8-0.7c0.3-0.1,0.7-0.2,1-0.2c0.7,0,1.3,0.3,1.8,0.8c0.8,1.3,0.8,3.1,0,4.4C836.8,715.4,836.2,715.6,835.5,715.6
		z M835.4,710.4c-0.5,0-1,0.1-1.3,0.5c-0.3,0.5-0.4,1-0.4,1.5v0.2c-0.1,0.6,0.1,1.2,0.4,1.7c0.3,0.4,0.8,0.6,1.3,0.5
		c0.5,0,0.9-0.2,1.2-0.6c0.3-0.5,0.5-1.1,0.4-1.7c0-0.6-0.1-1.2-0.4-1.7C836.3,710.6,835.8,710.4,835.4,710.4L835.4,710.4z"/>
	<path d="M839.3,708.2c0-0.2,0-0.3,0.2-0.4c0.1-0.1,0.2-0.1,0.4-0.1c0.1,0,0.3,0,0.4,0.1c0.2,0.3,0.2,0.6,0,0.9
		c-0.1,0.1-0.2,0.1-0.4,0.1c-0.1,0-0.3,0-0.4-0.1C839.4,708.5,839.3,708.3,839.3,708.2z M840.3,715.5h-0.9v-5.8h0.9V715.5z"/>
	<path d="M843,715.5h-0.9v-8.2h0.9V715.5z"/>
	<path d="M847.3,715.6c-0.7,0-1.5-0.2-2-0.8c-0.5-0.6-0.8-1.4-0.7-2.2c0-0.8,0.2-1.6,0.7-2.2c0.5-0.5,1.1-0.8,1.8-0.8
		c0.7,0,1.3,0.2,1.7,0.7c0.4,0.5,0.7,1.2,0.6,1.9v0.5h-4c0,0.6,0.2,1.1,0.5,1.5c0.4,0.4,0.9,0.6,1.4,0.5c0.6,0,1.3-0.1,1.8-0.4v0.8
		c-0.3,0.1-0.6,0.2-0.9,0.3C847.9,715.6,847.6,715.6,847.3,715.6z M847,710.4c-0.4,0-0.8,0.1-1.1,0.5c-0.3,0.4-0.5,0.8-0.5,1.2h3
		c0-0.5-0.1-0.9-0.4-1.3C847.8,710.5,847.4,710.3,847,710.4L847,710.4z"/>
	<path d="M854.8,714.7L854.8,714.7c-0.4,0.6-1.1,0.9-1.8,0.9c-0.7,0-1.3-0.2-1.8-0.8c-0.5-0.6-0.7-1.4-0.6-2.2
		c0-0.8,0.2-1.6,0.6-2.2c0.4-0.5,1.1-0.8,1.8-0.8c0.7,0,1.4,0.3,1.8,0.8h0.1v-0.4v-0.4v-2.3h0.9v8.2H855L854.8,714.7z M853.1,714.9
		c0.5,0,1-0.1,1.3-0.5c0.3-0.5,0.5-1,0.4-1.6v-0.2c0.1-0.6-0.1-1.2-0.4-1.8c-0.3-0.4-0.8-0.6-1.3-0.5c-0.5,0-0.9,0.2-1.2,0.6
		c-0.3,0.5-0.4,1.1-0.4,1.7c0,0.6,0.1,1.2,0.4,1.7C852.1,714.7,852.6,714.9,853.1,714.9z"/>
	<path d="M862.9,710.4h-1.5v5.1h-0.9v-5.1h-1V710l1-0.3v-0.3c0-1.4,0.6-2.1,1.8-2.1c0.4,0,0.7,0.1,1.1,0.2l-0.2,0.7
		c-0.3-0.1-0.6-0.2-0.9-0.2c-0.3,0-0.6,0.1-0.7,0.3c-0.2,0.3-0.3,0.7-0.2,1.1v0.4h1.5L862.9,710.4z"/>
	<path d="M866.5,709.6c0.2,0,0.5,0,0.7,0.1l-0.1,0.8c-0.2,0-0.4-0.1-0.6-0.1c-0.5,0-0.9,0.2-1.2,0.6c-0.3,0.4-0.5,0.9-0.5,1.4v3.1
		h-0.9v-5.8h0.7l0.1,1.1l0,0c0.2-0.3,0.4-0.6,0.8-0.9C865.8,709.7,866.2,709.6,866.5,709.6z"/>
	<path d="M873.3,712.6c0,0.8-0.2,1.6-0.7,2.2c-0.5,0.6-1.2,0.8-2,0.8c-0.5,0-1-0.1-1.4-0.4c-0.4-0.2-0.7-0.6-0.9-1
		c-0.2-0.5-0.3-1-0.3-1.6c0-0.8,0.2-1.6,0.7-2.2c0.5-0.5,1.2-0.8,2-0.8c0.7,0,1.4,0.3,1.9,0.8C873.1,711.1,873.3,711.8,873.3,712.6z
		 M868.9,712.6c0,0.6,0.1,1.2,0.4,1.7c0.7,0.7,1.8,0.8,2.5,0.1c0,0,0.1-0.1,0.1-0.1c0.3-0.5,0.5-1.1,0.5-1.7c0-0.6-0.1-1.2-0.5-1.7
		c-0.3-0.4-0.8-0.6-1.3-0.6c-0.5,0-1,0.2-1.3,0.6C869,711.4,868.8,712,868.9,712.6z"/>
	<path d="M882.2,715.5v-3.8c0-0.4-0.1-0.7-0.3-1c-0.2-0.2-0.6-0.4-0.9-0.3c-0.5,0-0.9,0.1-1.2,0.5c-0.3,0.4-0.4,0.9-0.4,1.4v3.2
		h-0.9v-3.8c0-0.4-0.1-0.7-0.3-1c-0.2-0.2-0.6-0.4-0.9-0.3c-0.5,0-0.9,0.1-1.2,0.5c-0.3,0.5-0.4,1-0.4,1.6v3h-0.9v-5.8h0.7l0.1,0.8
		l0,0c0.2-0.3,0.4-0.5,0.7-0.7c0.3-0.2,0.7-0.2,1-0.2c0.7-0.1,1.5,0.3,1.8,1l0,0c0.2-0.3,0.4-0.6,0.8-0.7c0.3-0.2,0.7-0.3,1.1-0.3
		c0.5,0,1.1,0.1,1.5,0.5c0.4,0.4,0.5,1,0.5,1.6v3.8L882.2,715.5z"/>
	<path d="M895,715.5v-3.8c0-0.4-0.1-0.7-0.3-1c-0.2-0.2-0.6-0.4-0.9-0.3c-0.4,0-0.9,0.1-1.2,0.5c-0.3,0.4-0.4,0.9-0.4,1.4v3.2h-0.9
		v-3.8c0-0.4-0.1-0.7-0.3-1c-0.2-0.2-0.6-0.4-0.9-0.3c-0.5,0-0.9,0.1-1.2,0.5c-0.3,0.5-0.4,1-0.4,1.6v3h-0.9v-5.8h0.7l0.1,0.8l0,0
		c0.2-0.3,0.4-0.5,0.7-0.7c0.3-0.2,0.7-0.2,1-0.2c0.7-0.1,1.5,0.3,1.8,1l0,0c0.2-0.3,0.4-0.6,0.8-0.7c0.3-0.2,0.7-0.3,1.1-0.3
		c0.5,0,1.1,0.1,1.5,0.5c0.4,0.4,0.5,1,0.5,1.6v3.8L895,715.5z"/>
	<path d="M900,715.6c-0.7,0-1.5-0.2-2-0.8c-0.5-0.6-0.8-1.4-0.7-2.2c0-0.8,0.2-1.6,0.7-2.2c0.5-0.5,1.1-0.8,1.8-0.8
		c0.7,0,1.3,0.2,1.7,0.7c0.4,0.5,0.7,1.2,0.6,1.9v0.5h-4c0,0.6,0.2,1.1,0.5,1.5c0.4,0.4,0.9,0.6,1.4,0.5c0.6,0,1.3-0.1,1.8-0.4v0.8
		c-0.3,0.1-0.6,0.2-0.9,0.3C900.7,715.6,900.4,715.6,900,715.6z M899.8,710.4c-0.4,0-0.8,0.1-1.1,0.5c-0.3,0.4-0.5,0.8-0.5,1.2h3
		c0-0.5-0.1-0.9-0.4-1.3C900.6,710.5,900.2,710.3,899.8,710.4L899.8,710.4z"/>
	<path d="M907.6,714.7L907.6,714.7c-0.5,0.6-1.1,0.9-1.8,0.9c-0.7,0-1.3-0.2-1.8-0.8c-0.5-0.6-0.7-1.4-0.6-2.2
		c0-0.8,0.2-1.6,0.6-2.2c0.4-0.5,1.1-0.8,1.8-0.8c0.7,0,1.4,0.3,1.8,0.8h0.1v-0.4v-0.4v-2.3h0.9v8.2h-0.7L907.6,714.7z M905.8,714.9
		c0.5,0,1-0.1,1.3-0.5c0.3-0.5,0.4-1,0.4-1.6v-0.2c0.1-0.6-0.1-1.2-0.4-1.8c-0.3-0.4-0.8-0.6-1.3-0.5c-0.5,0-0.9,0.2-1.2,0.6
		c-0.3,0.5-0.4,1.1-0.4,1.7c0,0.6,0.1,1.2,0.4,1.7C904.9,714.7,905.4,714.9,905.8,714.9z"/>
	<path d="M910.2,708.2c0-0.2,0-0.3,0.2-0.4c0.1-0.1,0.2-0.1,0.4-0.1c0.1,0,0.3,0,0.4,0.1c0.2,0.3,0.2,0.6,0,0.9
		c-0.1,0.1-0.2,0.1-0.4,0.1c-0.1,0-0.3,0-0.4-0.1C910.2,708.5,910.2,708.3,910.2,708.2z M911.2,715.5h-0.9v-5.8h0.9V715.5z"/>
	<path d="M916.5,715.5l-0.2-0.8l0,0c-0.2,0.3-0.5,0.6-0.9,0.7c-0.3,0.1-0.7,0.2-1.1,0.2c-0.5,0-1-0.1-1.3-0.4
		c-0.3-0.3-0.5-0.8-0.5-1.2c0-1.2,0.9-1.8,2.8-1.8h1v-0.4c0-0.4-0.1-0.7-0.3-1c-0.2-0.2-0.6-0.4-0.9-0.3c-0.6,0-1.1,0.2-1.6,0.4
		l-0.3-0.7c0.3-0.2,0.6-0.3,0.9-0.4c0.3-0.1,0.7-0.1,1-0.1c0.5,0,1.1,0.1,1.5,0.5c0.4,0.4,0.5,0.9,0.5,1.5v3.9L916.5,715.5z
		 M914.5,714.9c0.5,0,0.9-0.1,1.3-0.4c0.3-0.3,0.5-0.8,0.5-1.2v-0.5h-0.9c-0.5,0-1,0.1-1.5,0.3c-0.3,0.2-0.5,0.5-0.5,0.9
		c0,0.3,0.1,0.5,0.3,0.7C913.9,714.8,914.2,714.9,914.5,714.9L914.5,714.9z"/>
	<path d="M924.4,709.6c0.2,0,0.5,0,0.7,0.1l-0.1,0.8c-0.2,0-0.4-0.1-0.6-0.1c-0.5,0-0.9,0.2-1.2,0.6c-0.3,0.4-0.5,0.9-0.5,1.4v3.1
		h-0.9v-5.8h0.7l0.1,1.1h0c0.2-0.3,0.4-0.6,0.8-0.9C923.7,709.7,924,709.6,924.4,709.6z"/>
	<path d="M928.6,715.6c-0.7,0-1.5-0.2-2-0.8c-0.5-0.6-0.8-1.4-0.7-2.2c0-0.8,0.2-1.6,0.7-2.2c0.5-0.5,1.1-0.8,1.8-0.8
		c0.7,0,1.3,0.2,1.7,0.7c0.4,0.5,0.7,1.2,0.6,1.9v0.5h-4c0,0.6,0.2,1.1,0.5,1.5c0.4,0.4,0.9,0.6,1.4,0.5c0.6,0,1.3-0.1,1.8-0.4v0.8
		c-0.3,0.1-0.6,0.2-0.9,0.3C929.2,715.6,928.9,715.6,928.6,715.6z M928.3,710.4c-0.4,0-0.8,0.1-1.1,0.5c-0.3,0.4-0.5,0.8-0.5,1.2h3
		c0-0.5-0.1-0.9-0.4-1.3C929.1,710.5,928.7,710.3,928.3,710.4L928.3,710.4z"/>
	<path d="M934.8,715.6c-0.3,0-0.7-0.1-1-0.2c-0.3-0.1-0.6-0.4-0.8-0.6H933c0,0.3,0.1,0.7,0.1,1v2.4h-0.9v-8.3h0.7l0.1,0.8l0,0
		c0.2-0.3,0.5-0.5,0.8-0.7c0.3-0.1,0.7-0.2,1-0.2c0.7,0,1.3,0.3,1.8,0.8c0.8,1.3,0.8,3.1,0,4.4C936.1,715.4,935.5,715.6,934.8,715.6
		z M934.7,710.4c-0.5,0-1,0.1-1.3,0.5c-0.3,0.5-0.4,1-0.4,1.5v0.2c-0.1,0.6,0.1,1.2,0.4,1.7c0.3,0.4,0.8,0.6,1.3,0.5
		c0.5,0,0.9-0.2,1.2-0.6c0.3-0.5,0.5-1.1,0.4-1.7c0-0.6-0.1-1.2-0.4-1.7C935.6,710.6,935.2,710.4,934.7,710.4L934.7,710.4z"/>
	<path d="M943.7,712.6c0.1,0.8-0.2,1.6-0.7,2.2c-0.5,0.6-1.2,0.8-2,0.8c-0.5,0-1-0.1-1.4-0.4c-0.4-0.2-0.7-0.6-0.9-1
		c-0.2-0.5-0.3-1-0.3-1.6c0-0.8,0.2-1.6,0.7-2.2c0.5-0.5,1.2-0.8,2-0.8c0.7,0,1.4,0.3,1.9,0.8C943.5,711.1,943.8,711.8,943.7,712.6z
		 M939.3,712.6c0,0.6,0.1,1.2,0.4,1.7c0.7,0.7,1.8,0.8,2.5,0.1c0,0,0.1-0.1,0.1-0.1c0.3-0.5,0.5-1.1,0.4-1.7c0-0.6-0.1-1.2-0.4-1.7
		c-0.3-0.4-0.8-0.6-1.3-0.6c-0.5,0-1,0.2-1.3,0.6C939.5,711.4,939.3,712,939.3,712.6z"/>
	<path d="M947.9,709.6c0.2,0,0.5,0,0.7,0.1l-0.1,0.8c-0.2,0-0.4-0.1-0.6-0.1c-0.5,0-0.9,0.2-1.2,0.6c-0.3,0.4-0.5,0.9-0.5,1.4v3.1
		h-0.9v-5.8h0.7l0.1,1.1l0,0c0.2-0.3,0.5-0.6,0.8-0.9C947.2,709.7,947.5,709.6,947.9,709.6z"/>
	<path d="M951.5,714.9c0.1,0,0.3,0,0.5,0l0.3-0.1v0.7c-0.1,0.1-0.3,0.1-0.4,0.1c-0.2,0-0.3,0-0.5,0c-1.1,0-1.7-0.6-1.7-1.8v-3.4
		h-0.8V710l0.8-0.4l0.4-1.2h0.5v1.3h1.7v0.7h-1.7v3.4c0,0.3,0.1,0.6,0.2,0.8C951,714.8,951.3,714.9,951.5,714.9z"/>
	<path d="M957.2,713.9c0,0.5-0.2,1-0.6,1.2c-0.5,0.3-1.1,0.5-1.7,0.4c-0.6,0-1.2-0.1-1.8-0.4v-0.8c0.3,0.1,0.6,0.3,0.9,0.3
		c0.3,0.1,0.6,0.1,0.9,0.1c0.4,0,0.7-0.1,1-0.2c0.2-0.1,0.4-0.4,0.4-0.7c0-0.2-0.1-0.4-0.3-0.6c-0.3-0.2-0.7-0.4-1.1-0.6
		c-0.4-0.1-0.8-0.3-1.2-0.5c-0.2-0.1-0.4-0.3-0.5-0.5c-0.1-0.2-0.2-0.4-0.2-0.7c0-0.4,0.2-0.9,0.6-1.1c0.5-0.3,1-0.4,1.6-0.4
		c0.6,0,1.2,0.1,1.8,0.4l-0.3,0.7c-0.5-0.2-1-0.3-1.6-0.3c-0.3,0-0.6,0-0.9,0.2c-0.2,0.1-0.3,0.3-0.3,0.5c0,0.1,0,0.3,0.1,0.4
		c0.1,0.1,0.2,0.2,0.4,0.3c0.3,0.2,0.7,0.3,1,0.4c0.5,0.1,1,0.4,1.4,0.8C957,713.2,957.2,713.6,957.2,713.9z"/>
	<path d="M964.1,709.6c0.7,0,1.3,0.2,1.8,0.8c0.5,0.6,0.7,1.4,0.6,2.2c0,0.8-0.2,1.6-0.6,2.2c-0.4,0.5-1.1,0.8-1.8,0.8
		c-0.3,0-0.7-0.1-1-0.2c-0.3-0.1-0.6-0.4-0.8-0.6h-0.1l-0.2,0.7h-0.6v-8.2h0.9v2c0,0.5,0,0.8,0,1.2l0,0
		C962.7,709.9,963.4,709.6,964.1,709.6z M963.9,710.4c-0.5,0-1,0.1-1.3,0.5c-0.3,0.5-0.5,1.1-0.4,1.7c-0.1,0.6,0.1,1.2,0.4,1.7
		c0.3,0.4,0.8,0.6,1.3,0.5c0.5,0,0.9-0.2,1.2-0.6c0.3-0.5,0.4-1.1,0.4-1.7c0-0.6-0.1-1.2-0.4-1.7
		C964.9,710.5,964.4,710.3,963.9,710.4z"/>
	<path d="M967.1,709.7h0.9l1.3,3.3c0.2,0.5,0.4,1.1,0.5,1.6l0,0c0-0.2,0.1-0.5,0.3-0.9s0.6-1.8,1.4-4h0.9l-2.4,6.6
		c-0.2,0.5-0.5,1-0.8,1.4c-0.3,0.3-0.8,0.4-1.2,0.4c-0.3,0-0.5,0-0.8-0.1v-0.7c0.2,0,0.4,0.1,0.7,0.1c0.6,0,1.1-0.4,1.3-1l0.3-0.8
		L967.1,709.7z"/>
	<path d="M979.6,708.5c-0.8,0-1.5,0.3-2,0.8c-0.5,0.7-0.8,1.5-0.7,2.3c-0.1,0.8,0.2,1.7,0.7,2.3c0.5,0.6,1.2,0.9,2,0.8
		c0.6,0,1.2-0.1,1.8-0.3v0.8c-0.6,0.2-1.3,0.3-2,0.3c-1,0.1-1.9-0.3-2.6-1c-0.7-0.8-1-1.9-0.9-2.9c0-0.7,0.1-1.4,0.4-2.1
		c0.3-0.6,0.7-1.1,1.3-1.4c0.6-0.3,1.3-0.5,2-0.5c0.7,0,1.4,0.1,2.1,0.4l-0.4,0.8C980.8,708.7,980.2,708.5,979.6,708.5z"/>
	<path d="M985.4,715.6c-0.7,0-1.5-0.2-2-0.8c-0.5-0.6-0.8-1.4-0.7-2.2c0-0.8,0.2-1.6,0.7-2.2c0.5-0.5,1.1-0.8,1.8-0.8
		c0.6,0,1.3,0.2,1.7,0.7c0.4,0.5,0.7,1.2,0.6,1.9v0.5h-4c0,0.6,0.2,1.1,0.5,1.5c0.4,0.4,0.9,0.6,1.4,0.5c0.6,0,1.3-0.1,1.8-0.4v0.8
		c-0.3,0.1-0.6,0.2-0.9,0.3C986.1,715.6,985.7,715.6,985.4,715.6z M985.2,710.4c-0.4,0-0.8,0.1-1.1,0.5c-0.3,0.4-0.5,0.8-0.5,1.2h3
		c0-0.5-0.1-0.9-0.4-1.3C985.9,710.5,985.6,710.3,985.2,710.4L985.2,710.4z"/>
	<path d="M993,715.5v-3.7c0-0.4-0.1-0.7-0.3-1c-0.3-0.2-0.6-0.4-1-0.3c-0.5,0-1,0.1-1.3,0.5c-0.3,0.5-0.5,1-0.4,1.6v3H989v-5.8h0.7
		l0.1,0.8l0,0c0.2-0.3,0.4-0.5,0.8-0.7c0.3-0.2,0.7-0.2,1.1-0.2c0.6,0,1.1,0.1,1.6,0.5c0.4,0.4,0.6,1,0.5,1.6v3.8L993,715.5z"/>
	<path d="M997.5,714.9c0.1,0,0.3,0,0.5,0l0.3-0.1v0.7c-0.1,0.1-0.3,0.1-0.4,0.1c-0.2,0-0.3,0-0.5,0c-1.1,0-1.7-0.6-1.7-1.8v-3.4
		h-0.8V710l0.8-0.4l0.4-1.2h0.5v1.3h1.7v0.7h-1.7v3.4c0,0.3,0.1,0.6,0.2,0.8C997,714.8,997.2,714.9,997.5,714.9z"/>
	<path d="M1002,709.6c0.2,0,0.5,0,0.7,0.1l-0.1,0.8c-0.2,0-0.4-0.1-0.6-0.1c-0.5,0-0.9,0.2-1.2,0.6c-0.3,0.4-0.5,0.9-0.5,1.4v3.1
		h-0.9v-5.8h0.7l0.1,1.1l0,0c0.2-0.3,0.5-0.6,0.8-0.9C1001.3,709.7,1001.6,709.6,1002,709.6z"/>
	<path d="M1006.2,715.6c-0.7,0-1.5-0.2-2-0.8c-0.5-0.6-0.8-1.4-0.7-2.2c0-0.8,0.2-1.6,0.7-2.2c0.5-0.5,1.1-0.8,1.8-0.8
		c0.6,0,1.3,0.2,1.7,0.7c0.4,0.5,0.7,1.2,0.6,1.9v0.5h-4c0,0.6,0.2,1.1,0.5,1.5c0.4,0.4,0.9,0.6,1.4,0.5c0.6,0,1.3-0.1,1.8-0.4v0.8
		c-0.3,0.1-0.6,0.2-0.9,0.3C1006.9,715.6,1006.6,715.6,1006.2,715.6z M1006,710.4c-0.4,0-0.8,0.1-1.1,0.5c-0.3,0.4-0.5,0.8-0.5,1.2
		h3c0-0.5-0.1-0.9-0.4-1.3C1006.8,710.5,1006.4,710.3,1006,710.4L1006,710.4z"/>
	<path d="M1015.2,710.4h-1.5v5.1h-0.9v-5.1h-1V710l1-0.3v-0.3c0-1.4,0.6-2.1,1.9-2.1c0.4,0,0.7,0.1,1.1,0.2l-0.2,0.7
		c-0.3-0.1-0.6-0.2-0.9-0.2c-0.3,0-0.6,0.1-0.7,0.3c-0.2,0.3-0.3,0.7-0.2,1.1v0.4h1.5L1015.2,710.4z"/>
	<path d="M1021.2,712.6c0,0.8-0.2,1.6-0.7,2.2c-0.5,0.6-1.2,0.8-2,0.8c-0.5,0-1-0.1-1.4-0.4c-0.4-0.2-0.7-0.6-0.9-1
		c-0.2-0.5-0.3-1-0.3-1.6c0-0.8,0.2-1.6,0.7-2.2c0.5-0.5,1.2-0.8,2-0.8c0.7,0,1.4,0.3,1.9,0.8C1021,711.1,1021.3,711.8,1021.2,712.6
		z M1016.9,712.6c0,0.6,0.1,1.2,0.5,1.7c0.3,0.4,0.8,0.6,1.3,0.6c0.5,0,1-0.2,1.3-0.6c0.3-0.5,0.5-1.1,0.5-1.7
		c0-0.6-0.1-1.2-0.5-1.7c-0.3-0.4-0.8-0.6-1.3-0.6c-0.5,0-1,0.2-1.3,0.6C1017,711.4,1016.8,712,1016.9,712.6z"/>
	<path d="M1025.4,709.6c0.2,0,0.5,0,0.7,0.1l-0.1,0.8c-0.2,0-0.4-0.1-0.6-0.1c-0.5,0-0.9,0.2-1.2,0.6c-0.3,0.4-0.5,0.9-0.5,1.4v3.1
		h-0.9v-5.8h0.7l0.1,1.1l0,0c0.2-0.3,0.4-0.6,0.8-0.9C1024.7,709.7,1025,709.6,1025.4,709.6z"/>
	<path d="M813,730.9l-2.6-6.8h0c0,0.5,0.1,1.2,0.1,1.9v4.9h-0.8v-7.7h1.3l2.4,6.3l0,0l2.5-6.3h1.3v7.7h-0.9v-5c0-0.6,0-1.2,0.1-1.8
		l0,0l-2.6,6.8L813,730.9z"/>
	<path d="M821.7,731c-0.7,0-1.5-0.2-2-0.8c-0.5-0.6-0.8-1.4-0.7-2.2c0-0.8,0.2-1.6,0.7-2.2c0.5-0.5,1.1-0.8,1.8-0.8
		c0.6,0,1.3,0.2,1.7,0.7c0.4,0.5,0.7,1.2,0.6,1.9v0.5h-4c0,0.6,0.2,1.1,0.5,1.5c0.4,0.4,0.9,0.6,1.4,0.5c0.6,0,1.3-0.1,1.8-0.4v0.8
		c-0.3,0.1-0.6,0.2-0.9,0.3C822.3,731,822,731,821.7,731z M821.4,725.8c-0.4,0-0.8,0.1-1.1,0.5c-0.3,0.4-0.5,0.8-0.5,1.2h3
		c0-0.5-0.1-0.9-0.4-1.3C822.2,725.9,821.8,725.7,821.4,725.8L821.4,725.8z"/>
	<path d="M829.2,730.1L829.2,730.1c-0.5,0.6-1.1,0.9-1.9,0.9c-0.7,0-1.3-0.2-1.8-0.8c-0.4-0.6-0.6-1.4-0.6-2.2
		c0-0.8,0.2-1.6,0.6-2.2c0.4-0.5,1.1-0.8,1.8-0.8c0.7,0,1.4,0.3,1.8,0.8h0.1v-0.4V725v-2.3h0.8v8.2h-0.7L829.2,730.1z M827.4,730.2
		c0.5,0,1-0.1,1.3-0.5c0.3-0.5,0.4-1,0.4-1.6V728c0.1-0.6-0.1-1.2-0.4-1.8c-0.3-0.4-0.8-0.6-1.3-0.5c-0.5,0-0.9,0.2-1.2,0.6
		c-0.3,0.5-0.4,1.1-0.4,1.7c0,0.6,0.1,1.2,0.4,1.7C826.5,730,827,730.3,827.4,730.2L827.4,730.2z"/>
	<path d="M831.8,723.5c0-0.2,0-0.3,0.2-0.4c0.1-0.1,0.2-0.1,0.4-0.1c0.1,0,0.3,0.1,0.4,0.1c0.2,0.3,0.2,0.6,0,0.9
		c-0.1,0.1-0.2,0.1-0.4,0.1c-0.1,0-0.3,0-0.4-0.1C831.8,723.9,831.8,723.7,831.8,723.5z M832.7,730.9h-0.9v-5.8h0.9V730.9z"/>
	<path d="M838.1,730.9L838,730l0,0c-0.2,0.3-0.5,0.6-0.9,0.7c-0.4,0.2-0.7,0.3-1.1,0.3c-0.5,0-1-0.1-1.3-0.4
		c-0.3-0.3-0.5-0.8-0.5-1.2c0-1.2,0.9-1.8,2.8-1.8h1v-0.4c0-0.4-0.1-0.7-0.3-1c-0.2-0.2-0.6-0.4-0.9-0.3c-0.6,0-1.1,0.2-1.6,0.4
		l-0.3-0.7c0.3-0.2,0.6-0.3,0.9-0.4c0.3-0.1,0.7-0.1,1-0.1c0.5,0,1.1,0.1,1.5,0.5c0.4,0.4,0.5,0.9,0.5,1.5v3.9L838.1,730.9z
		 M836.1,730.2c0.5,0,0.9-0.1,1.3-0.4c0.3-0.3,0.5-0.8,0.5-1.2V728H837c-0.5,0-1,0.1-1.5,0.3c-0.3,0.2-0.5,0.5-0.5,0.9
		c0,0.3,0.1,0.5,0.3,0.7C835.5,730.1,835.8,730.2,836.1,730.2L836.1,730.2z"/>
	<path d="M846.9,730.9l-0.2-0.8l0,0c-0.2,0.3-0.5,0.6-0.9,0.7c-0.3,0.1-0.7,0.2-1.1,0.2c-0.5,0-1-0.1-1.3-0.4
		c-0.3-0.3-0.5-0.8-0.5-1.2c0-1.2,0.9-1.8,2.8-1.8h1v-0.4c0-0.4-0.1-0.7-0.3-1c-0.3-0.2-0.6-0.4-0.9-0.3c-0.6,0-1.1,0.2-1.6,0.4
		l-0.3-0.7c0.3-0.2,0.6-0.3,0.9-0.4c0.3-0.1,0.7-0.1,1-0.1c0.5,0,1.1,0.1,1.5,0.5c0.4,0.4,0.5,0.9,0.5,1.5v3.9L846.9,730.9z
		 M844.9,730.2c0.5,0,0.9-0.1,1.3-0.4c0.3-0.3,0.5-0.8,0.5-1.2V728h-0.9c-0.5,0-1,0.1-1.5,0.3c-0.3,0.2-0.5,0.5-0.5,0.9
		c0,0.3,0.1,0.5,0.3,0.7C844.3,730.1,844.6,730.2,844.9,730.2L844.9,730.2z"/>
	<path d="M853.3,730.9v-3.7c0-0.4-0.1-0.7-0.3-1c-0.3-0.3-0.6-0.4-1-0.3c-0.5,0-1,0.1-1.3,0.5c-0.3,0.5-0.5,1-0.4,1.6v3h-0.9v-5.8
		h0.7l0.2,0.8l0,0c0.2-0.3,0.4-0.5,0.8-0.7c0.3-0.2,0.7-0.2,1.1-0.2c0.6,0,1.1,0.1,1.6,0.5c0.4,0.4,0.6,1,0.5,1.6v3.8H853.3z"/>
	<path d="M859.9,730.1L859.9,730.1c-0.4,0.6-1.1,1-1.9,0.9c-0.7,0-1.3-0.2-1.8-0.8c-0.5-0.6-0.7-1.4-0.6-2.2c0-0.8,0.2-1.6,0.6-2.2
		c0.4-0.5,1.1-0.8,1.8-0.8c0.7,0,1.4,0.3,1.8,0.8h0.1v-0.4V725v-2.3h0.9v8.2H860L859.9,730.1z M858.1,730.2c0.5,0,1-0.1,1.3-0.5
		c0.3-0.5,0.4-1,0.4-1.6V728c0.1-0.6-0.1-1.2-0.4-1.8c-0.3-0.4-0.8-0.6-1.3-0.5c-0.5,0-0.9,0.2-1.2,0.6c-0.3,0.5-0.4,1.1-0.4,1.7
		c0,0.6,0.1,1.2,0.4,1.7C857.2,730,857.7,730.3,858.1,730.2L858.1,730.2z"/>
	<path d="M871.6,726.9c0.1,1.1-0.3,2.1-1,2.9c-0.8,0.7-1.9,1.1-3,1h-2.1v-7.7h2.3c1-0.1,2,0.3,2.8,1
		C871.3,724.9,871.7,725.9,871.6,726.9z M870.6,726.9c0.1-0.8-0.2-1.6-0.8-2.3c-0.6-0.5-1.4-0.8-2.2-0.8h-1.3v6.1h1.1
		c0.9,0.1,1.7-0.2,2.4-0.8C870.4,728.7,870.7,727.8,870.6,726.9L870.6,726.9z"/>
	<path d="M875.6,731c-0.7,0-1.5-0.2-2-0.8c-0.5-0.6-0.8-1.4-0.7-2.2c0-0.8,0.2-1.6,0.7-2.2c0.5-0.5,1.1-0.8,1.8-0.8
		c0.6,0,1.3,0.2,1.7,0.7c0.4,0.5,0.7,1.2,0.6,1.9v0.5h-4c0,0.6,0.2,1.1,0.5,1.5c0.4,0.4,0.9,0.6,1.4,0.5c0.6,0,1.3-0.1,1.8-0.4v0.8
		c-0.3,0.1-0.6,0.2-0.9,0.3C876.3,731,875.9,731,875.6,731z M875.4,725.8c-0.4,0-0.8,0.1-1.1,0.5c-0.3,0.4-0.5,0.8-0.5,1.2h3
		c0-0.5-0.1-0.9-0.4-1.3C876.2,725.9,875.8,725.7,875.4,725.8L875.4,725.8z"/>
	<path d="M880.5,730.9l-2.2-5.8h0.9l1.2,3.4c0.3,0.8,0.4,1.3,0.5,1.5l0,0c0.1-0.4,0.2-0.8,0.4-1.2c0.2-0.6,0.7-1.9,1.4-3.8h0.9
		l-2.2,5.8L880.5,730.9z"/>
	<path d="M887,731c-0.7,0-1.5-0.2-2-0.8c-0.5-0.6-0.8-1.4-0.7-2.2c0-0.8,0.2-1.6,0.7-2.2c0.5-0.5,1.1-0.8,1.8-0.8
		c0.6,0,1.3,0.2,1.7,0.7c0.4,0.5,0.7,1.2,0.6,1.9v0.5h-4c0,0.6,0.2,1.1,0.5,1.5c0.4,0.4,0.9,0.6,1.4,0.5c0.6,0,1.3-0.1,1.8-0.4v0.8
		c-0.3,0.1-0.6,0.2-0.9,0.3C887.6,731,887.3,731,887,731z M886.8,725.8c-0.4,0-0.8,0.1-1.1,0.5c-0.3,0.4-0.5,0.8-0.5,1.2h3
		c0-0.5-0.1-0.9-0.4-1.3C887.6,725.9,887.2,725.7,886.8,725.8L886.8,725.8z"/>
	<path d="M891.5,730.9h-0.9v-8.2h0.9V730.9z"/>
	<path d="M898.3,728c0,0.8-0.2,1.6-0.7,2.2c-0.5,0.6-1.2,0.8-2,0.8c-0.5,0-1-0.1-1.4-0.4c-0.4-0.2-0.7-0.6-0.9-1
		c-0.2-0.5-0.3-1.1-0.3-1.6c0-0.8,0.2-1.6,0.7-2.2c0.5-0.6,1.2-0.8,2-0.8c0.7,0,1.4,0.3,1.9,0.8C898.1,726.4,898.4,727.2,898.3,728z
		 M893.9,728c0,0.6,0.1,1.2,0.5,1.7c0.3,0.4,0.8,0.6,1.3,0.6c0.5,0,1-0.2,1.3-0.6c0.3-0.5,0.5-1.1,0.5-1.7c0-0.6-0.1-1.2-0.5-1.7
		c-0.3-0.4-0.8-0.6-1.3-0.6c-0.5,0-1,0.2-1.3,0.6C894.1,726.8,893.9,727.4,893.9,728z"/>
	<path d="M902.5,731c-0.3,0-0.7-0.1-1-0.2c-0.3-0.1-0.6-0.4-0.8-0.6h-0.1c0,0.3,0.1,0.7,0.1,1v2.4h-0.9v-8.4h0.7l0.1,0.8l0,0
		c0.2-0.3,0.5-0.5,0.8-0.7c0.3-0.1,0.7-0.2,1-0.2c0.7,0,1.3,0.3,1.8,0.8c0.8,1.3,0.8,3.1,0,4.4C903.9,730.7,903.2,731,902.5,731z
		 M902.4,725.8c-0.5,0-0.9,0.1-1.3,0.5c-0.3,0.5-0.4,1-0.4,1.6v0.2c-0.1,0.6,0.1,1.2,0.4,1.7c0.3,0.4,0.8,0.6,1.3,0.5
		c0.5,0,0.9-0.2,1.2-0.6c0.3-0.5,0.4-1.1,0.4-1.7c0-0.6-0.1-1.2-0.4-1.7C903.3,726,902.9,725.7,902.4,725.8L902.4,725.8z"/>
	<path d="M913.8,730.9v-3.8c0-0.4-0.1-0.7-0.3-1c-0.2-0.2-0.6-0.4-0.9-0.3c-0.4,0-0.9,0.1-1.2,0.5c-0.3,0.4-0.4,0.9-0.4,1.4v3.2
		h-0.9v-3.8c0-0.4-0.1-0.7-0.3-1c-0.2-0.2-0.6-0.4-0.9-0.3c-0.5,0-0.9,0.1-1.2,0.5c-0.3,0.5-0.4,1-0.4,1.6v3h-0.9v-5.8h0.7l0.1,0.8
		h0c0.2-0.3,0.4-0.5,0.7-0.7c0.3-0.2,0.7-0.2,1-0.2c0.7-0.1,1.5,0.3,1.8,1l0,0c0.2-0.3,0.4-0.5,0.8-0.7c0.3-0.2,0.7-0.3,1.1-0.3
		c0.5,0,1.1,0.1,1.5,0.5c0.4,0.5,0.5,1,0.5,1.6v3.8L913.8,730.9z"/>
	<path d="M918.9,731c-0.7,0-1.5-0.2-2-0.8c-0.5-0.6-0.8-1.4-0.7-2.2c0-0.8,0.2-1.6,0.7-2.2c0.5-0.5,1.1-0.8,1.8-0.8
		c0.6,0,1.3,0.2,1.7,0.7c0.4,0.5,0.7,1.2,0.6,1.9v0.5h-4c0,0.6,0.2,1.1,0.5,1.5c0.4,0.4,0.9,0.6,1.4,0.5c0.6,0,1.3-0.1,1.8-0.4v0.8
		c-0.3,0.1-0.6,0.2-0.9,0.3C919.5,731,919.2,731,918.9,731z M918.7,725.8c-0.4,0-0.8,0.1-1.1,0.5c-0.3,0.4-0.5,0.8-0.5,1.2h3
		c0-0.5-0.1-0.9-0.4-1.3C919.4,725.9,919.1,725.7,918.7,725.8L918.7,725.8z"/>
	<path d="M926.4,730.9v-3.7c0-0.4-0.1-0.7-0.3-1c-0.3-0.2-0.6-0.4-1-0.3c-0.5,0-1,0.1-1.3,0.5c-0.3,0.5-0.5,1-0.4,1.6v3h-0.9v-5.8
		h0.7l0.2,0.8l0,0c0.2-0.3,0.4-0.5,0.8-0.7c0.3-0.2,0.7-0.2,1.1-0.2c0.6,0,1.1,0.1,1.6,0.5c0.4,0.4,0.6,1,0.5,1.6v3.8H926.4z"/>
	<path d="M931,730.2h0.5l0.3-0.1v0.7c-0.1,0.1-0.3,0.1-0.4,0.1c-0.2,0-0.3,0-0.5,0c-1.1,0-1.7-0.6-1.7-1.8v-3.4h-0.8v-0.4l0.8-0.4
		l0.4-1.2h0.5v1.3h1.7v0.7H930v3.4c0,0.3,0.1,0.6,0.2,0.8C930.4,730.2,930.7,730.3,931,730.2z"/>
	<path d="M935.8,730.9v-7.7h0.9v7.7H935.8z"/>
	<path d="M942.6,730.9v-3.7c0-0.4-0.1-0.7-0.3-1c-0.3-0.2-0.6-0.4-1-0.3c-0.5,0-1,0.1-1.3,0.5c-0.3,0.5-0.5,1-0.4,1.6v3h-0.9v-5.8
		h0.7l0.1,0.8l0,0c0.2-0.3,0.4-0.5,0.8-0.7c0.3-0.2,0.7-0.2,1.1-0.2c0.6,0,1.1,0.1,1.6,0.5c0.4,0.4,0.6,1,0.5,1.6v3.8H942.6z"/>
	<path d="M945.2,723.5c0-0.2,0-0.3,0.2-0.4c0.1-0.1,0.2-0.1,0.4-0.1c0.1,0,0.3,0,0.4,0.1c0.2,0.3,0.2,0.6,0,0.9
		c-0.1,0.1-0.2,0.1-0.4,0.1c-0.1,0-0.3,0-0.4-0.1C945.3,723.9,945.2,723.7,945.2,723.5z M946.2,730.9h-0.9v-5.8h0.9V730.9z"/>
	<path d="M949.9,730.2c0.1,0,0.3,0,0.4,0c0.1,0,0.2,0,0.3-0.1v0.7c-0.1,0.1-0.3,0.1-0.4,0.1c-0.2,0-0.3,0-0.5,0
		c-1.1,0-1.7-0.6-1.7-1.8v-3.4h-0.8v-0.4l0.8-0.4l0.4-1.2h0.5v1.3h1.7v0.7H949v3.4c0,0.3,0.1,0.6,0.2,0.8
		C949.4,730.1,949.6,730.2,949.9,730.2z"/>
	<path d="M951.7,723.5c0-0.2,0-0.3,0.2-0.4c0.1-0.1,0.2-0.1,0.4-0.1c0.1,0,0.3,0,0.4,0.1c0.2,0.3,0.2,0.6,0,0.9
		c-0.1,0.1-0.2,0.1-0.4,0.1c-0.1,0-0.3,0-0.4-0.1C951.8,723.9,951.7,723.7,951.7,723.5z M952.7,730.9h-0.9v-5.8h0.9V730.9z"/>
	<path d="M958.1,730.9l-0.2-0.8l0,0c-0.2,0.3-0.5,0.6-0.9,0.7c-0.3,0.1-0.7,0.2-1.1,0.2c-0.5,0-1-0.1-1.3-0.4
		c-0.3-0.3-0.5-0.8-0.5-1.2c0-1.2,0.9-1.8,2.8-1.8h1v-0.4c0-0.4-0.1-0.7-0.3-1c-0.2-0.2-0.6-0.4-0.9-0.3c-0.6,0-1.1,0.2-1.6,0.4
		l-0.3-0.7c0.3-0.2,0.6-0.3,0.9-0.4c0.3-0.1,0.7-0.1,1-0.1c0.5,0,1.1,0.1,1.5,0.5c0.4,0.4,0.5,0.9,0.5,1.5v3.9L958.1,730.9z
		 M956.1,730.2c0.5,0,0.9-0.1,1.3-0.4c0.3-0.3,0.5-0.8,0.5-1.2V728H957c-0.5,0-1,0.1-1.5,0.3c-0.3,0.2-0.5,0.5-0.5,0.9
		c0,0.3,0.1,0.5,0.3,0.7C955.5,730.1,955.8,730.2,956.1,730.2L956.1,730.2z"/>
	<path d="M962.4,730.2c0.1,0,0.3,0,0.4,0l0.3-0.1v0.7c-0.1,0.1-0.3,0.1-0.4,0.1c-0.2,0-0.3,0-0.5,0c-1.1,0-1.7-0.6-1.7-1.8v-3.4
		h-0.8v-0.4l0.8-0.4l0.4-1.2h0.5v1.3h1.7v0.7h-1.7v3.4c0,0.3,0.1,0.6,0.2,0.8C961.9,730.1,962.1,730.3,962.4,730.2z"/>
	<path d="M964.2,723.5c0-0.2,0-0.3,0.2-0.4c0.1-0.1,0.2-0.1,0.4-0.1c0.1,0,0.3,0,0.4,0.1c0.2,0.3,0.2,0.6,0,0.9
		c-0.1,0.1-0.2,0.1-0.4,0.1c-0.1,0-0.3,0-0.4-0.1C964.3,723.9,964.2,723.7,964.2,723.5z M965.2,730.9h-0.9v-5.8h0.9V730.9z"/>
	<path d="M968.3,730.9l-2.2-5.8h0.9l1.2,3.4c0.2,0.5,0.4,1,0.5,1.5l0,0c0.1-0.4,0.2-0.8,0.4-1.2c0.2-0.6,0.7-1.9,1.4-3.8h0.9
		l-2.2,5.8L968.3,730.9z"/>
	<path d="M974.9,731c-0.7,0-1.5-0.2-2-0.8c-0.5-0.6-0.8-1.4-0.7-2.2c0-0.8,0.2-1.6,0.7-2.2c0.5-0.5,1.1-0.8,1.8-0.8
		c0.7,0,1.3,0.2,1.7,0.7c0.4,0.5,0.7,1.2,0.6,1.9v0.5h-4c0,0.6,0.2,1.1,0.5,1.5c0.4,0.4,0.9,0.6,1.4,0.5c0.6,0,1.3-0.1,1.8-0.4v0.8
		c-0.3,0.1-0.6,0.2-0.9,0.3C975.5,731,975.2,731,974.9,731z M974.6,725.8c-0.4,0-0.8,0.1-1.1,0.5c-0.3,0.4-0.5,0.8-0.5,1.2h3
		c0-0.5-0.1-0.9-0.4-1.3C975.4,725.9,975,725.7,974.6,725.8L974.6,725.8z"/>
	<path d="M982.2,729.3c0,0.5-0.2,1-0.6,1.2c-0.5,0.3-1.1,0.5-1.7,0.4c-0.6,0-1.2-0.1-1.8-0.4v-0.8c0.3,0.1,0.6,0.3,0.9,0.3
		c0.3,0.1,0.6,0.1,0.9,0.1c0.4,0,0.7-0.1,1.1-0.2c0.2-0.1,0.4-0.4,0.4-0.7c0-0.2-0.1-0.4-0.3-0.6c-0.3-0.2-0.7-0.4-1.1-0.6
		c-0.4-0.1-0.8-0.3-1.2-0.5c-0.2-0.1-0.4-0.3-0.5-0.5c-0.1-0.2-0.2-0.4-0.2-0.7c0-0.4,0.2-0.9,0.6-1.1c0.5-0.3,1-0.4,1.6-0.4
		c0.6,0,1.2,0.1,1.8,0.4l-0.3,0.7c-0.5-0.2-1-0.3-1.6-0.3c-0.3,0-0.6,0-0.9,0.2c-0.2,0.1-0.3,0.3-0.3,0.5c0,0.1,0,0.3,0.1,0.4
		c0.1,0.1,0.2,0.2,0.4,0.3c0.3,0.2,0.7,0.3,1,0.4c0.5,0.1,1,0.4,1.4,0.8C982.1,728.6,982.2,728.9,982.2,729.3z"/>
	<path d="M985.9,727.9c0-0.9,0.1-1.8,0.4-2.6c0.3-0.8,0.7-1.5,1.2-2.1h0.8c-0.5,0.7-0.9,1.4-1.1,2.2c-0.3,0.8-0.4,1.6-0.4,2.5
		c0,0.8,0.1,1.7,0.4,2.5c0.2,0.8,0.6,1.5,1.1,2.2h-0.8c-0.5-0.6-0.9-1.3-1.2-2.1C986,729.6,985.9,728.8,985.9,727.9z"/>
	<path d="M993.1,730.9l-2.6-6.8l0,0c0,0.5,0.1,1.2,0.1,1.9v4.9h-0.8v-7.7h1.3l2.4,6.3l0,0l2.5-6.3h1.3v7.7h-0.9v-5
		c0-0.6,0-1.2,0.1-1.8l0,0l-2.6,6.8L993.1,730.9z"/>
	<path d="M1005.5,726.9c0.1,1.1-0.3,2.1-1,2.9c-0.8,0.7-1.9,1.1-3,1h-2.1v-7.7h2.3c1.9-0.2,3.6,1.2,3.8,3.1
		C1005.6,726.5,1005.6,726.7,1005.5,726.9L1005.5,726.9z M1004.6,726.9c0.1-0.8-0.2-1.6-0.8-2.3c-0.6-0.5-1.4-0.8-2.2-0.8h-1.3v6.1
		h1.1c0.9,0.1,1.7-0.2,2.4-0.8C1004.4,728.6,1004.6,727.8,1004.6,726.9L1004.6,726.9z"/>
	<path d="M1007.3,730.9v-7.7h0.9v7.7H1007.3z"/>
	<path d="M1012,727.9c0,0.9-0.1,1.7-0.4,2.6c-0.3,0.8-0.6,1.5-1.2,2.1h-0.8c0.5-0.7,0.9-1.4,1.1-2.2c0.5-1.6,0.5-3.4,0-5
		c-0.2-0.8-0.6-1.6-1.1-2.2h0.8c0.5,0.6,0.9,1.4,1.2,2.1C1011.9,726.1,1012,727,1012,727.9z"/>
</g>
</svg>
