<svg id="Layer_3" data-name="Layer 3" xmlns="http://www.w3.org/2000/svg" viewBox="0 0 1466 1080"><defs><style>.cls-1{fill:none;stroke-width:6px;}.cls-1,.cls-3{stroke:#fc7a00;stroke-linejoin:round;}.cls-2{fill:#fc7a00;opacity:0.2;isolation:isolate;}.cls-3,.cls-5{fill:#fff;}.cls-3{stroke-width:4px;}.cls-4{fill:#a36a2a;stroke:#a36a2a;stroke-miterlimit:10;stroke-width:20px;}.cls-5{font-size:22px;font-family:OpenSans-ExtraBold, Open Sans;font-weight:800;}</style></defs><title>Vietnam v3 no text</title><g id="mongcai-line"><path class="cls-1" d="M973,233.77,968.26,229l-12.13,2.11h-6.32l-9,5.27V247l-7.11-2.9-6.33,2.64-6.85,4.74-2.11,9.49L910,258.81l-4.74,2.11-3.69,4.22L898.93,263l-8.43,2.11H881v10.54l2.64,5.8L881,288.33,878.9,302v8.44l2.11,3.16-2.11,3.16a3.6,3.6,0,0,1-4.21,0c-2.11-1.58-11.08-1.58-11.08-1.58l-7.38,2.11s-4.74,6.32-6.32,6.85-6.85,2.11-6.85,2.11l-5.28-2.64s-4.74-3.16-6.85-2.63-4.74.53-6.85,2.63-2.11,2.64-2.11,2.64l-8.44-1.58s-2.63,2.11-4.74,3.69-14.23,10-14.23,10l-6.33,5.28v7.38L784,354.23H765.56l-12.12-6.85L744,343.69,736,341.58,723.39,340h-4.22v7.9l-2.1,4.22-10,5.27a10.19,10.19,0,0,1-3.69,3.69c-2.64,1.58-9,6.33-9,6.33h-6.33l-2.63,6.32s-5.28-5.27-6.33-2.1,0,2.1,0,2.1h-8.43L667,375.84l3.69,24.78-.53,10.54,3.16,8.44.53,6.32-1.58,8.44.52,3.16-.52,9.49L667,449.64l-5.8,5.28-5.8,2.11v15.28l-3.17,6.33v5.8L648,488.65v9l3.16,4.21-3.16,5.8-3.17,2.11v32.68l2.11,4.22-2.11,14.76-3.69,7.91L638,576.69l-2.11,3.69-2.11,7.91v9L629,606.74l-5.27,6.32-4.22,4.75-4.22,5.8v14.76l2.11,5.27.53,10.54s-5.27,3.69-2.64,4.22,8.44,4.22,8.44,4.22l2.11,4.21-2.11,3.69-3.16,4.22-.53,13.71,5.8,3.69h4.21l2.11,4.21-2.63,5.28a54.62,54.62,0,0,0-.53,5.79,40.67,40.67,0,0,0,.53,5.28h-5.8l-3.16,3.69h-5.8l-4.22-2.64-3.69,2.64H580.53s-4.22,2.63-4.74,3.69-2.64,4.74-2.64,4.74l-6.85,1.58L560,729.57l-2.11-2.11-3.69,2.11L548.9,738"/></g><g id="marker-mong"><circle class="cls-2" cx="969" cy="232" r="40" transform="translate(-1.07 4.51) rotate(-0.27)"/><circle class="cls-3" cx="969" cy="232" r="8.66" transform="translate(-1.07 4.51) rotate(-0.27)"/></g><g id="marker-cau"><circle class="cls-2" cx="549" cy="735" r="40"/><circle class="cls-3" cx="549" cy="735" r="8.66"/></g><g id="legend"><rect class="cls-4" x="918" y="171" width="117" height="17"/><text class="cls-5" transform="translate(918.11 185.59)">MÓNG CÁI</text></g><g id="cau-text"><rect class="cls-4" x="414" y="791" width="268" height="17"/><text class="cls-5" transform="translate(414.19 808.26)">CAU TREO BORDER PASS</text></g></svg>