<svg xmlns="http://www.w3.org/2000/svg" viewBox="0 0 1466 1080"><defs><style>.cls-1,.cls-3{isolation:isolate;}.cls-2{fill:none;stroke-width:6px;}.cls-2,.cls-4{stroke:#fc7a00;stroke-linejoin:round;}.cls-10,.cls-14,.cls-15,.cls-3{fill:#fc7a00;}.cls-3{opacity:0.2;}.cls-4,.cls-5,.cls-8{fill:#fff;}.cls-4{stroke-width:4px;}.cls-6{font-size:20.94px;}.cls-6,.cls-7{fill:#a36a2a;}.cls-6,.cls-8{font-family:OpenSans-ExtraBold, Open Sans;font-weight:800;}.cls-7{stroke:#a36a2a;stroke-miterlimit:10;stroke-width:20px;}.cls-8{font-size:22px;}.cls-11,.cls-14,.cls-15,.cls-16,.cls-17,.cls-9{opacity:0.7;}.cls-10,.cls-11,.cls-14,.cls-16{mix-blend-mode:multiply;}.cls-12,.cls-16,.cls-17{fill:#f90000;}.cls-13{fill:#3b3b3b;}</style></defs><title>Vietnam v3 no text</title><g class="cls-1"><g id="Layer_3" data-name="Layer 3"><g id="mongcai-line"><path class="cls-2" d="M973,233.77,968.26,229l-12.13,2.11h-6.32l-9,5.27V247l-7.11-2.9-6.33,2.64-6.85,4.74-2.11,9.49L910,258.81l-4.74,2.11-3.69,4.22L898.93,263l-8.43,2.11H881v10.54l2.64,5.8L881,288.33,878.9,302v8.44l2.11,3.16-2.11,3.16a3.6,3.6,0,0,1-4.21,0c-2.11-1.58-11.08-1.58-11.08-1.58l-7.38,2.11s-4.74,6.32-6.32,6.85-6.85,2.11-6.85,2.11l-5.28-2.64s-4.74-3.16-6.85-2.63-4.74.53-6.85,2.63-2.11,2.64-2.11,2.64l-8.44-1.58s-2.63,2.11-4.74,3.69-14.23,10-14.23,10l-6.33,5.28v7.38L784,354.23H765.56l-12.12-6.85L744,343.69,736,341.58,723.39,340h-4.22v7.9l-2.1,4.22-10,5.27a10.19,10.19,0,0,1-3.69,3.69c-2.64,1.58-9,6.33-9,6.33h-6.33l-2.63,6.32s-5.28-5.27-6.33-2.1,0,2.1,0,2.1h-8.43L667,375.84l3.69,24.78-.53,10.54,3.16,8.44.53,6.32-1.58,8.44.52,3.16-.52,9.49L667,449.64l-5.8,5.28-5.8,2.11v15.28l-3.17,6.33v5.8L648,488.65v9l3.16,4.21-3.16,5.8-3.17,2.11v32.68l2.11,4.22-2.11,14.76-3.69,7.91L638,576.69l-2.11,3.69-2.11,7.91v9L629,606.74l-5.27,6.32-4.22,4.75-4.22,5.8v14.76l2.11,5.27.53,10.54s-5.27,3.69-2.64,4.22,8.44,4.22,8.44,4.22l2.11,4.21-2.11,3.69-3.16,4.22-.53,13.71,5.8,3.69h4.21l2.11,4.21-2.63,5.28a54.62,54.62,0,0,0-.53,5.79,40.67,40.67,0,0,0,.53,5.28h-5.8l-3.16,3.69h-5.8l-4.22-2.64-3.69,2.64H580.53s-4.22,2.63-4.74,3.69-2.64,4.74-2.64,4.74l-6.85,1.58L560,729.57l-2.11-2.11-3.69,2.11L548.9,738"/></g><g id="marker-mong"><circle class="cls-3" cx="969" cy="232" r="40" transform="translate(-1.07 4.51) rotate(-0.27)"/><circle class="cls-4" cx="969" cy="232" r="8.66" transform="translate(-1.07 4.51) rotate(-0.27)"/></g><g id="marker-cau"><circle class="cls-3" cx="549" cy="735" r="40"/><circle class="cls-4" cx="549" cy="735" r="8.66"/></g><rect class="cls-5" x="519.24" y="164.85" width="115.76" height="38.08"/><text class="cls-6" transform="translate(527.81 191.69)">VIETNAM</text><rect class="cls-5" x="1092.24" y="69.85" width="89.76" height="38.08"/><text class="cls-6" transform="translate(1102.32 96.69)">CHINA</text><g id="legend"><rect class="cls-7" x="918" y="171" width="117" height="17"/><text class="cls-8" transform="translate(918.11 185.59)">MÓNG CÁI</text></g><g id="cau-text"><rect class="cls-7" x="414" y="791" width="268" height="17"/><text class="cls-8" transform="translate(414.19 808.26)">CAU TREO BORDER PASS</text></g><g id="circles"><g class="cls-9"><circle class="cls-10" cx="970.57" cy="219.85" r="14.01"/><circle class="cls-10" cx="954.23" cy="211.09" r="16.34"/><circle class="cls-10" cx="934.97" cy="229.19" r="12.84"/><circle class="cls-10" cx="888.28" cy="243.19" r="5.25"/><circle class="cls-10" cx="875.44" cy="290.46" r="5.25"/><circle class="cls-10" cx="771.56" cy="312.64" r="5.25"/><circle class="cls-10" cx="664.77" cy="294.55" r="4.09"/><circle class="cls-10" cx="653.68" cy="321.98" r="17.51"/><circle class="cls-10" cx="604.07" cy="401.93" r="22.18"/><circle class="cls-10" cx="661.27" cy="434.03" r="8.75"/><circle class="cls-10" cx="665.93" cy="466.71" r="11.67"/><circle class="cls-10" cx="640.84" cy="493.55" r="11.67"/><circle class="cls-10" cx="635" cy="508.14" r="8.75"/><circle class="cls-10" cx="607.58" cy="638.87" r="4.09"/><circle class="cls-10" cx="525.29" cy="640.03" r="5.25"/><circle class="cls-10" cx="616.91" cy="680.3" r="4.67"/><circle class="cls-10" cx="707.37" cy="770.76" r="4.67"/><circle class="cls-10" cx="604.66" cy="705.98" r="4.67"/><circle class="cls-10" cx="614.58" cy="712.98" r="14.59"/><circle class="cls-10" cx="587.15" cy="708.31" r="11.09"/><circle class="cls-10" cx="563.22" cy="713.57" r="8.75"/><circle class="cls-10" cx="539.3" cy="729.32" r="8.75"/><circle class="cls-10" cx="550.38" cy="722.32" r="16.34"/><circle class="cls-10" cx="614.58" cy="757.92" r="8.17"/><circle class="cls-10" cx="842.76" cy="312.64" r="4.67"/><circle class="cls-10" cx="829.92" cy="311.47" r="14.59"/><circle class="cls-10" cx="773.32" cy="328.4" r="17.51"/></g><g class="cls-11"><circle class="cls-12" cx="710.29" cy="261.87" r="5.25"/><circle class="cls-12" cx="638.51" cy="268.87" r="9.34"/><circle class="cls-12" cx="614.58" cy="756.17" r="8.17"/><circle class="cls-12" cx="658.35" cy="362.24" r="4.67"/><circle class="cls-12" cx="828.17" cy="307.39" r="14.59"/><circle class="cls-12" cx="806" cy="337.73" r="11.67"/><circle class="cls-12" cx="897.04" cy="205.84" r="19.84"/></g></g><g id="legend-2" data-name="legend"><path class="cls-13" d="M912.93,529.83l4.46-1.81-4.46-2v-2.14l7.27,3.64v1.24L912.93,532Z"/><path class="cls-13" d="M927.52,533.23h-2.88v-5.57c0-.67,0-1.29,0-1.85a6.85,6.85,0,0,1-.66.67l-1.2,1-1.47-1.81,3.61-2.95h2.56Z"/><path class="cls-13" d="M937.49,528a7,7,0,0,1-.94,4.09,3.29,3.29,0,0,1-2.86,1.29,3.25,3.25,0,0,1-2.84-1.35,7,7,0,0,1-1-4,7.14,7.14,0,0,1,.94-4.12,3.7,3.7,0,0,1,5.7.06A7.05,7.05,0,0,1,937.49,528Zm-4.77,0a9,9,0,0,0,.22,2.45c.15.44.4.67.75.67s.61-.23.75-.69a9,9,0,0,0,.22-2.43,9.09,9.09,0,0,0-.22-2.45c-.15-.47-.4-.7-.75-.7s-.6.22-.75.67A9.16,9.16,0,0,0,932.72,528Z"/><path class="cls-13" d="M946.12,528a7,7,0,0,1-.94,4.09,3.29,3.29,0,0,1-2.86,1.29,3.25,3.25,0,0,1-2.84-1.35,7,7,0,0,1-1-4,7.14,7.14,0,0,1,.94-4.12,3.7,3.7,0,0,1,5.7.06A7.05,7.05,0,0,1,946.12,528Zm-4.77,0a9,9,0,0,0,.22,2.45c.15.44.4.67.75.67s.61-.23.75-.69a9,9,0,0,0,.22-2.43,9.09,9.09,0,0,0-.22-2.45c-.15-.47-.4-.7-.75-.7s-.6.22-.75.67A9.16,9.16,0,0,0,941.35,528Z"/><path class="cls-13" d="M954.75,528a7,7,0,0,1-.94,4.09,3.29,3.29,0,0,1-2.86,1.29,3.25,3.25,0,0,1-2.84-1.35,7,7,0,0,1-1-4,7.14,7.14,0,0,1,.94-4.12,3.7,3.7,0,0,1,5.7.06A7.05,7.05,0,0,1,954.75,528ZM950,528a9,9,0,0,0,.22,2.45c.15.44.4.67.75.67s.61-.23.75-.69a9,9,0,0,0,.22-2.43,9.09,9.09,0,0,0-.22-2.45c-.15-.47-.4-.7-.75-.7s-.6.22-.75.67A9.16,9.16,0,0,0,950,528Z"/><path class="cls-13" d="M912.93,578.82l4.46-1.82-4.46-2v-2.14l7.27,3.64v1.24l-7.27,3.23Z"/><path class="cls-13" d="M928.81,582.22h-7.63v-1.87l2.57-2.6c.73-.76,1.21-1.29,1.44-1.57a3.31,3.31,0,0,0,.47-.72,1.51,1.51,0,0,0,.13-.63.84.84,0,0,0-.26-.65,1.09,1.09,0,0,0-.75-.24,2,2,0,0,0-1,.29,6.57,6.57,0,0,0-1.15.83l-1.56-1.82a8.5,8.5,0,0,1,1.36-1,4.93,4.93,0,0,1,1.21-.48,5.91,5.91,0,0,1,1.46-.17,4.46,4.46,0,0,1,1.83.36,2.81,2.81,0,0,1,1.24,1,2.58,2.58,0,0,1,.44,1.49,4.14,4.14,0,0,1-.15,1.14,3.88,3.88,0,0,1-.48,1,7.42,7.42,0,0,1-.86,1.06q-.54.57-2.28,2.13v.07h4Z"/><path class="cls-13" d="M937.49,577a7,7,0,0,1-.94,4.08,3.73,3.73,0,0,1-5.7,0,7,7,0,0,1-1-4,7.14,7.14,0,0,1,.94-4.12,3.7,3.7,0,0,1,5.7.06A7.05,7.05,0,0,1,937.49,577Zm-4.77,0a9,9,0,0,0,.22,2.45c.15.44.4.67.75.67s.61-.23.75-.69a9,9,0,0,0,.22-2.43,9.09,9.09,0,0,0-.22-2.45c-.15-.47-.4-.7-.75-.7s-.6.22-.75.67A9.16,9.16,0,0,0,932.72,577Z"/><path class="cls-13" d="M946.12,577a7,7,0,0,1-.94,4.08,3.73,3.73,0,0,1-5.7,0,7,7,0,0,1-1-4,7.14,7.14,0,0,1,.94-4.12,3.7,3.7,0,0,1,5.7.06A7.05,7.05,0,0,1,946.12,577Zm-4.77,0a9,9,0,0,0,.22,2.45c.15.44.4.67.75.67s.61-.23.75-.69a9,9,0,0,0,.22-2.43,9.09,9.09,0,0,0-.22-2.45c-.15-.47-.4-.7-.75-.7s-.6.22-.75.67A9.16,9.16,0,0,0,941.35,577Z"/><path class="cls-13" d="M946.94,579.39v-2.24H951v2.24Z"/><path class="cls-13" d="M958.09,582.22h-2.88v-5.57c0-.67,0-1.29,0-1.85a6.85,6.85,0,0,1-.66.67l-1.19,1-1.48-1.81,3.61-2.95h2.56Z"/><path class="cls-13" d="M968.06,577a7.06,7.06,0,0,1-.93,4.08,3.3,3.3,0,0,1-2.87,1.3,3.26,3.26,0,0,1-2.84-1.35,7,7,0,0,1-.95-4,7.23,7.23,0,0,1,.93-4.12,3.7,3.7,0,0,1,5.7.06A7.05,7.05,0,0,1,968.06,577Zm-4.77,0a9.37,9.37,0,0,0,.22,2.45c.15.44.4.67.75.67s.61-.23.75-.69a9,9,0,0,0,.22-2.43,9.09,9.09,0,0,0-.22-2.45c-.15-.47-.4-.7-.75-.7s-.6.22-.75.67A9.59,9.59,0,0,0,963.29,577Z"/><path class="cls-13" d="M976.69,577a7.06,7.06,0,0,1-.93,4.08,3.3,3.3,0,0,1-2.87,1.3,3.26,3.26,0,0,1-2.84-1.35,7.07,7.07,0,0,1-.95-4,7.23,7.23,0,0,1,.93-4.12,3.7,3.7,0,0,1,5.7.06A7.05,7.05,0,0,1,976.69,577Zm-4.77,0a8.83,8.83,0,0,0,.23,2.45c.14.44.39.67.74.67s.61-.23.75-.69a9,9,0,0,0,.22-2.43,9.09,9.09,0,0,0-.22-2.45c-.15-.47-.4-.7-.75-.7s-.6.22-.74.67A9,9,0,0,0,971.92,577Z"/><path class="cls-13" d="M985.32,577a7.06,7.06,0,0,1-.93,4.08,3.3,3.3,0,0,1-2.87,1.3,3.26,3.26,0,0,1-2.84-1.35,7.07,7.07,0,0,1-.95-4,7.23,7.23,0,0,1,.93-4.12,3.7,3.7,0,0,1,5.7.06A7.05,7.05,0,0,1,985.32,577Zm-4.77,0a8.83,8.83,0,0,0,.23,2.45c.14.44.39.67.74.67s.61-.23.75-.69a9,9,0,0,0,.22-2.43,9.09,9.09,0,0,0-.22-2.45c-.15-.47-.4-.7-.75-.7s-.6.22-.74.67A9,9,0,0,0,980.55,577Z"/><path class="cls-13" d="M912.93,618.59l4.46-1.82-4.46-2V612.6l7.27,3.64v1.24l-7.27,3.23Z"/><path class="cls-13" d="M927.52,622h-2.88v-5.57c0-.68,0-1.29,0-1.85a6.85,6.85,0,0,1-.66.67l-1.2,1-1.47-1.82,3.61-2.94h2.56Z"/><path class="cls-13" d="M937.49,616.74a7,7,0,0,1-.94,4.09,3.73,3.73,0,0,1-5.7-.05,7,7,0,0,1-1-4,7.09,7.09,0,0,1,.94-4.11,3.71,3.71,0,0,1,5.7,0A7.08,7.08,0,0,1,937.49,616.74Zm-4.77,0a9,9,0,0,0,.22,2.46c.15.44.4.67.75.67s.61-.23.75-.69a13.64,13.64,0,0,0,0-4.88c-.15-.47-.4-.71-.75-.71s-.6.23-.75.68A9.12,9.12,0,0,0,932.72,616.74Z"/><path class="cls-13" d="M946.12,616.74a7,7,0,0,1-.94,4.09,3.73,3.73,0,0,1-5.7-.05,7,7,0,0,1-1-4,7.09,7.09,0,0,1,.94-4.11,3.71,3.71,0,0,1,5.7,0A7.08,7.08,0,0,1,946.12,616.74Zm-4.77,0a9,9,0,0,0,.22,2.46c.15.44.4.67.75.67s.61-.23.75-.69a13.64,13.64,0,0,0,0-4.88c-.15-.47-.4-.71-.75-.71s-.6.23-.75.68A9.12,9.12,0,0,0,941.35,616.74Z"/><path class="cls-13" d="M946.94,619.16v-2.24H951v2.24Z"/><path class="cls-13" d="M959.39,622h-7.63v-1.87l2.56-2.6c.74-.77,1.22-1.29,1.44-1.57a3.31,3.31,0,0,0,.47-.72,1.57,1.57,0,0,0,.14-.64.8.8,0,0,0-.27-.64,1.09,1.09,0,0,0-.75-.24,2,2,0,0,0-1,.28,7.28,7.28,0,0,0-1.15.84L951.64,613a7.93,7.93,0,0,1,1.37-1,4.86,4.86,0,0,1,1.2-.48,6,6,0,0,1,1.47-.17,4.41,4.41,0,0,1,1.82.36,2.81,2.81,0,0,1,1.24,1,2.59,2.59,0,0,1,.45,1.49,4.13,4.13,0,0,1-.16,1.14,3.69,3.69,0,0,1-.48,1,6.39,6.39,0,0,1-.86,1.07c-.35.38-1.12,1.09-2.28,2.13v.07h4Z"/><path class="cls-13" d="M968.06,616.74a7.1,7.1,0,0,1-.93,4.09,3.3,3.3,0,0,1-2.87,1.3,3.26,3.26,0,0,1-2.84-1.35,7,7,0,0,1-.95-4,7.17,7.17,0,0,1,.93-4.11,3.71,3.71,0,0,1,5.7,0A7.08,7.08,0,0,1,968.06,616.74Zm-4.77,0a9.46,9.46,0,0,0,.22,2.46c.15.44.4.67.75.67s.61-.23.75-.69a13.64,13.64,0,0,0,0-4.88c-.15-.47-.4-.71-.75-.71s-.6.23-.75.68A9.56,9.56,0,0,0,963.29,616.74Z"/><path class="cls-13" d="M976.69,616.74a7.1,7.1,0,0,1-.93,4.09,3.3,3.3,0,0,1-2.87,1.3,3.26,3.26,0,0,1-2.84-1.35,7.09,7.09,0,0,1-.95-4,7.17,7.17,0,0,1,.93-4.11,3.71,3.71,0,0,1,5.7,0A7.08,7.08,0,0,1,976.69,616.74Zm-4.77,0a8.92,8.92,0,0,0,.23,2.46c.14.44.39.67.74.67s.61-.23.75-.69a13.64,13.64,0,0,0,0-4.88c-.15-.47-.4-.71-.75-.71s-.6.23-.74.68A9,9,0,0,0,971.92,616.74Z"/><path class="cls-13" d="M912.93,652.59l4.46-1.81-4.46-2v-2.13l7.27,3.64v1.23l-7.27,3.23Z"/><path class="cls-13" d="M928.81,656h-7.63v-1.87l2.57-2.59c.73-.77,1.21-1.3,1.44-1.58a3.31,3.31,0,0,0,.47-.72,1.51,1.51,0,0,0,.13-.63.86.86,0,0,0-.26-.65,1.09,1.09,0,0,0-.75-.24,2,2,0,0,0-1,.29,7.28,7.28,0,0,0-1.15.84L921.07,647a8.5,8.5,0,0,1,1.36-1,4.93,4.93,0,0,1,1.21-.48,5.93,5.93,0,0,1,1.46-.16,4.46,4.46,0,0,1,1.83.36,2.86,2.86,0,0,1,1.24,1,2.58,2.58,0,0,1,.44,1.49,4.16,4.16,0,0,1-.15,1.15,3.83,3.83,0,0,1-.48,1,7.46,7.46,0,0,1-.86,1.07q-.54.56-2.28,2.13v.07h4Z"/><path class="cls-13" d="M937.49,650.75a7,7,0,0,1-.94,4.09,3.72,3.72,0,0,1-5.7-.06,7,7,0,0,1-1-4,7.09,7.09,0,0,1,.94-4.11,3.71,3.71,0,0,1,5.7.05A7.05,7.05,0,0,1,937.49,650.75Zm-4.77,0a8.9,8.9,0,0,0,.22,2.45c.15.45.4.67.75.67s.61-.23.75-.69a9,9,0,0,0,.22-2.43,9.14,9.14,0,0,0-.22-2.45c-.15-.47-.4-.7-.75-.7s-.6.22-.75.67A9.21,9.21,0,0,0,932.72,650.75Z"/><path class="cls-13" d="M938.31,653.17v-2.25h4.07v2.25Z"/><path class="cls-13" d="M949.46,656h-2.88v-5.56c0-.68,0-1.3,0-1.86a6.87,6.87,0,0,1-.66.68l-1.19,1-1.48-1.81,3.61-2.94h2.56Z"/><path class="cls-13" d="M959.43,650.75a7.12,7.12,0,0,1-.93,4.09,3.32,3.32,0,0,1-2.87,1.3,3.27,3.27,0,0,1-2.84-1.36,7,7,0,0,1-.95-4,7.17,7.17,0,0,1,.93-4.11,3.71,3.71,0,0,1,5.7.05A7.05,7.05,0,0,1,959.43,650.75Zm-4.77,0a9.32,9.32,0,0,0,.22,2.45c.15.45.4.67.75.67s.61-.23.75-.69a9,9,0,0,0,.22-2.43,9.14,9.14,0,0,0-.22-2.45c-.15-.47-.4-.7-.75-.7s-.6.22-.75.67A9.65,9.65,0,0,0,954.66,650.75Z"/><path class="cls-13" d="M968.06,650.75a7.12,7.12,0,0,1-.93,4.09,3.32,3.32,0,0,1-2.87,1.3,3.27,3.27,0,0,1-2.84-1.36,7,7,0,0,1-.95-4,7.17,7.17,0,0,1,.93-4.11,3.71,3.71,0,0,1,5.7.05A7.05,7.05,0,0,1,968.06,650.75Zm-4.77,0a9.32,9.32,0,0,0,.22,2.45c.15.45.4.67.75.67s.61-.23.75-.69a9,9,0,0,0,.22-2.43,9.14,9.14,0,0,0-.22-2.45c-.15-.47-.4-.7-.75-.7s-.6.22-.75.67A9.65,9.65,0,0,0,963.29,650.75Z"/><path class="cls-13" d="M912.93,682.56l4.46-1.81-4.46-2v-2.13l7.27,3.64v1.23l-7.27,3.23Z"/><path class="cls-13" d="M927.52,686h-2.88V680.4c0-.68,0-1.3,0-1.86a6.87,6.87,0,0,1-.66.68l-1.2,1-1.47-1.81,3.61-2.94h2.56Z"/><path class="cls-13" d="M929.68,683.14v-2.25h4.07v2.25Z"/><path class="cls-13" d="M942.13,686H934.5v-1.87l2.56-2.59c.74-.77,1.22-1.3,1.44-1.58a3.31,3.31,0,0,0,.47-.72,1.52,1.52,0,0,0,.14-.63.83.83,0,0,0-.27-.65,1.09,1.09,0,0,0-.75-.24,2,2,0,0,0-1,.29,7.28,7.28,0,0,0-1.15.84L934.38,677a8.66,8.66,0,0,1,1.37-1,4.86,4.86,0,0,1,1.2-.48,6,6,0,0,1,1.47-.16,4.41,4.41,0,0,1,1.82.36,2.86,2.86,0,0,1,1.24,1,2.59,2.59,0,0,1,.45,1.49,4.15,4.15,0,0,1-.16,1.15,3.83,3.83,0,0,1-.48,1,6.82,6.82,0,0,1-.86,1.07c-.35.37-1.12,1.08-2.28,2.13v.07h4Z"/><path class="cls-13" d="M950.8,680.72a7,7,0,0,1-.94,4.09,3.72,3.72,0,0,1-5.7-.06,7,7,0,0,1-.95-4,7.17,7.17,0,0,1,.93-4.11,3.71,3.71,0,0,1,5.7,0A7.05,7.05,0,0,1,950.8,680.72Zm-4.77,0a9.32,9.32,0,0,0,.22,2.45c.15.45.4.67.75.67s.61-.23.75-.69a9,9,0,0,0,.22-2.43,9.14,9.14,0,0,0-.22-2.45c-.15-.47-.4-.7-.75-.7s-.6.22-.75.68A9.5,9.5,0,0,0,946,680.72Z"/><circle class="cls-14" cx="879.49" cy="528.17" r="21.9"/><circle class="cls-14" cx="879.49" cy="577.74" r="17.29"/><circle class="cls-14" cx="879.49" cy="650.93" r="9.22"/><circle class="cls-14" cx="879.49" cy="616.93" r="13.83"/><circle class="cls-15" cx="879.49" cy="683.21" r="5.19"/><circle class="cls-16" cx="823.58" cy="528.17" r="21.9"/><circle class="cls-16" cx="823.58" cy="577.74" r="17.29"/><circle class="cls-16" cx="823.58" cy="650.93" r="9.22"/><circle class="cls-16" cx="823.58" cy="616.93" r="13.83"/><circle class="cls-17" cx="823.58" cy="683.21" r="5.19"/><path class="cls-13" d="M860.51,431.82a3.14,3.14,0,0,1-.5,1.74,3.3,3.3,0,0,1-1.43,1.18,5.36,5.36,0,0,1-2.2.42,8.74,8.74,0,0,1-1.76-.15,6.86,6.86,0,0,1-1.48-.51V432a8.71,8.71,0,0,0,1.69.66,6.57,6.57,0,0,0,1.61.23,1.56,1.56,0,0,0,.93-.22.66.66,0,0,0,.29-.56.68.68,0,0,0-.11-.38,1.34,1.34,0,0,0-.39-.33c-.17-.11-.64-.33-1.39-.68a6.9,6.9,0,0,1-1.55-.9,2.84,2.84,0,0,1-.76-1,3.44,3.44,0,0,1-.25-1.34,2.69,2.69,0,0,1,1.06-2.27,4.66,4.66,0,0,1,2.91-.81,8.26,8.26,0,0,1,3.33.75l-.88,2.2a6.31,6.31,0,0,0-2.54-.68,1.34,1.34,0,0,0-.81.2.59.59,0,0,0-.25.48.7.7,0,0,0,.32.55,12.64,12.64,0,0,0,1.74.89,4.93,4.93,0,0,1,1.89,1.32A2.83,2.83,0,0,1,860.51,431.82Z"/><path class="cls-13" d="M868.37,435h-6.24V424.5h6.24v2.28H865v1.65h3.15v2.28H865v2h3.4Z"/><path class="cls-13" d="M870.21,435V424.5h2.86V435Z"/><path class="cls-13" d="M882.84,435h-8.2v-1.75l4.56-6.47h-4.45V424.5h8v1.75l-4.55,6.47h4.67Z"/><path class="cls-13" d="M893.28,424.5v6.33a4.27,4.27,0,0,1-1.17,3.2,4.67,4.67,0,0,1-3.37,1.13,4.61,4.61,0,0,1-3.3-1.1,4.18,4.18,0,0,1-1.16-3.17V424.5h2.86v6.17a2.6,2.6,0,0,0,.41,1.62,1.81,1.81,0,0,0,2.5,0,2.67,2.67,0,0,0,.39-1.63V424.5Z"/><path class="cls-13" d="M898.33,431.19V435h-2.84V424.5h3.44q4.29,0,4.29,3.11a3.1,3.1,0,0,1-1.79,2.82L904.5,435h-3.22l-2.23-3.82Zm0-2.14h.53c1,0,1.49-.44,1.49-1.31s-.49-1.09-1.46-1.09h-.56Z"/><path class="cls-13" d="M911.7,435h-6.25V424.5h6.25v2.28h-3.41v1.65h3.15v2.28h-3.15v2h3.41Z"/><path class="cls-13" d="M920.41,431.82a3.13,3.13,0,0,1-.49,1.74,3.3,3.3,0,0,1-1.43,1.18,5.36,5.36,0,0,1-2.2.42,8.67,8.67,0,0,1-1.76-.15,6.86,6.86,0,0,1-1.48-.51V432a8.47,8.47,0,0,0,1.69.66,6.5,6.5,0,0,0,1.61.23,1.56,1.56,0,0,0,.93-.22.68.68,0,0,0,.29-.56.62.62,0,0,0-.12-.38,1.28,1.28,0,0,0-.38-.33c-.17-.11-.64-.33-1.4-.68a6.79,6.79,0,0,1-1.54-.9,2.73,2.73,0,0,1-.76-1,3.27,3.27,0,0,1-.25-1.34,2.69,2.69,0,0,1,1.06-2.27,4.65,4.65,0,0,1,2.9-.81,8.19,8.19,0,0,1,3.33.75l-.87,2.2a6.31,6.31,0,0,0-2.54-.68,1.34,1.34,0,0,0-.81.2.57.57,0,0,0-.25.48.7.7,0,0,0,.32.55,12,12,0,0,0,1.74.89,4.8,4.8,0,0,1,1.88,1.32A2.77,2.77,0,0,1,920.41,431.82Z"/><path class="cls-13" d="M935.7,429.74a5.67,5.67,0,0,1-1.3,4,5.91,5.91,0,0,1-7.6,0,5.65,5.65,0,0,1-1.32-4,5.58,5.58,0,0,1,1.31-4,5.93,5.93,0,0,1,7.62,0A5.67,5.67,0,0,1,935.7,429.74Zm-7.23,0c0,2,.71,3.05,2.12,3.05a1.81,1.81,0,0,0,1.6-.74,5.37,5.37,0,0,0,0-4.63,1.79,1.79,0,0,0-1.58-.76C929.18,426.66,928.47,427.69,928.47,429.74Z"/><path class="cls-13" d="M940.4,435h-2.8V424.5h6.22v2.28H940.4v2h3.15v2.28H940.4Z"/><path class="cls-13" d="M952.17,435h-2.8V424.5h6.21v2.28h-3.41v2h3.15v2.28h-3.15Z"/><path class="cls-13" d="M960.15,431.19V435h-2.84V424.5h3.44q4.29,0,4.29,3.11a3.11,3.11,0,0,1-1.78,2.82l3.06,4.58H963.1l-2.23-3.82Zm0-2.14h.53c1,0,1.49-.44,1.49-1.31s-.49-1.09-1.46-1.09h-.56Z"/><path class="cls-13" d="M977.11,429.74a5.67,5.67,0,0,1-1.3,4,5.91,5.91,0,0,1-7.6,0,5.65,5.65,0,0,1-1.32-4,5.58,5.58,0,0,1,1.31-4,5,5,0,0,1,3.82-1.39,5,5,0,0,1,3.8,1.38A5.67,5.67,0,0,1,977.11,429.74Zm-7.23,0c0,2,.71,3.05,2.12,3.05a1.81,1.81,0,0,0,1.6-.74,5.37,5.37,0,0,0,0-4.63,1.78,1.78,0,0,0-1.57-.76C970.59,426.66,969.88,427.69,969.88,429.74Z"/><path class="cls-13" d="M986.51,435h-8.19v-1.75l4.55-6.47h-4.45V424.5h8v1.75l-4.55,6.47h4.67Z"/><path class="cls-13" d="M994.25,435H988V424.5h6.24v2.28h-3.4v1.65H994v2.28h-3.15v2h3.4Z"/><path class="cls-13" d="M1006.1,435h-3.72l-3.84-7.4h-.07c.09,1.16.14,2.05.14,2.66V435h-2.52V424.5h3.71l3.83,7.31h0c-.06-1.06-.1-1.91-.1-2.56V424.5h2.53Z"/><path class="cls-13" d="M1019.83,427.84a3.51,3.51,0,0,1-1,2.73,4.17,4.17,0,0,1-2.95,1h-.8V435h-2.84V424.5h3.64a4.43,4.43,0,0,1,3,.87A3.08,3.08,0,0,1,1019.83,427.84Zm-4.79,1.37h.52a1.41,1.41,0,0,0,1-.36,1.31,1.31,0,0,0,.38-1c0-.71-.4-1.07-1.18-1.07H1015Z"/><path class="cls-13" d="M1028,435l-.52-2H1024l-.54,2h-3.12l3.43-10.55h3.79l3.48,10.55Zm-1.11-4.3-.45-1.72c-.11-.39-.23-.88-.39-1.49s-.25-1.05-.29-1.31c0,.24-.13.65-.26,1.21s-.41,1.66-.84,3.31Z"/><path class="cls-13" d="M1042.21,435h-3.72l-3.84-7.4h-.07c.1,1.16.14,2.05.14,2.66V435h-2.52V424.5h3.71l3.83,7.31h0c-.06-1.06-.1-1.91-.1-2.56V424.5h2.53Z"/><path class="cls-13" d="M1048.71,428.86h4.54v5.67a12.59,12.59,0,0,1-4.07.63,4.89,4.89,0,0,1-3.75-1.41,5.62,5.62,0,0,1-1.33-4,5.26,5.26,0,0,1,1.45-4,5.57,5.57,0,0,1,4.07-1.42,8.75,8.75,0,0,1,1.88.19,7.9,7.9,0,0,1,1.53.47l-.9,2.23a5.62,5.62,0,0,0-2.49-.56,2.39,2.39,0,0,0-1.93.81,3.52,3.52,0,0,0-.68,2.31,3.57,3.57,0,0,0,.62,2.25,2.14,2.14,0,0,0,1.77.77,5.39,5.39,0,0,0,1.17-.12v-1.65h-1.88Z"/><path class="cls-13" d="M1065.23,429.74a5.72,5.72,0,0,1-1.3,4,5.92,5.92,0,0,1-7.61,0,6.82,6.82,0,0,1,0-8,5,5,0,0,1,3.82-1.39,5,5,0,0,1,3.8,1.38A5.63,5.63,0,0,1,1065.23,429.74Zm-7.24,0c0,2,.71,3.05,2.12,3.05a1.83,1.83,0,0,0,1.61-.74,5.37,5.37,0,0,0,0-4.63,1.79,1.79,0,0,0-1.58-.76C1058.7,426.66,1058,427.69,1058,429.74Z"/><path class="cls-13" d="M1067.13,435V424.5H1070v8.22h4V435Z"/><path class="cls-13" d="M1075.7,435V424.5h2.86V435Z"/><path class="cls-13" d="M1090.84,435h-3.73l-3.84-7.4h-.06c.09,1.16.13,2.05.13,2.66V435h-2.51V424.5h3.71l3.82,7.31h.05c-.07-1.06-.1-1.91-.1-2.56V424.5h2.53Z"/><path class="cls-13" d="M1100,431.82a3.14,3.14,0,0,1-.5,1.74,3.3,3.3,0,0,1-1.43,1.18,5.28,5.28,0,0,1-2.19.42,8.85,8.85,0,0,1-1.77-.15,7,7,0,0,1-1.48-.51V432a8.71,8.71,0,0,0,1.69.66,6.57,6.57,0,0,0,1.61.23,1.56,1.56,0,0,0,.93-.22.67.67,0,0,0,.3-.56.62.62,0,0,0-.12-.38,1.43,1.43,0,0,0-.38-.33c-.18-.11-.65-.33-1.4-.68a6.9,6.9,0,0,1-1.55-.9,2.84,2.84,0,0,1-.76-1,3.44,3.44,0,0,1-.25-1.34,2.71,2.71,0,0,1,1.06-2.27,4.68,4.68,0,0,1,2.91-.81,8.19,8.19,0,0,1,3.33.75l-.87,2.2a6.35,6.35,0,0,0-2.55-.68,1.34,1.34,0,0,0-.81.2.59.59,0,0,0-.25.48.7.7,0,0,0,.32.55,13.32,13.32,0,0,0,1.74.89,4.77,4.77,0,0,1,1.89,1.32A2.83,2.83,0,0,1,1100,431.82Z"/><path class="cls-13" d="M1115.28,429.74a5.72,5.72,0,0,1-1.3,4,5.92,5.92,0,0,1-7.61,0,6.82,6.82,0,0,1,0-8,5,5,0,0,1,3.82-1.39,5,5,0,0,1,3.8,1.38A5.63,5.63,0,0,1,1115.28,429.74Zm-7.24,0c0,2,.71,3.05,2.12,3.05a1.8,1.8,0,0,0,1.6-.74,4,4,0,0,0,.52-2.31,4.08,4.08,0,0,0-.52-2.32,1.8,1.8,0,0,0-1.58-.76C1108.75,426.66,1108,427.69,1108,429.74Z"/><path class="cls-13" d="M1120,431.19V435h-2.84V424.5h3.44q4.29,0,4.29,3.11a3.1,3.1,0,0,1-1.79,2.82l3.07,4.58H1123l-2.23-3.82Zm0-2.14h.53c1,0,1.49-.44,1.49-1.31s-.49-1.09-1.46-1.09H1120Z"/><path class="cls-13" d="M1137.85,431.82a3.14,3.14,0,0,1-.5,1.74,3.3,3.3,0,0,1-1.43,1.18,5.36,5.36,0,0,1-2.2.42A8.74,8.74,0,0,1,1132,435a6.86,6.86,0,0,1-1.48-.51V432a8.71,8.71,0,0,0,1.69.66,6.57,6.57,0,0,0,1.61.23,1.56,1.56,0,0,0,.93-.22.66.66,0,0,0,.29-.56.68.68,0,0,0-.11-.38,1.34,1.34,0,0,0-.39-.33c-.17-.11-.64-.33-1.39-.68a6.9,6.9,0,0,1-1.55-.9,2.84,2.84,0,0,1-.76-1,3.44,3.44,0,0,1-.25-1.34,2.69,2.69,0,0,1,1.06-2.27,4.66,4.66,0,0,1,2.91-.81,8.26,8.26,0,0,1,3.33.75l-.88,2.2a6.31,6.31,0,0,0-2.54-.68,1.34,1.34,0,0,0-.81.2.59.59,0,0,0-.25.48.7.7,0,0,0,.32.55,12.64,12.64,0,0,0,1.74.89,4.93,4.93,0,0,1,1.89,1.32A2.83,2.83,0,0,1,1137.85,431.82Z"/><path class="cls-13" d="M1144.15,426.68a1.82,1.82,0,0,0-1.58.83,4,4,0,0,0-.57,2.29c0,2,.77,3,2.31,3a4.69,4.69,0,0,0,1.35-.2,11.59,11.59,0,0,0,1.32-.47v2.41a7.44,7.44,0,0,1-3,.58,4.71,4.71,0,0,1-3.65-1.38,5.67,5.67,0,0,1-1.27-4,6.35,6.35,0,0,1,.62-2.87,4.42,4.42,0,0,1,1.77-1.91,5.36,5.36,0,0,1,2.71-.66,7.54,7.54,0,0,1,3.26.74l-.87,2.24a8.1,8.1,0,0,0-1.17-.46A3.9,3.9,0,0,0,1144.15,426.68Z"/><path class="cls-13" d="M1155.48,435l-.52-2h-3.42l-.53,2h-3.12l3.43-10.55h3.79l3.48,10.55Zm-1.11-4.3-.45-1.72c-.11-.39-.24-.88-.39-1.49s-.25-1.05-.3-1.31c0,.24-.12.65-.25,1.21s-.41,1.66-.85,3.31Z"/><path class="cls-13" d="M1159.72,435V424.5h2.84v8.22h4V435Z"/><path class="cls-13" d="M1174.54,435h-6.25V424.5h6.25v2.28h-3.4v1.65h3.15v2.28h-3.15v2h3.4Z"/><path class="cls-13" d="M1183.25,431.82a3.13,3.13,0,0,1-.49,1.74,3.3,3.3,0,0,1-1.43,1.18,5.36,5.36,0,0,1-2.2.42,8.74,8.74,0,0,1-1.76-.15,6.86,6.86,0,0,1-1.48-.51V432a8.47,8.47,0,0,0,1.69.66,6.5,6.5,0,0,0,1.61.23,1.56,1.56,0,0,0,.93-.22.68.68,0,0,0,.29-.56.62.62,0,0,0-.12-.38,1.17,1.17,0,0,0-.38-.33c-.17-.11-.64-.33-1.4-.68a6.79,6.79,0,0,1-1.54-.9,2.73,2.73,0,0,1-.76-1,3.27,3.27,0,0,1-.25-1.34,2.69,2.69,0,0,1,1.06-2.27,4.65,4.65,0,0,1,2.9-.81,8.19,8.19,0,0,1,3.33.75l-.87,2.2a6.31,6.31,0,0,0-2.54-.68,1.34,1.34,0,0,0-.81.2.57.57,0,0,0-.25.48.7.7,0,0,0,.32.55,12,12,0,0,0,1.74.89,4.93,4.93,0,0,1,1.89,1.32A2.83,2.83,0,0,1,1183.25,431.82Z"/><path class="cls-13" d="M861.27,474.09a3.07,3.07,0,0,1-.49,1.73,3.23,3.23,0,0,1-1.43,1.18,5.36,5.36,0,0,1-2.2.42,9.64,9.64,0,0,1-1.76-.14,6.41,6.41,0,0,1-1.48-.52v-2.53a7.87,7.87,0,0,0,1.69.65,6.1,6.1,0,0,0,1.61.24,1.63,1.63,0,0,0,.93-.22.7.7,0,0,0,.29-.57.64.64,0,0,0-.12-.38,1.29,1.29,0,0,0-.38-.32,14.41,14.41,0,0,0-1.4-.68A6.42,6.42,0,0,1,855,472a2.69,2.69,0,0,1-.76-1,3.29,3.29,0,0,1-.25-1.35,2.67,2.67,0,0,1,1.06-2.26,4.65,4.65,0,0,1,2.9-.82,8.21,8.21,0,0,1,3.33.76l-.87,2.19a6.28,6.28,0,0,0-2.54-.67,1.34,1.34,0,0,0-.81.19.58.58,0,0,0-.25.48.72.72,0,0,0,.32.56,12,12,0,0,0,1.74.89,4.79,4.79,0,0,1,1.88,1.31A2.82,2.82,0,0,1,861.27,474.09Z"/><path class="cls-13" d="M869.14,477.28H862.9V466.77h6.24v2.28h-3.4v1.65h3.15V473h-3.15v2h3.4Z"/><path class="cls-13" d="M871,477.28V466.77h2.86v10.51Z"/><path class="cls-13" d="M883.6,477.28h-8.19v-1.76l4.56-6.46h-4.45v-2.29h8v1.74L878.94,475h4.66Z"/><path class="cls-13" d="M894.05,466.77v6.32a4.24,4.24,0,0,1-1.17,3.2,5.56,5.56,0,0,1-6.68,0,4.16,4.16,0,0,1-1.15-3.16v-6.39h2.86v6.17a2.49,2.49,0,0,0,.41,1.61,1.79,1.79,0,0,0,2.49,0,2.63,2.63,0,0,0,.4-1.64v-6.15Z"/><path class="cls-13" d="M899.1,473.45v3.83h-2.85V466.77h3.45q4.29,0,4.29,3.1a3.12,3.12,0,0,1-1.79,2.83l3.07,4.58H902l-2.23-3.83Zm0-2.13h.53c1,0,1.49-.44,1.49-1.32,0-.72-.49-1.08-1.46-1.08h-.56Z"/><path class="cls-13" d="M912.46,477.28h-6.24V466.77h6.24v2.28h-3.4v1.65h3.15V473h-3.15v2h3.4Z"/><path class="cls-13" d="M921.18,474.09a3.07,3.07,0,0,1-.49,1.73,3.26,3.26,0,0,1-1.44,1.18,5.28,5.28,0,0,1-2.19.42,9.56,9.56,0,0,1-1.76-.14,6.25,6.25,0,0,1-1.48-.52v-2.53a7.87,7.87,0,0,0,1.69.65,6.1,6.1,0,0,0,1.61.24,1.63,1.63,0,0,0,.93-.22.7.7,0,0,0,.29-.57.64.64,0,0,0-.12-.38,1.44,1.44,0,0,0-.38-.32,14.41,14.41,0,0,0-1.4-.68,6.42,6.42,0,0,1-1.54-.91,2.69,2.69,0,0,1-.76-1,3.29,3.29,0,0,1-.25-1.35,2.67,2.67,0,0,1,1.06-2.26,4.65,4.65,0,0,1,2.9-.82,8.21,8.21,0,0,1,3.33.76l-.87,2.19a6.28,6.28,0,0,0-2.54-.67,1.34,1.34,0,0,0-.81.19.58.58,0,0,0-.25.48.69.69,0,0,0,.32.56,12,12,0,0,0,1.74.89,4.79,4.79,0,0,1,1.88,1.31A2.82,2.82,0,0,1,921.18,474.09Z"/><path class="cls-13" d="M936.47,472a5.65,5.65,0,0,1-1.3,4,5.94,5.94,0,0,1-7.61,0,5.67,5.67,0,0,1-1.31-4.05,5.6,5.6,0,0,1,1.31-4,6,6,0,0,1,7.62,0A5.7,5.7,0,0,1,936.47,472Zm-7.23,0c0,2,.7,3.05,2.12,3.05a1.83,1.83,0,0,0,1.6-.74,4.07,4.07,0,0,0,.52-2.31,4.11,4.11,0,0,0-.53-2.33,1.8,1.8,0,0,0-1.58-.75C930,468.93,929.24,470,929.24,472Z"/><path class="cls-13" d="M941.17,477.28h-2.8V466.77h6.21v2.28h-3.41v2h3.15v2.28h-3.15Z"/><path class="cls-13" d="M950.14,477.28V466.77H953V475h4v2.29Z"/><path class="cls-13" d="M958.71,477.28V466.77h2.85v10.51Z"/><path class="cls-13" d="M969.74,466.77h3.18l-3.45,10.51h-3.34l-3.43-10.51h3.19l1.43,5.32a16.16,16.16,0,0,1,.49,2.48c0-.34.1-.76.2-1.26s.19-.9.27-1.19Z"/><path class="cls-13" d="M980.3,477.28h-6.24V466.77h6.24v2.28h-3.4v1.65h3.15V473H976.9v2h3.4Z"/><path class="cls-13" d="M993.6,470.11a3.53,3.53,0,0,1-1,2.72,4.22,4.22,0,0,1-3,1h-.79v3.49H986V466.77h3.63a4.48,4.48,0,0,1,3,.87A3.11,3.11,0,0,1,993.6,470.11Zm-4.79,1.37h.51a1.41,1.41,0,0,0,1-.36,1.32,1.32,0,0,0,.38-1c0-.71-.39-1.06-1.18-1.06h-.73Z"/><path class="cls-13" d="M1001.72,477.28l-.51-2h-3.42l-.53,2h-3.12l3.43-10.56h3.79l3.47,10.56Zm-1.1-4.3-.46-1.73c-.1-.38-.23-.88-.38-1.49s-.25-1-.3-1.3c0,.24-.13.64-.26,1.2s-.41,1.67-.84,3.32Z"/><path class="cls-13" d="M1016,477.28h-3.73l-3.84-7.41h-.06c.09,1.17.13,2.06.13,2.67v4.74H1006V466.77h3.71l3.82,7.3h0c-.07-1.06-.1-1.91-.1-2.55v-4.75H1016Z"/><path class="cls-13" d="M1022.47,471.12H1027v5.67a12.53,12.53,0,0,1-4.06.63,4.91,4.91,0,0,1-3.76-1.41,5.62,5.62,0,0,1-1.33-4,5.33,5.33,0,0,1,1.45-4,5.62,5.62,0,0,1,4.08-1.42,9.33,9.33,0,0,1,1.87.19,7.47,7.47,0,0,1,1.53.48l-.89,2.23a5.5,5.5,0,0,0-2.5-.57,2.36,2.36,0,0,0-1.92.81,3.47,3.47,0,0,0-.68,2.32,3.52,3.52,0,0,0,.61,2.24,2.12,2.12,0,0,0,1.77.78,4.76,4.76,0,0,0,1.17-.13v-1.64h-1.88Z"/><path class="cls-13" d="M1039,472a5.65,5.65,0,0,1-1.3,4,5.94,5.94,0,0,1-7.61,0,5.68,5.68,0,0,1-1.32-4.05,5.6,5.6,0,0,1,1.32-4,6,6,0,0,1,7.62,0A5.7,5.7,0,0,1,1039,472Zm-7.23,0c0,2,.7,3.05,2.12,3.05a1.83,1.83,0,0,0,1.6-.74A4.07,4.07,0,0,0,1036,472a4.11,4.11,0,0,0-.53-2.33,1.8,1.8,0,0,0-1.58-.75C1032.47,468.93,1031.76,470,1031.76,472Z"/><path class="cls-13" d="M1040.89,477.28V466.77h2.84V475h4v2.29Z"/><path class="cls-13" d="M1049.46,477.28V466.77h2.86v10.51Z"/><path class="cls-13" d="M1064.6,477.28h-3.72l-3.84-7.41H1057c.09,1.17.14,2.06.14,2.67v4.74h-2.52V466.77h3.71l3.83,7.3h0c-.07-1.06-.1-1.91-.1-2.55v-4.75h2.53Z"/><path class="cls-13" d="M1073.75,474.09a3.08,3.08,0,0,1-.5,1.73,3.18,3.18,0,0,1-1.43,1.18,5.28,5.28,0,0,1-2.19.42,9.56,9.56,0,0,1-1.76-.14,6.25,6.25,0,0,1-1.48-.52v-2.53a7.87,7.87,0,0,0,1.69.65,6.1,6.1,0,0,0,1.61.24,1.57,1.57,0,0,0,.92-.22.69.69,0,0,0,.3-.57.64.64,0,0,0-.12-.38,1.62,1.62,0,0,0-.38-.32c-.18-.11-.64-.34-1.4-.68a6.42,6.42,0,0,1-1.54-.91,2.69,2.69,0,0,1-.76-1,3.29,3.29,0,0,1-.25-1.35,2.69,2.69,0,0,1,1-2.26,4.7,4.7,0,0,1,2.91-.82,8.21,8.21,0,0,1,3.33.76l-.87,2.19a6.28,6.28,0,0,0-2.55-.67,1.31,1.31,0,0,0-.8.19.58.58,0,0,0-.25.48.69.69,0,0,0,.32.56,12.27,12.27,0,0,0,1.73.89,4.77,4.77,0,0,1,1.89,1.31A2.88,2.88,0,0,1,1073.75,474.09Z"/><circle class="cls-16" cx="822.81" cy="429.42" r="14.22"/><circle class="cls-14" cx="822.81" cy="471.69" r="14.22"/><path d="M812.94,708.5a2.53,2.53,0,0,0-2,.84,3.39,3.39,0,0,0-.73,2.31,3.44,3.44,0,0,0,.71,2.33,2.5,2.5,0,0,0,2,.82,6.9,6.9,0,0,0,1.83-.29v.78a5.63,5.63,0,0,1-2,.3,3.3,3.3,0,0,1-2.61-1,4.2,4.2,0,0,1-.93-2.92,4.55,4.55,0,0,1,.45-2.08,3.11,3.11,0,0,1,1.28-1.38,3.89,3.89,0,0,1,2-.48,4.79,4.79,0,0,1,2.11.44l-.38.77A4,4,0,0,0,812.94,708.5Z"/><path d="M821.28,712.6a3.18,3.18,0,0,1-.71,2.2,2.49,2.49,0,0,1-2,.79,2.59,2.59,0,0,1-1.37-.36,2.42,2.42,0,0,1-.93-1,3.73,3.73,0,0,1-.32-1.59,3.17,3.17,0,0,1,.7-2.19,2.5,2.5,0,0,1,2-.78,2.43,2.43,0,0,1,1.92.8A3.19,3.19,0,0,1,821.28,712.6Zm-4.39,0a2.79,2.79,0,0,0,.44,1.69,1.77,1.77,0,0,0,2.6,0,2.72,2.72,0,0,0,.44-1.69,2.63,2.63,0,0,0-.44-1.66,1.56,1.56,0,0,0-1.31-.57,1.52,1.52,0,0,0-1.29.56A2.69,2.69,0,0,0,816.89,712.6Z"/><path d="M830.14,715.49v-3.75a1.53,1.53,0,0,0-.29-1,1.13,1.13,0,0,0-.91-.34,1.48,1.48,0,0,0-1.21.46,2.25,2.25,0,0,0-.39,1.44v3.22h-.87v-3.75a1.58,1.58,0,0,0-.29-1,1.14,1.14,0,0,0-.92-.34,1.41,1.41,0,0,0-1.2.49,2.61,2.61,0,0,0-.38,1.61v3h-.87v-5.76h.71l.14.79h0a1.72,1.72,0,0,1,.7-.66,2,2,0,0,1,1-.23,1.72,1.72,0,0,1,1.77,1h0a1.81,1.81,0,0,1,.74-.71,2.29,2.29,0,0,1,1.12-.26,1.92,1.92,0,0,1,1.46.5,2.25,2.25,0,0,1,.49,1.6v3.76Z"/><path d="M835.49,715.59a2.61,2.61,0,0,1-1-.2,1.92,1.92,0,0,1-.78-.64h-.07a8,8,0,0,1,.07,1v2.37h-.88v-8.34h.71l.12.79h.05a1.93,1.93,0,0,1,.78-.68,2.38,2.38,0,0,1,1-.21,2.13,2.13,0,0,1,1.77.78,4.18,4.18,0,0,1,0,4.4A2.14,2.14,0,0,1,835.49,715.59Zm-.12-5.22a1.53,1.53,0,0,0-1.28.49,2.46,2.46,0,0,0-.4,1.55v.19a2.9,2.9,0,0,0,.4,1.74,1.53,1.53,0,0,0,1.3.52,1.37,1.37,0,0,0,1.17-.6,2.88,2.88,0,0,0,.42-1.67,2.79,2.79,0,0,0-.42-1.65A1.41,1.41,0,0,0,835.37,710.37Z"/><path d="M839.33,708.17a.59.59,0,0,1,.15-.44.53.53,0,0,1,.37-.14.52.52,0,0,1,.36.14.72.72,0,0,1,0,.88.48.48,0,0,1-.36.14.49.49,0,0,1-.37-.14A.59.59,0,0,1,839.33,708.17Zm.95,7.32h-.87v-5.76h.87Z"/><path d="M843,715.49h-.87v-8.18H843Z"/><path d="M847.28,715.59a2.66,2.66,0,0,1-2-.77,3,3,0,0,1-.74-2.16,3.35,3.35,0,0,1,.68-2.21,2.27,2.27,0,0,1,1.84-.82,2.16,2.16,0,0,1,1.72.71,2.72,2.72,0,0,1,.63,1.88v.55h-4a2.33,2.33,0,0,0,.51,1.54,1.78,1.78,0,0,0,1.37.52,4.61,4.61,0,0,0,1.84-.39v.78a5.21,5.21,0,0,1-.87.29A5.7,5.7,0,0,1,847.28,715.59Zm-.24-5.23a1.41,1.41,0,0,0-1.1.45,2.06,2.06,0,0,0-.49,1.25h3a1.92,1.92,0,0,0-.37-1.27A1.28,1.28,0,0,0,847,710.36Z"/><path d="M854.8,714.72h0a2.07,2.07,0,0,1-1.81.87,2.13,2.13,0,0,1-1.76-.77,3.38,3.38,0,0,1-.63-2.19,3.49,3.49,0,0,1,.63-2.22,2.14,2.14,0,0,1,1.76-.78,2.1,2.1,0,0,1,1.8.85h.06l0-.42,0-.4v-2.35h.87v8.18h-.71Zm-1.74.14a1.58,1.58,0,0,0,1.29-.48,2.46,2.46,0,0,0,.41-1.57v-.18a2.9,2.9,0,0,0-.41-1.75,1.55,1.55,0,0,0-1.3-.52,1.37,1.37,0,0,0-1.18.59,3,3,0,0,0-.4,1.69,2.82,2.82,0,0,0,.4,1.66A1.36,1.36,0,0,0,853.06,714.86Z"/><path d="M862.87,710.41H861.4v5.08h-.87v-5.08h-1V710l1-.31v-.32c0-1.42.62-2.12,1.85-2.12a3.91,3.91,0,0,1,1.08.18l-.23.7a2.83,2.83,0,0,0-.86-.16.86.86,0,0,0-.73.32,1.82,1.82,0,0,0-.24,1.06v.37h1.47Z"/><path d="M866.54,709.63a3.54,3.54,0,0,1,.69.06l-.12.81a3.19,3.19,0,0,0-.63-.08,1.51,1.51,0,0,0-1.19.57,2,2,0,0,0-.5,1.41v3.09h-.87v-5.76h.72l.1,1.07h0a2.44,2.44,0,0,1,.77-.87A1.75,1.75,0,0,1,866.54,709.63Z"/><path d="M873.28,712.6a3.18,3.18,0,0,1-.71,2.2,2.49,2.49,0,0,1-2,.79,2.62,2.62,0,0,1-1.37-.36,2.42,2.42,0,0,1-.93-1,3.73,3.73,0,0,1-.32-1.59,3.17,3.17,0,0,1,.7-2.19,2.5,2.5,0,0,1,2-.78,2.43,2.43,0,0,1,1.92.8A3.19,3.19,0,0,1,873.28,712.6Zm-4.39,0a2.79,2.79,0,0,0,.44,1.69,1.77,1.77,0,0,0,2.6,0,2.72,2.72,0,0,0,.45-1.69,2.63,2.63,0,0,0-.45-1.66,1.55,1.55,0,0,0-1.31-.57,1.52,1.52,0,0,0-1.29.56A2.69,2.69,0,0,0,868.89,712.6Z"/><path d="M882.15,715.49v-3.75a1.53,1.53,0,0,0-.3-1,1.12,1.12,0,0,0-.91-.34,1.5,1.5,0,0,0-1.21.46,2.31,2.31,0,0,0-.38,1.44v3.22h-.88v-3.75a1.53,1.53,0,0,0-.29-1,1.14,1.14,0,0,0-.92-.34,1.41,1.41,0,0,0-1.2.49,2.68,2.68,0,0,0-.38,1.61v3h-.87v-5.76h.71l.14.79h0a1.72,1.72,0,0,1,.7-.66,2.08,2.08,0,0,1,1-.23,1.72,1.72,0,0,1,1.77,1h0a1.78,1.78,0,0,1,.75-.71,2.22,2.22,0,0,1,1.11-.26,1.92,1.92,0,0,1,1.46.5,2.21,2.21,0,0,1,.49,1.6v3.76Z"/><path d="M895,715.49v-3.75a1.53,1.53,0,0,0-.3-1,1.12,1.12,0,0,0-.91-.34,1.48,1.48,0,0,0-1.2.46,2.25,2.25,0,0,0-.39,1.44v3.22h-.87v-3.75a1.53,1.53,0,0,0-.3-1,1.13,1.13,0,0,0-.92-.34,1.43,1.43,0,0,0-1.2.49,2.68,2.68,0,0,0-.38,1.61v3h-.87v-5.76h.71l.14.79h0a1.78,1.78,0,0,1,.7-.66,2.08,2.08,0,0,1,1-.23,1.72,1.72,0,0,1,1.77,1h0a1.78,1.78,0,0,1,.75-.71,2.22,2.22,0,0,1,1.11-.26,1.92,1.92,0,0,1,1.46.5,2.21,2.21,0,0,1,.49,1.6v3.76Z"/><path d="M900.05,715.59a2.7,2.7,0,0,1-2-.77,3,3,0,0,1-.73-2.16,3.35,3.35,0,0,1,.68-2.21,2.27,2.27,0,0,1,1.84-.82,2.17,2.17,0,0,1,1.72.71,2.72,2.72,0,0,1,.63,1.88v.55h-4a2.33,2.33,0,0,0,.51,1.54,1.78,1.78,0,0,0,1.37.52,4.65,4.65,0,0,0,1.84-.39v.78a5,5,0,0,1-.88.29A5.5,5.5,0,0,1,900.05,715.59Zm-.24-5.23a1.41,1.41,0,0,0-1.1.45,2.06,2.06,0,0,0-.49,1.25h3a1.92,1.92,0,0,0-.37-1.27A1.28,1.28,0,0,0,899.81,710.36Z"/><path d="M907.57,714.72h-.05a2,2,0,0,1-1.8.87,2.12,2.12,0,0,1-1.76-.77,3.38,3.38,0,0,1-.63-2.19,3.49,3.49,0,0,1,.63-2.22,2.14,2.14,0,0,1,1.76-.78,2.07,2.07,0,0,1,1.79.85h.07l0-.42,0-.4v-2.35h.88v8.18h-.71Zm-1.74.14a1.6,1.6,0,0,0,1.29-.48,2.46,2.46,0,0,0,.4-1.57v-.18a2.91,2.91,0,0,0-.4-1.75,1.55,1.55,0,0,0-1.3-.52,1.36,1.36,0,0,0-1.18.59,3,3,0,0,0-.4,1.69,2.82,2.82,0,0,0,.4,1.66A1.36,1.36,0,0,0,905.83,714.86Z"/><path d="M910.17,708.17a.59.59,0,0,1,.15-.44.53.53,0,0,1,.37-.14.52.52,0,0,1,.36.14.72.72,0,0,1,0,.88.48.48,0,0,1-.36.14.49.49,0,0,1-.37-.14A.59.59,0,0,1,910.17,708.17Zm1,7.32h-.87v-5.76h.87Z"/><path d="M916.51,715.49l-.18-.82h0a2.43,2.43,0,0,1-.86.73,2.56,2.56,0,0,1-1.07.19,1.9,1.9,0,0,1-1.34-.44,1.61,1.61,0,0,1-.48-1.25q0-1.75,2.79-1.83l1,0v-.36a1.42,1.42,0,0,0-.29-1,1.17,1.17,0,0,0-.93-.32,3.73,3.73,0,0,0-1.63.44l-.27-.67a4.72,4.72,0,0,1,.93-.36,4,4,0,0,1,1-.13,2.22,2.22,0,0,1,1.53.45,1.93,1.93,0,0,1,.49,1.47v3.93Zm-2-.62a1.76,1.76,0,0,0,1.28-.44,1.66,1.66,0,0,0,.46-1.25v-.52l-.87,0a3.26,3.26,0,0,0-1.5.33,1,1,0,0,0-.46.89.92.92,0,0,0,.29.72A1.19,1.19,0,0,0,914.54,714.87Z"/><path d="M924.37,709.63a3.54,3.54,0,0,1,.69.06l-.12.81a3.19,3.19,0,0,0-.63-.08,1.53,1.53,0,0,0-1.2.57,2.05,2.05,0,0,0-.49,1.41v3.09h-.88v-5.76h.72l.1,1.07h.05a2.44,2.44,0,0,1,.77-.87A1.75,1.75,0,0,1,924.37,709.63Z"/><path d="M928.57,715.59a2.7,2.7,0,0,1-2-.77,3,3,0,0,1-.73-2.16,3.3,3.3,0,0,1,.68-2.21,2.27,2.27,0,0,1,1.84-.82,2.18,2.18,0,0,1,1.72.71,2.72,2.72,0,0,1,.63,1.88v.55h-4a2.33,2.33,0,0,0,.51,1.54,1.78,1.78,0,0,0,1.37.52,4.65,4.65,0,0,0,1.84-.39v.78a5,5,0,0,1-.88.29A5.5,5.5,0,0,1,928.57,715.59Zm-.24-5.23a1.41,1.41,0,0,0-1.1.45,2.06,2.06,0,0,0-.49,1.25h3a1.92,1.92,0,0,0-.37-1.27A1.28,1.28,0,0,0,928.33,710.36Z"/><path d="M934.85,715.59a2.66,2.66,0,0,1-1-.2,1.92,1.92,0,0,1-.78-.64H933a7.94,7.94,0,0,1,.06,1v2.37h-.87v-8.34h.71l.12.79h0a2,2,0,0,1,.79-.68,2.35,2.35,0,0,1,1-.21,2.15,2.15,0,0,1,1.77.78,4.18,4.18,0,0,1,0,4.4A2.14,2.14,0,0,1,934.85,715.59Zm-.12-5.22a1.53,1.53,0,0,0-1.28.49,2.52,2.52,0,0,0-.41,1.55v.19a2.89,2.89,0,0,0,.41,1.74,1.53,1.53,0,0,0,1.3.52,1.37,1.37,0,0,0,1.17-.6,2.88,2.88,0,0,0,.42-1.67,2.79,2.79,0,0,0-.42-1.65A1.41,1.41,0,0,0,934.73,710.37Z"/><path d="M943.73,712.6a3.18,3.18,0,0,1-.7,2.2,2.5,2.5,0,0,1-2,.79,2.63,2.63,0,0,1-1.38-.36,2.46,2.46,0,0,1-.92-1,3.58,3.58,0,0,1-.33-1.59,3.17,3.17,0,0,1,.71-2.19,2.49,2.49,0,0,1,2-.78,2.41,2.41,0,0,1,1.92.8A3.14,3.14,0,0,1,943.73,712.6Zm-4.38,0a2.79,2.79,0,0,0,.44,1.69,1.77,1.77,0,0,0,2.6,0,2.79,2.79,0,0,0,.44-1.69,2.69,2.69,0,0,0-.44-1.66,1.57,1.57,0,0,0-1.31-.57,1.53,1.53,0,0,0-1.3.56A2.69,2.69,0,0,0,939.35,712.6Z"/><path d="M947.89,709.63a3.62,3.62,0,0,1,.69.06l-.12.81a3.19,3.19,0,0,0-.63-.08,1.53,1.53,0,0,0-1.2.57,2.05,2.05,0,0,0-.49,1.41v3.09h-.88v-5.76H946l.1,1.07h0a2.56,2.56,0,0,1,.78-.87A1.75,1.75,0,0,1,947.89,709.63Z"/><path d="M951.51,714.87a3.19,3.19,0,0,0,.45,0l.34-.07v.67a1.79,1.79,0,0,1-.41.11,3.13,3.13,0,0,1-.5,0c-1.12,0-1.67-.58-1.67-1.76v-3.42h-.83V710l.83-.36.37-1.23h.5v1.33h1.67v.68h-1.67v3.39a1.16,1.16,0,0,0,.25.8A.86.86,0,0,0,951.51,714.87Z"/><path d="M957.17,713.92a1.45,1.45,0,0,1-.6,1.24,2.82,2.82,0,0,1-1.68.43,3.68,3.68,0,0,1-1.79-.36v-.81a4.29,4.29,0,0,0,.89.33,3.75,3.75,0,0,0,.92.12,2.17,2.17,0,0,0,1.05-.21.74.74,0,0,0,.37-.67.71.71,0,0,0-.3-.57,4.53,4.53,0,0,0-1.13-.57,6.27,6.27,0,0,1-1.15-.52,1.61,1.61,0,0,1-.5-.51,1.32,1.32,0,0,1-.16-.68,1.29,1.29,0,0,1,.57-1.11,2.66,2.66,0,0,1,1.57-.4,4.66,4.66,0,0,1,1.82.37l-.31.71a4.36,4.36,0,0,0-1.57-.35,1.81,1.81,0,0,0-.94.19.6.6,0,0,0-.31.54.64.64,0,0,0,.11.39,1.24,1.24,0,0,0,.38.31,9.91,9.91,0,0,0,1,.43,3.52,3.52,0,0,1,1.39.75A1.32,1.32,0,0,1,957.17,713.92Z"/><path d="M964.06,709.64a2.12,2.12,0,0,1,1.76.77,3.4,3.4,0,0,1,.63,2.19,3.46,3.46,0,0,1-.63,2.21,2.15,2.15,0,0,1-1.76.78,2.63,2.63,0,0,1-1-.2,1.92,1.92,0,0,1-.78-.64h-.06l-.18.74h-.63v-8.18h.87v2c0,.45,0,.84,0,1.2h0A2.06,2.06,0,0,1,964.06,709.64Zm-.13.73a1.51,1.51,0,0,0-1.28.51,2.83,2.83,0,0,0-.4,1.72,2.89,2.89,0,0,0,.41,1.74,1.52,1.52,0,0,0,1.29.52,1.34,1.34,0,0,0,1.2-.58,3,3,0,0,0,.4-1.69,2.89,2.89,0,0,0-.4-1.67A1.39,1.39,0,0,0,963.93,710.37Z"/><path d="M967.06,709.73H968l1.26,3.28a12.43,12.43,0,0,1,.52,1.63h0c.05-.18.14-.49.29-.92s.62-1.76,1.42-4h.94L970,716.29a3.34,3.34,0,0,1-.85,1.38,1.84,1.84,0,0,1-1.21.4,3.48,3.48,0,0,1-.79-.09v-.69a3.2,3.2,0,0,0,.65.06,1.34,1.34,0,0,0,1.28-1l.32-.82Z"/><path d="M979.61,708.5a2.51,2.51,0,0,0-2,.84,3.39,3.39,0,0,0-.73,2.31,3.49,3.49,0,0,0,.7,2.33,2.52,2.52,0,0,0,2,.82,7,7,0,0,0,1.83-.29v.78a5.63,5.63,0,0,1-2,.3,3.33,3.33,0,0,1-2.62-1,4.24,4.24,0,0,1-.92-2.92,4.68,4.68,0,0,1,.44-2.08,3.19,3.19,0,0,1,1.29-1.38,3.89,3.89,0,0,1,2-.48,4.82,4.82,0,0,1,2.11.44l-.38.77A4,4,0,0,0,979.61,708.5Z"/><path d="M985.41,715.59a2.7,2.7,0,0,1-2-.77,3,3,0,0,1-.73-2.16,3.3,3.3,0,0,1,.68-2.21,2.27,2.27,0,0,1,1.84-.82,2.15,2.15,0,0,1,1.71.71,2.73,2.73,0,0,1,.64,1.88v.55h-4a2.33,2.33,0,0,0,.51,1.54,1.76,1.76,0,0,0,1.37.52,4.65,4.65,0,0,0,1.84-.39v.78a5,5,0,0,1-.88.29A5.5,5.5,0,0,1,985.41,715.59Zm-.24-5.23a1.41,1.41,0,0,0-1.1.45,2.06,2.06,0,0,0-.49,1.25h3a1.92,1.92,0,0,0-.37-1.27A1.28,1.28,0,0,0,985.17,710.36Z"/><path d="M993,715.49v-3.73a1.52,1.52,0,0,0-.32-1,1.3,1.3,0,0,0-1-.34,1.66,1.66,0,0,0-1.33.49,2.45,2.45,0,0,0-.42,1.61v3H989v-5.76h.71l.14.79h0a1.82,1.82,0,0,1,.76-.66,2.36,2.36,0,0,1,1.07-.23,2.16,2.16,0,0,1,1.57.5,2.12,2.12,0,0,1,.52,1.6v3.76Z"/><path d="M997.47,714.87a3.19,3.19,0,0,0,.45,0l.34-.07v.67a1.79,1.79,0,0,1-.41.11,3.13,3.13,0,0,1-.5,0c-1.12,0-1.67-.58-1.67-1.76v-3.42h-.83V710l.83-.36.37-1.23h.5v1.33h1.67v.68h-1.67v3.39a1.16,1.16,0,0,0,.25.8A.86.86,0,0,0,997.47,714.87Z"/><path d="M1002,709.63a3.62,3.62,0,0,1,.69.06l-.12.81a3.19,3.19,0,0,0-.63-.08,1.53,1.53,0,0,0-1.2.57,2.05,2.05,0,0,0-.49,1.41v3.09h-.88v-5.76h.72l.1,1.07h0a2.56,2.56,0,0,1,.78-.87A1.75,1.75,0,0,1,1002,709.63Z"/><path d="M1006.24,715.59a2.68,2.68,0,0,1-2-.77,3,3,0,0,1-.74-2.16,3.3,3.3,0,0,1,.69-2.21,2.27,2.27,0,0,1,1.84-.82,2.15,2.15,0,0,1,1.71.71,2.72,2.72,0,0,1,.63,1.88v.55h-4a2.33,2.33,0,0,0,.51,1.54,1.76,1.76,0,0,0,1.37.52,4.65,4.65,0,0,0,1.84-.39v.78a5,5,0,0,1-.88.29A5.5,5.5,0,0,1,1006.24,715.59Zm-.24-5.23a1.45,1.45,0,0,0-1.11.45,2.12,2.12,0,0,0-.48,1.25h3a1.92,1.92,0,0,0-.37-1.27A1.28,1.28,0,0,0,1006,710.36Z"/><path d="M1015.23,710.41h-1.47v5.08h-.87v-5.08h-1V710l1-.31v-.32c0-1.42.62-2.12,1.86-2.12a3.91,3.91,0,0,1,1.07.18l-.23.7a2.78,2.78,0,0,0-.86-.16.86.86,0,0,0-.73.32,1.82,1.82,0,0,0-.24,1.06v.37h1.47Z"/><path d="M1021.25,712.6a3.18,3.18,0,0,1-.71,2.2,2.48,2.48,0,0,1-2,.79,2.62,2.62,0,0,1-1.37-.36,2.34,2.34,0,0,1-.92-1,3.58,3.58,0,0,1-.33-1.59,3.22,3.22,0,0,1,.7-2.19,2.5,2.5,0,0,1,2-.78,2.43,2.43,0,0,1,1.92.8A3.19,3.19,0,0,1,1021.25,712.6Zm-4.39,0a2.72,2.72,0,0,0,.45,1.69,1.52,1.52,0,0,0,1.29.57,1.54,1.54,0,0,0,1.3-.57,2.72,2.72,0,0,0,.45-1.69,2.63,2.63,0,0,0-.45-1.66,1.55,1.55,0,0,0-1.31-.57,1.52,1.52,0,0,0-1.29.56A2.69,2.69,0,0,0,1016.86,712.6Z"/><path d="M1025.41,709.63a3.51,3.51,0,0,1,.68.06l-.12.81a3,3,0,0,0-.63-.08,1.53,1.53,0,0,0-1.19.57,2.06,2.06,0,0,0-.5,1.41v3.09h-.87v-5.76h.72l.1,1.07h0a2.44,2.44,0,0,1,.77-.87A1.76,1.76,0,0,1,1025.41,709.63Z"/><path d="M813.05,730.86l-2.6-6.81h-.05c.05.54.08,1.18.08,1.92v4.89h-.83v-7.68H811l2.43,6.33h0l2.45-6.33h1.34v7.68h-.89v-5c0-.57,0-1.18.07-1.85h0l-2.63,6.8Z"/><path d="M821.67,731a2.68,2.68,0,0,1-2-.77,3,3,0,0,1-.74-2.16,3.35,3.35,0,0,1,.69-2.22,2.29,2.29,0,0,1,1.84-.81,2.15,2.15,0,0,1,1.71.71,2.72,2.72,0,0,1,.63,1.88v.55h-4a2.28,2.28,0,0,0,.51,1.54,1.76,1.76,0,0,0,1.37.52,4.65,4.65,0,0,0,1.84-.39v.78a5,5,0,0,1-.88.29A5.58,5.58,0,0,1,821.67,731Zm-.24-5.23a1.45,1.45,0,0,0-1.11.45,2.12,2.12,0,0,0-.48,1.25h3a1.92,1.92,0,0,0-.37-1.27A1.3,1.3,0,0,0,821.43,725.73Z"/><path d="M829.19,730.09h-.05a2,2,0,0,1-1.81.87,2.11,2.11,0,0,1-1.75-.77A3.38,3.38,0,0,1,825,728a3.49,3.49,0,0,1,.63-2.22,2.12,2.12,0,0,1,1.75-.78,2.09,2.09,0,0,1,1.8.85h.07l0-.42,0-.4v-2.35H830v8.18h-.71Zm-1.75.14a1.61,1.61,0,0,0,1.3-.48,2.46,2.46,0,0,0,.4-1.57V728a2.83,2.83,0,0,0-.41-1.75,1.53,1.53,0,0,0-1.3-.52,1.32,1.32,0,0,0-1.17.59,3,3,0,0,0-.41,1.69,2.82,2.82,0,0,0,.41,1.66A1.35,1.35,0,0,0,827.44,730.23Z"/><path d="M831.79,723.54a.57.57,0,0,1,.15-.44.51.51,0,0,1,.36-.14.57.57,0,0,1,.37.14.72.72,0,0,1,0,.88.52.52,0,0,1-.37.14.47.47,0,0,1-.36-.14A.59.59,0,0,1,831.79,723.54Zm.94,7.32h-.87V725.1h.87Z"/><path d="M838.12,730.86,838,730h0a2.43,2.43,0,0,1-.86.73A2.59,2.59,0,0,1,836,731a1.88,1.88,0,0,1-1.34-.44,1.58,1.58,0,0,1-.49-1.25q0-1.75,2.79-1.83l1,0v-.36a1.47,1.47,0,0,0-.29-1,1.19,1.19,0,0,0-.93-.32,3.7,3.7,0,0,0-1.63.44l-.27-.67a3.83,3.83,0,0,1,.93-.36,4,4,0,0,1,1-.13,2.21,2.21,0,0,1,1.52.45,1.93,1.93,0,0,1,.5,1.47v3.93Zm-2-.62a1.79,1.79,0,0,0,1.28-.44,1.67,1.67,0,0,0,.47-1.25V728l-.87,0a3.2,3.2,0,0,0-1.5.33,1,1,0,0,0-.46.89.91.91,0,0,0,.28.72A1.21,1.21,0,0,0,836.15,730.24Z"/><path d="M846.9,730.86l-.17-.82h0a2.52,2.52,0,0,1-.86.73,2.59,2.59,0,0,1-1.07.19,1.88,1.88,0,0,1-1.34-.44,1.58,1.58,0,0,1-.49-1.25q0-1.75,2.79-1.83l1,0v-.36a1.47,1.47,0,0,0-.29-1,1.2,1.2,0,0,0-.94-.32,3.66,3.66,0,0,0-1.62.44l-.27-.67a3.83,3.83,0,0,1,.93-.36,4,4,0,0,1,1-.13,2.21,2.21,0,0,1,1.52.45,1.93,1.93,0,0,1,.5,1.47v3.93Zm-2-.62a1.79,1.79,0,0,0,1.28-.44,1.67,1.67,0,0,0,.47-1.25V728l-.88,0a3.26,3.26,0,0,0-1.5.33,1,1,0,0,0-.45.89.91.91,0,0,0,.28.72A1.21,1.21,0,0,0,844.93,730.24Z"/><path d="M853.28,730.86v-3.73a1.47,1.47,0,0,0-.32-1,1.29,1.29,0,0,0-1-.34,1.67,1.67,0,0,0-1.32.48,2.5,2.5,0,0,0-.42,1.62v3h-.87V725.1h.7l.15.79h0a1.72,1.72,0,0,1,.75-.66,2.38,2.38,0,0,1,1.08-.23,2.15,2.15,0,0,1,1.56.5,2.13,2.13,0,0,1,.53,1.6v3.76Z"/><path d="M859.87,730.09h0A2,2,0,0,1,858,731a2.1,2.1,0,0,1-1.75-.77,3.38,3.38,0,0,1-.63-2.19,3.49,3.49,0,0,1,.63-2.22A2.12,2.12,0,0,1,858,725a2.1,2.1,0,0,1,1.8.85h.07l0-.42,0-.4v-2.35h.87v8.18H860Zm-1.75.14a1.61,1.61,0,0,0,1.3-.48,2.46,2.46,0,0,0,.4-1.57V728a2.9,2.9,0,0,0-.41-1.75,1.53,1.53,0,0,0-1.3-.52,1.32,1.32,0,0,0-1.17.59,3,3,0,0,0-.41,1.69,2.82,2.82,0,0,0,.41,1.66A1.35,1.35,0,0,0,858.12,730.23Z"/><path d="M871.6,726.94a3.87,3.87,0,0,1-1,2.91,4.06,4.06,0,0,1-3,1h-2.12v-7.68h2.35a3.76,3.76,0,0,1,2.78,1A3.72,3.72,0,0,1,871.6,726.94Zm-1,0a3.11,3.11,0,0,0-.75-2.27,3,3,0,0,0-2.24-.76h-1.3v6.14h1.09a3.34,3.34,0,0,0,2.4-.79A3.12,3.12,0,0,0,870.65,727Z"/><path d="M875.61,731a2.66,2.66,0,0,1-2-.77,3,3,0,0,1-.74-2.16,3.4,3.4,0,0,1,.68-2.22,2.3,2.3,0,0,1,1.85-.81,2.15,2.15,0,0,1,1.71.71,2.72,2.72,0,0,1,.63,1.88v.55h-4a2.33,2.33,0,0,0,.51,1.54,1.78,1.78,0,0,0,1.37.52,4.61,4.61,0,0,0,1.84-.39v.78a5.21,5.21,0,0,1-.87.29A5.7,5.7,0,0,1,875.61,731Zm-.24-5.23a1.41,1.41,0,0,0-1.1.45,2.06,2.06,0,0,0-.49,1.25h3a2,2,0,0,0-.36-1.27A1.32,1.32,0,0,0,875.37,725.73Z"/><path d="M880.48,730.86l-2.19-5.76h.94l1.24,3.42c.27.79.44,1.31.49,1.55h0a10.69,10.69,0,0,1,.37-1.15c.2-.59.66-1.86,1.37-3.82h.94l-2.19,5.76Z"/><path d="M887,731a2.68,2.68,0,0,1-2-.77,3,3,0,0,1-.74-2.16,3.35,3.35,0,0,1,.69-2.22,2.29,2.29,0,0,1,1.84-.81,2.15,2.15,0,0,1,1.71.71,2.72,2.72,0,0,1,.63,1.88v.55h-4a2.28,2.28,0,0,0,.51,1.54,1.76,1.76,0,0,0,1.37.52,4.65,4.65,0,0,0,1.84-.39v.78a5,5,0,0,1-.88.29A5.5,5.5,0,0,1,887,731Zm-.24-5.23a1.45,1.45,0,0,0-1.11.45,2.12,2.12,0,0,0-.48,1.25h3a1.92,1.92,0,0,0-.37-1.27A1.28,1.28,0,0,0,886.8,725.73Z"/><path d="M891.51,730.86h-.87v-8.18h.87Z"/><path d="M898.33,728a3.18,3.18,0,0,1-.71,2.2,2.48,2.48,0,0,1-2,.79,2.62,2.62,0,0,1-1.37-.36,2.34,2.34,0,0,1-.92-1A3.58,3.58,0,0,1,893,728a3.17,3.17,0,0,1,.71-2.19,2.48,2.48,0,0,1,2-.78,2.43,2.43,0,0,1,1.92.8A3.19,3.19,0,0,1,898.33,728Zm-4.39,0a2.72,2.72,0,0,0,.45,1.69,1.52,1.52,0,0,0,1.29.57,1.54,1.54,0,0,0,1.3-.57,2.72,2.72,0,0,0,.45-1.69,2.63,2.63,0,0,0-.45-1.66,1.55,1.55,0,0,0-1.31-.57,1.52,1.52,0,0,0-1.29.56A2.69,2.69,0,0,0,893.94,728Z"/><path d="M902.54,731a2.63,2.63,0,0,1-1-.2,2,2,0,0,1-.78-.64h-.06a7.94,7.94,0,0,1,.06,1v2.37h-.87V725.1h.71l.12.79h0a2.07,2.07,0,0,1,.78-.68,2.4,2.4,0,0,1,1-.21,2.15,2.15,0,0,1,1.77.78,4.18,4.18,0,0,1,0,4.4A2.15,2.15,0,0,1,902.54,731Zm-.13-5.22a1.54,1.54,0,0,0-1.27.48,2.51,2.51,0,0,0-.41,1.56V728a2.89,2.89,0,0,0,.41,1.74,1.52,1.52,0,0,0,1.29.52,1.35,1.35,0,0,0,1.17-.6A2.88,2.88,0,0,0,904,728a2.77,2.77,0,0,0-.43-1.65A1.39,1.39,0,0,0,902.41,725.74Z"/><path d="M913.79,730.86v-3.75a1.58,1.58,0,0,0-.29-1,1.14,1.14,0,0,0-.92-.34,1.48,1.48,0,0,0-1.2.46,2.25,2.25,0,0,0-.39,1.44v3.22h-.87v-3.75a1.58,1.58,0,0,0-.29-1,1.16,1.16,0,0,0-.92-.34,1.41,1.41,0,0,0-1.2.49,2.59,2.59,0,0,0-.39,1.61v3h-.87V725.1h.71l.14.79h.05a1.69,1.69,0,0,1,.69-.66,2.12,2.12,0,0,1,1-.23,1.7,1.7,0,0,1,1.76,1h0a1.84,1.84,0,0,1,.75-.71,2.27,2.27,0,0,1,1.11-.26,1.94,1.94,0,0,1,1.47.5,2.25,2.25,0,0,1,.48,1.6v3.76Z"/><path d="M918.89,731a2.66,2.66,0,0,1-2-.77,3,3,0,0,1-.74-2.16,3.4,3.4,0,0,1,.68-2.22,2.31,2.31,0,0,1,1.85-.81,2.15,2.15,0,0,1,1.71.71,2.72,2.72,0,0,1,.63,1.88v.55h-4a2.28,2.28,0,0,0,.52,1.54,1.76,1.76,0,0,0,1.36.52,4.61,4.61,0,0,0,1.84-.39v.78a5.21,5.21,0,0,1-.87.29A5.7,5.7,0,0,1,918.89,731Zm-.23-5.23a1.42,1.42,0,0,0-1.11.45,2.06,2.06,0,0,0-.49,1.25h3a2,2,0,0,0-.36-1.27A1.31,1.31,0,0,0,918.66,725.73Z"/><path d="M926.44,730.86v-3.73a1.52,1.52,0,0,0-.32-1,1.33,1.33,0,0,0-1-.34,1.67,1.67,0,0,0-1.32.48,2.5,2.5,0,0,0-.42,1.62v3h-.87V725.1h.7l.15.79h0a1.72,1.72,0,0,1,.75-.66,2.38,2.38,0,0,1,1.08-.23,2.15,2.15,0,0,1,1.56.5,2.13,2.13,0,0,1,.53,1.6v3.76Z"/><path d="M931,730.24l.45,0,.34-.07v.67a2.07,2.07,0,0,1-.42.11,3.13,3.13,0,0,1-.5,0c-1.11,0-1.67-.58-1.67-1.76v-3.42h-.82v-.42l.82-.36.37-1.23h.5v1.33h1.67v.68H930v3.39a1.17,1.17,0,0,0,.25.79A.85.85,0,0,0,931,730.24Z"/><path d="M935.82,730.86v-7.68h.9v7.68Z"/><path d="M942.63,730.86v-3.73a1.52,1.52,0,0,0-.32-1,1.3,1.3,0,0,0-1-.34,1.67,1.67,0,0,0-1.33.48,2.5,2.5,0,0,0-.42,1.62v3h-.87V725.1h.71l.14.79h0a1.69,1.69,0,0,1,.76-.66,2.36,2.36,0,0,1,1.07-.23,2.16,2.16,0,0,1,1.57.5,2.12,2.12,0,0,1,.52,1.6v3.76Z"/><path d="M945.22,723.54a.57.57,0,0,1,.15-.44.53.53,0,0,1,.37-.14.52.52,0,0,1,.36.14.72.72,0,0,1,0,.88.48.48,0,0,1-.36.14.49.49,0,0,1-.37-.14A.59.59,0,0,1,945.22,723.54Zm.95,7.32h-.88V725.1h.88Z"/><path d="M949.88,730.24a3.15,3.15,0,0,0,.44,0,2.79,2.79,0,0,0,.34-.07v.67a1.79,1.79,0,0,1-.41.11,3.13,3.13,0,0,1-.5,0c-1.11,0-1.67-.58-1.67-1.76v-3.42h-.83v-.42l.83-.36.37-1.23h.5v1.33h1.67v.68H949v3.39a1.12,1.12,0,0,0,.25.79A.84.84,0,0,0,949.88,730.24Z"/><path d="M951.74,723.54a.57.57,0,0,1,.15-.44.53.53,0,0,1,.37-.14.52.52,0,0,1,.36.14.72.72,0,0,1,0,.88.48.48,0,0,1-.36.14.49.49,0,0,1-.37-.14A.59.59,0,0,1,951.74,723.54Zm1,7.32h-.88V725.1h.88Z"/><path d="M958.08,730.86l-.18-.82h0a2.43,2.43,0,0,1-.86.73,2.56,2.56,0,0,1-1.07.19,1.88,1.88,0,0,1-1.34-.44,1.61,1.61,0,0,1-.49-1.25q0-1.75,2.79-1.83l1,0v-.36a1.47,1.47,0,0,0-.29-1,1.18,1.18,0,0,0-.93-.32,3.7,3.7,0,0,0-1.63.44l-.27-.67a3.83,3.83,0,0,1,.93-.36,4,4,0,0,1,1-.13,2.24,2.24,0,0,1,1.53.45,1.93,1.93,0,0,1,.49,1.47v3.93Zm-2-.62a1.82,1.82,0,0,0,1.28-.44,1.7,1.7,0,0,0,.46-1.25V728l-.87,0a3.2,3.2,0,0,0-1.5.33,1,1,0,0,0-.46.89.91.91,0,0,0,.28.72A1.24,1.24,0,0,0,956.11,730.24Z"/><path d="M962.38,730.24a3.15,3.15,0,0,0,.44,0l.35-.07v.67a2.07,2.07,0,0,1-.42.11,3.13,3.13,0,0,1-.5,0c-1.11,0-1.67-.58-1.67-1.76v-3.42h-.82v-.42l.82-.36.37-1.23h.5v1.33h1.67v.68h-1.67v3.39a1.17,1.17,0,0,0,.25.79A.84.84,0,0,0,962.38,730.24Z"/><path d="M964.24,723.54a.57.57,0,0,1,.15-.44.53.53,0,0,1,.37-.14.52.52,0,0,1,.36.14.72.72,0,0,1,0,.88.48.48,0,0,1-.36.14.49.49,0,0,1-.37-.14A.59.59,0,0,1,964.24,723.54Zm1,7.32h-.87V725.1h.87Z"/><path d="M968.3,730.86l-2.19-5.76h.94l1.24,3.42a15.24,15.24,0,0,1,.49,1.55h0a10.69,10.69,0,0,1,.37-1.15c.2-.59.66-1.86,1.38-3.82h.93l-2.18,5.76Z"/><path d="M974.86,731a2.7,2.7,0,0,1-2-.77,3,3,0,0,1-.73-2.16,3.4,3.4,0,0,1,.68-2.22,2.29,2.29,0,0,1,1.84-.81,2.17,2.17,0,0,1,1.72.71,2.72,2.72,0,0,1,.63,1.88v.55h-4a2.33,2.33,0,0,0,.51,1.54,1.78,1.78,0,0,0,1.37.52,4.65,4.65,0,0,0,1.84-.39v.78a5.21,5.21,0,0,1-.87.29A5.7,5.7,0,0,1,974.86,731Zm-.24-5.23a1.41,1.41,0,0,0-1.1.45,2.06,2.06,0,0,0-.49,1.25h3a1.92,1.92,0,0,0-.37-1.27A1.28,1.28,0,0,0,974.62,725.73Z"/><path d="M982.18,729.29a1.45,1.45,0,0,1-.6,1.24,2.82,2.82,0,0,1-1.68.43,3.68,3.68,0,0,1-1.79-.36v-.81a4.29,4.29,0,0,0,.89.33,3.75,3.75,0,0,0,.92.12A2.17,2.17,0,0,0,981,730a.74.74,0,0,0,.37-.67.71.71,0,0,0-.3-.57,4.53,4.53,0,0,0-1.13-.57,6.27,6.27,0,0,1-1.15-.52,1.61,1.61,0,0,1-.5-.51,1.32,1.32,0,0,1-.16-.68,1.29,1.29,0,0,1,.57-1.11,2.66,2.66,0,0,1,1.57-.4,4.66,4.66,0,0,1,1.82.37l-.31.71a4.16,4.16,0,0,0-1.57-.35,1.81,1.81,0,0,0-.94.19.6.6,0,0,0-.31.54.64.64,0,0,0,.11.39,1.24,1.24,0,0,0,.38.31,9.91,9.91,0,0,0,1,.43,3.52,3.52,0,0,1,1.39.75A1.32,1.32,0,0,1,982.18,729.29Z"/><path d="M985.9,727.91a8.1,8.1,0,0,1,.4-2.6,6.5,6.5,0,0,1,1.18-2.13h.85a7.36,7.36,0,0,0-1.14,2.23,8.35,8.35,0,0,0-.38,2.49,7.91,7.91,0,0,0,.39,2.46,7.49,7.49,0,0,0,1.12,2.2h-.84a6.13,6.13,0,0,1-1.18-2.09A7.85,7.85,0,0,1,985.9,727.91Z"/><path d="M993.1,730.86l-2.6-6.81h0c0,.54.07,1.18.07,1.92v4.89h-.82v-7.68h1.34l2.43,6.33h0l2.46-6.33h1.33v7.68h-.89v-5c0-.57,0-1.18.07-1.85h0l-2.63,6.8Z"/><path d="M1005.55,726.94a3.91,3.91,0,0,1-1,2.91,4.09,4.09,0,0,1-3,1h-2.13v-7.68h2.35a3.44,3.44,0,0,1,3.78,3.76Zm-.95,0a3.11,3.11,0,0,0-.75-2.27,3,3,0,0,0-2.24-.76h-1.3v6.14h1.09a3.34,3.34,0,0,0,2.4-.79A3.08,3.08,0,0,0,1004.6,727Z"/><path d="M1007.26,730.86v-7.68h.89v7.68Z"/><path d="M1012,727.91a8,8,0,0,1-.41,2.58,6.19,6.19,0,0,1-1.17,2.07h-.84a7.54,7.54,0,0,0,1.11-2.19,8.18,8.18,0,0,0,0-5,7.33,7.33,0,0,0-1.13-2.23h.85a6.48,6.48,0,0,1,1.17,2.13A8.19,8.19,0,0,1,1012,727.91Z"/></g></g></g></svg>