<?xml version="1.0" encoding="utf-8"?>
<!-- Generator: Adobe Illustrator 23.0.0, SVG Export Plug-In . SVG Version: 6.00 Build 0)  -->
<svg version="1.1" id="details" xmlns="http://www.w3.org/2000/svg" xmlns:xlink="http://www.w3.org/1999/xlink" x="0px" y="0px"
	 viewBox="0 0 1466 1080" style="enable-background:new 0 0 1466 1080;" xml:space="preserve">
<style type="text/css">
	.st0{opacity:0.2;fill:#FC7A00;enable-background:new    ;}
	.st1{fill:#FFFFFF;stroke:#FC7A00;stroke-width:4;stroke-linejoin:round;}
	.st2{opacity:0.5;}
	.st3{fill:none;stroke:#3B3B3B;stroke-width:6;stroke-miterlimit:10;}
	.st4{fill:#3B3B3B;}
	.st5{fill:#A36A2A;stroke:#A36A2A;stroke-width:20;stroke-miterlimit:10;}
	.st6{fill:#FFFFFF;}
	.st7{font-family:'OpenSans-ExtraBold';}
	.st8{font-size:22px;}
</style>
<title>HK V3 no text</title>
<g id="marker-HK">
	<circle class="st0" cx="1119" cy="345" r="40"/>
	<circle class="st1" cx="1119" cy="345" r="8.7"/>
</g>
<g id="macau-line" class="st2">
	<line class="st3" x1="1111" y1="346" x2="215.2" y2="740.6"/>
	<polygon class="st4" points="667.3,522.7 680.8,549.6 645.5,550.5 	"/>
</g>
<g id="ndjili-text">
	<rect x="145.7" y="780.6" class="st5" width="157" height="42"/>
	<text transform="matrix(1 0 0 1 145.083 796.2522)" class="st6 st7 st8">MACAU FERRY</text>
	<text transform="matrix(1 0 0 1 166.163 822.6522)" class="st6 st7 st8">TERMINAL</text>
</g>
<g id="HK-text">
	<rect x="1027" y="403" class="st5" width="187" height="71"/>
	<text transform="matrix(1 0 0 1 1049.49 420.67)" class="st6 st7 st8">HONG KONG</text>
	<text transform="matrix(1 0 0 1 1027.6899 447.07)" class="st6 st7 st8">INTERNATIONAL</text>
	<text transform="matrix(1 0 0 1 1071.58 473.47)" class="st6 st7 st8">AIRPORT</text>
</g>
<g id="marker-HK-2">
	<circle class="st0" cx="223.9" cy="740.6" r="40"/>
	<circle class="st1" cx="223.9" cy="740.6" r="8.7"/>
</g>
</svg>
