<?xml version="1.0" encoding="utf-8"?>
<!-- Generator: Adobe Illustrator 23.0.0, SVG Export Plug-In . SVG Version: 6.00 Build 0)  -->
<svg version="1.1" id="details" xmlns="http://www.w3.org/2000/svg" xmlns:xlink="http://www.w3.org/1999/xlink" x="0px" y="0px"
	 viewBox="0 0 1466 1080" style="enable-background:new 0 0 1466 1080;" xml:space="preserve">
<style type="text/css">
	.st0{fill:none;stroke:#FC7A00;stroke-width:6;stroke-linejoin:round;}
	.st1{fill:#A36A2A;stroke:#A36A2A;stroke-width:20;stroke-miterlimit:10;}
	.st2{fill:#FFFFFF;}
	.st3{font-family:'OpenSans-ExtraBold';}
	.st4{font-size:22px;}
	.st5{opacity:0.2;fill:#FC7A00;enable-background:new    ;}
	.st6{fill:#FFFFFF;stroke:#FC7A00;stroke-width:4;stroke-linejoin:round;}
</style>
<title>HK V3 no text</title>
<g id="ndjili-line">
	<path class="st0" d="M318.2,724.4c0,0-17.7-283.4-248.7-402.4"/>
</g>
<g id="hamad-line">
	<path class="st0" d="M1342.7,435.4c0,0-208.2-118.4-637.2-30.4"/>
</g>
<g id="casablanca-line">
	<path class="st0" d="M705.5,405c-270-179-633-86-633-86"/>
</g>
<g id="casablanca-text">
	<rect x="44.4" y="210.3" class="st1" width="419.6" height="44"/>
	<text transform="matrix(1 0 0 1 89.9 228.6772)" class="st2 st3 st4">CASABLANCA MOHAMMED V</text>
	<text transform="matrix(1 0 0 1 44.42 252.3273)" class="st2 st3 st4">INTERNATIONAL AIRPORT, MOROCCO</text>
</g>
<g id="HK-text">
	<rect x="1216.5" y="469.3" class="st1" width="187" height="71"/>
	<text transform="matrix(1 0 0 1 1238.99 486.99)" class="st2 st3 st4">HONG KONG</text>
	<text transform="matrix(1 0 0 1 1217.1899 513.39)" class="st2 st3 st4">INTERNATIONAL</text>
	<text transform="matrix(1 0 0 1 1261.08 539.79)" class="st2 st3 st4">AIRPORT</text>
</g>
<g id="marker-casablanca">
	<circle class="st5" cx="69.5" cy="322" r="40"/>
	<circle class="st6" cx="69.5" cy="322" r="8.7"/>
</g>
<g id="marker-hamad">
	<circle class="st5" cx="704.2" cy="405" r="40"/>
	<circle class="st6" cx="704.2" cy="405" r="8.7"/>
</g>
<g id="marker-ndjili">
	<circle class="st5" cx="318.2" cy="724.4" r="40"/>
	<circle class="st6" cx="318.2" cy="724.4" r="8.7"/>
</g>
<g id="n_djili-text">
	<rect x="184.8" y="761.9" class="st1" width="268.2" height="45"/>
	<text transform="matrix(1 0 0 1 184.8 778.8361)" class="st2 st3 st4">N&apos;DJILI INTERNATIONAL</text>
	<text transform="matrix(1 0 0 1 206.4301 805.236)" class="st2 st3 st4">AIRPORT, DR CONGO</text>
</g>
<g id="marker-HK">
	<circle class="st5" cx="1342.7" cy="435.4" r="40"/>
	<circle class="st6" cx="1342.7" cy="435.4" r="8.7"/>
</g>
<g id="hamad-text">
	<polygon class="st1" points="844.5,508 566.5,506 566.5,462 844.5,464 	"/>
	<text transform="matrix(1 0 0 1 566.23 480.67)" class="st2 st3 st4">HAMAD INTERNATIONAL</text>
	<text transform="matrix(1 0 0 1 615.08 504.82)" class="st2 st3 st4">AIRPORT, QATAR</text>
</g>
</svg>
