<svg id="details" xmlns="http://www.w3.org/2000/svg" viewBox="0 0 1466 1080"><defs><style>.cls-1{fill:none;stroke-width:6px;stroke-dasharray:8 6;}.cls-1,.cls-6{stroke:#fc7a00;stroke-linejoin:round;}.cls-2,.cls-5{fill:#fc7a00;}.cls-3{fill:#a36a2a;}.cls-4{font-size:25px;font-family:OpenSans-ExtraBold, Open Sans;font-weight:800;}.cls-4,.cls-6{fill:#fff;}.cls-5{opacity:0.2;isolation:isolate;}.cls-6{stroke-width:4px;}</style></defs><title>HK V3 no text</title><g id="ndjili-line"><path class="cls-1" d="M329.5,831s-9-309-240-428"/><polygon class="cls-2" points="293.31 609.94 266.43 623.42 265.39 587.82 293.31 609.94"/></g><g id="hamad-line"><path class="cls-1" d="M1377.5,546s-232-147-661-59"/><polygon class="cls-2" points="1009.66 473.35 1011.35 443.33 1042.75 460.15 1009.66 473.35"/></g><g id="casablanca-line"><path class="cls-1" d="M725.5,486c-270-179-633-86-633-86"/><polygon class="cls-2" points="408.66 397.35 410.35 367.33 441.75 384.15 408.66 397.35"/></g><g id="casablanca-text"><rect class="cls-3" x="28.5" y="275.55" width="409" height="70.45"/><text class="cls-4" transform="translate(51.07 306.67)">CASABLANCA MOHAMMED V<tspan x="17.64" y="27">INTERNATIONAL AIRPORT</tspan></text></g><g id="HK-text"><rect class="cls-3" x="1172.5" y="601.55" width="249" height="100.45"/><text class="cls-4" transform="translate(1216.31 632.67)">HONG KONG<tspan x="-24.77" y="27">INTERNATIONAL</tspan><tspan x="25.1" y="54">AIRPORT</tspan></text></g><g id="marker-casablanca"><circle class="cls-5" cx="92.5" cy="402" r="40"/><circle class="cls-6" cx="92.5" cy="402" r="8.66"/></g><g id="marker-hamad"><circle class="cls-5" cx="725.5" cy="486" r="40"/><circle class="cls-6" cx="725.5" cy="486" r="8.66"/></g><g id="marker-ndjili"><circle class="cls-5" cx="329.5" cy="827" r="40"/><circle class="cls-6" cx="329.5" cy="827" r="8.66"/></g><g id="n_djili-text" data-name="n&apos;djili-text"><rect class="cls-3" x="172.29" y="852.82" width="332.22" height="68.18"/><text class="cls-4" transform="matrix(1, 0, 0, 1, 185.97, 883.94)">N&apos;DJILI INTERNATIONAL<tspan x="96.74" y="27">AIRPORT</tspan></text></g><g id="marker-HK"><circle class="cls-5" cx="1376.5" cy="547" r="40"/><circle class="cls-6" cx="1376.5" cy="547" r="8.66"/></g><g id="hamad-text"><rect class="cls-3" x="550.5" y="508.55" width="349" height="68.45"/><text class="cls-4" transform="translate(567.31 539.67)">HAMAD INTERNATIONAL<tspan x="102.1" y="27">AIRPORT</tspan></text></g></svg>