<svg id="details" xmlns="http://www.w3.org/2000/svg" viewBox="0 0 1466 1080"><defs><style>.cls-1{fill:none;stroke:#3b3b3b;stroke-width:6px;stroke-dasharray:8 6;}.cls-1,.cls-6{stroke-linejoin:round;}.cls-2{fill:#3b3b3b;}.cls-3,.cls-6,.cls-8{fill:#fff;}.cls-4{font-size:34.05px;}.cls-4,.cls-7{fill:#a36a2a;}.cls-4,.cls-8{font-family:OpenSans-ExtraBold, Open Sans;font-weight:800;}.cls-5{fill:#fc7a00;opacity:0.2;isolation:isolate;}.cls-6{stroke:#fc7a00;stroke-width:4px;}.cls-8{font-size:26.18px;}</style></defs><title>Vietnam v2 no text</title><g id="mongcai-line"><path class="cls-1" d="M1007.31,218.77l-6.32-6.32-16.16,2.81h-8.42l-11.94,7v14.05L955,232.47,946.56,236l-9.13,6.32-2.81,12.64-11.24-2.81-6.32,2.81-4.92,5.62-3.51-2.81-11.24,2.81H884.75v14.05l3.51,7.72-3.51,9.13-2.81,18.26V321l2.81,4.21-2.81,4.22a4.79,4.79,0,0,1-5.61,0c-2.81-2.11-14.75-2.11-14.75-2.11l-9.84,2.81s-6.32,8.43-8.42,9.13-9.13,2.81-9.13,2.81l-7-3.51S820.84,334.3,818,335s-6.32.7-9.13,3.51-2.81,3.51-2.81,3.51l-11.23-2.11s-3.52,2.81-6.32,4.92-19,13.34-19,13.34l-8.43,7V375l-5.61,4.21H731l-16.16-9.13-12.64-4.91-10.53-2.81-16.86-2.11h-5.62v10.54l-2.81,5.61-13.34,7a13.51,13.51,0,0,1-4.92,4.91c-3.51,2.11-11.94,8.43-11.94,8.43H627.7l-3.51,8.43s-7-7-8.43-2.81,0,2.81,0,2.81H604.53l-4.92,2.81,4.92,33-.7,14L608,466.34l.7,8.43L606.63,486l.71,4.21-.71,12.64-7,3.51-7.72,7-7.73,2.81v20.36L580,545v7.73l-5.62,5.61v11.94l4.21,5.62-4.21,7.73-4.22,2.81V630l2.81,5.62-2.81,19.66L565.2,665.8,561,675.63l-2.81,4.92-2.8,10.53V703L549,715.66l-7,8.43-5.62,6.32-5.62,7.73V757.8l2.81,7,.71,14s-7,4.92-3.52,5.62S542,790.11,542,790.11l2.81,5.62L542,800.64l-4.21,5.62-.7,18.26,7.72,4.92h5.62l2.81,5.62-3.51,7a72.49,72.49,0,0,0-.71,7.73,53.57,53.57,0,0,0,.71,7H542l-4.21,4.92h-7.73l-5.62-3.52-4.91,3.52H484.43s-5.62,3.51-6.32,4.91S474.6,873,474.6,873l-9.13,2.11L457,879.3l-2.81-2.8-4.91,2.8-7,11.24"/><polygon class="cls-2" points="577.78 624.11 570.8 600.67 556.99 620.68 577.78 624.11"/><polygon class="cls-2" points="782.86 358.93 798.39 340.04 774.07 339.78 782.86 358.93"/></g><g id="vietnam-text"><rect class="cls-3" x="241" y="119.06" width="203.87" height="58.46"/><text class="cls-4" transform="translate(262.76 160.53)">VIETNAM</text></g><g id="china-text"><rect class="cls-3" x="1058.53" y="39.16" width="152.65" height="58.46"/><text class="cls-4" transform="translate(1078.27 80.62)">CHINA</text></g><g id="marker-mong"><circle class="cls-5" cx="1007" cy="212" r="40" transform="translate(-0.98 4.69) rotate(-0.27)"/><circle class="cls-6" cx="1007" cy="212" r="8.66" transform="translate(-0.98 4.69) rotate(-0.27)"/></g><g id="legend"><rect class="cls-7" x="922.64" y="245.71" width="164.94" height="44.95"/><text class="cls-8" transform="translate(935.46 277.59)">MÓNG CÁI</text></g><g id="marker-cau"><circle class="cls-5" cx="446" cy="887" r="40"/><circle class="cls-6" cx="446" cy="887" r="8.66"/></g><g id="cau-text"><rect class="cls-7" x="262.39" y="917.38" width="359.59" height="44.95"/><text class="cls-8" transform="translate(283.22 949.26)">CAU TREO BORDER PASS</text></g></svg>