<svg id="details" xmlns="http://www.w3.org/2000/svg" viewBox="0 0 1466 1080"><defs><style>.cls-1,.cls-4{fill:#fc7a00;}.cls-1{opacity:0.2;isolation:isolate;}.cls-2,.cls-6{fill:#fff;}.cls-2,.cls-3{stroke:#fc7a00;stroke-linejoin:round;}.cls-2{stroke-width:4px;}.cls-3{fill:none;stroke-width:6px;stroke-dasharray:8 6;}.cls-5{fill:#a36a2a;}.cls-6{font-size:25px;font-family:OpenSans-ExtraBold, Open Sans;font-weight:800;}</style></defs><title>Nepal map v3 no text</title><g id="marker-tribhuvan"><circle class="cls-1" cx="1332" cy="366" r="40"/><circle class="cls-2" cx="1332" cy="366" r="8.66"/></g><g id="ndjili-line"><path class="cls-3" d="M190,908S202,492.26,414.8,92.17"/><polygon class="cls-4" points="290.46 447.46 259.46 439.49 283.92 408.63 290.46 447.46"/></g><g id="marker-ndjili"><circle class="cls-1" cx="189" cy="911" r="40"/><circle class="cls-2" cx="189" cy="911" r="8.66"/></g><g id="istanbul-line"><path class="cls-3" d="M410.81,99.17S893.89,120.19,1332,365"/><polygon class="cls-4" points="827.88 182.49 839.08 152.51 867.18 180.09 827.88 182.49"/></g><g id="istanbul-text"><rect class="cls-5" x="286.16" y="152.72" width="283.84" height="71.28"/><text class="cls-6" transform="translate(301.79 183.9) rotate(-0.03)">ISTANBUL ATATÜRK<tspan x="70.7" y="27">AIRPORT</tspan></text></g><g id="tribhuvan-text"><rect class="cls-5" x="1025.4" y="389.32" width="406.6" height="71.68"/><text class="cls-6" transform="translate(1044.17 420.52) rotate(-0.03)">TRIBHUVAN INTERNATIONAL<tspan x="128.94" y="27">AIRPORT</tspan></text></g><g id="n_djili-text" data-name="n&apos;djili-text"><rect class="cls-5" x="78.79" y="783.82" width="332.22" height="68.18"/><text class="cls-6" transform="translate(92.56 815.01) rotate(-0.03)">N&apos;DJILI INTERNATIONAL<tspan x="96.74" y="27">AIRPORT</tspan></text></g><g id="marker-istanbul"><circle class="cls-1" cx="411" cy="99" r="40"/><circle class="cls-2" cx="411" cy="99" r="8.66"/></g></svg>