<svg xmlns="http://www.w3.org/2000/svg" width="22.128" height="22.129" viewBox="0 0 22.128 22.129">
    <defs>
        <style>
            .cls-1{fill:#3b3b3b}
        </style>
    </defs>
    <path id="Linkedin" d="M17.548 22.129v-7.186c0-1.717-.026-3.922-2.381-3.922-2.388 0-2.746 1.871-2.746 3.794v7.313H7.84V7.348h4.385v2.025h.06a4.818 4.818 0 0 1 4.342-2.383c4.641 0 5.5 3.058 5.5 7.04v8.1zm-12.6 0H.358V7.348h4.59v14.78zM7.831 7.348h.009zM0 2.666a2.662 2.662 0 1 1 2.662 2.665A2.667 2.667 0 0 1 0 2.666z" class="cls-1"/>
</svg>
