<svg xmlns="http://www.w3.org/2000/svg" width="179.85" height="38.127" viewBox="0 0 179.85 38.127">
    <defs>
        <style>
            .cls-1{fill:#3b3b3b}
        </style>
    </defs>
    <g id="Group_691" data-name="Group 691" transform="translate(-10.427 -9.852)">
        <g id="Group_636" data-name="Group 636" transform="translate(56.193 11.16)">
            <g id="Group_631" data-name="Group 631">
                <g id="Group_630" data-name="Group 630">
                    <path id="Path_1227" d="M83.561 12.893h-3.037a.334.334 0 0 0-.384.383v.824h-1.116v-1.29c0-.749.244-.993.995-.993h8.306c.75 0 .994.244.994.993v1.29h-1.134v-.819c0-.279-.122-.383-.384-.383h-3.019v11.163h-1.221z" class="cls-1" data-name="Path 1227" transform="translate(-79.024 -11.812)"/>
                    <path id="Path_1228" d="M96.486 13.224a.349.349 0 0 0-.384-.384h-.733v-1.028h1.239c.751 0 1.065.314 1.065 1.028v3.711c0 .4-.035.715-.035.715h.035a3.751 3.751 0 0 1 3.473-2.178c2.181 0 2.949 1.238 2.949 3.4v4.162a.341.341 0 0 0 .384.383h.733v1.028h-1.239c-.751 0-1.065-.314-1.065-1.063V18.8c0-1.376-.209-2.6-1.919-2.6a3.327 3.327 0 0 0-3.176 2.491 4.122 4.122 0 0 0-.139 1.168v4.2h-1.188z" class="cls-1" data-name="Path 1228" transform="translate(-84.464 -11.812)"/>
                    <path id="Path_1229" d="M116.043 16.722c2.425 0 3.681 1.865 3.681 4.042 0 .209-.035.592-.035.592h-6.736a3.328 3.328 0 0 0 3.4 3.485 3.913 3.913 0 0 0 2.635-1.081l.576.889A4.984 4.984 0 0 1 116.3 25.9a4.443 4.443 0 0 1-4.589-4.582 4.291 4.291 0 0 1 4.332-4.596zm2.46 3.694a2.49 2.49 0 0 0-2.478-2.7 3.013 3.013 0 0 0-3.018 2.7z" class="cls-1" data-name="Path 1229" transform="translate(-89.905 -13.446)"/>
                </g>
            </g>
            <g id="Group_633" data-name="Group 633" transform="translate(.471 20.912)">
                <g id="Group_632" data-name="Group 632">
                    <path id="Path_1230" d="M80.864 44.236H79.73v-1.08h5.183a3.72 3.72 0 1 1 0 7.44h-2.827v4.81h-1.222zm3.892 5.279a2.486 2.486 0 0 0 2.687-2.666 2.45 2.45 0 0 0-2.67-2.613h-2.687v5.279z" class="cls-1" data-name="Path 1230" transform="translate(-79.73 -43.156)"/>
                    <path id="Path_1231" d="M100.012 51.637h.489v-.1c0-1.83-.664-2.475-2.269-2.475-.436 0-1.71.122-1.71.767v.558h-1.134v-.836c0-1.22 2.094-1.481 2.861-1.481 2.775 0 3.438 1.481 3.438 3.363v4.2a.341.341 0 0 0 .384.384h.733v1.028h-1.2c-.75 0-1.047-.332-1.047-1.045 0-.384.017-.645.017-.645h-.035a3.106 3.106 0 0 1-2.914 1.9 2.718 2.718 0 0 1-2.984-2.6c-.004-2.913 3.853-3.018 5.371-3.018zm-2.2 4.6c1.675 0 2.687-1.743 2.687-3.258v-.4h-.506c-1.378 0-4.136.035-4.136 2a1.743 1.743 0 0 0 1.956 1.658z" class="cls-1" data-name="Path 1231" transform="translate(-84.692 -44.79)"/>
                    <path id="Path_1232" d="M109.144 49.686a.349.349 0 0 0-.384-.383h-.733v-1.028h1.222c.733 0 1.065.314 1.065.975v.4a5.558 5.558 0 0 1-.035.627h.035a3.728 3.728 0 0 1 3.49-2.212c2.181 0 2.949 1.237 2.949 3.4v4.164a.341.341 0 0 0 .384.384h.733v1.028h-1.24c-.751 0-1.065-.314-1.065-1.063v-4.2c0-1.376-.209-2.6-1.9-2.6a3.335 3.335 0 0 0-3.194 2.475 4.324 4.324 0 0 0-.139 1.185v4.2h-1.187z" class="cls-1" data-name="Path 1232" transform="translate(-89.148 -44.79)"/>
                    <path id="Path_1233" d="M128.229 48.066c2.356 0 2.914 1.5 2.914 1.5h.035v-.332c0-.627.28-.958.995-.958h1.222V49.3h-.715a.341.341 0 0 0-.384.383v7.147c0 2.788-2.059 3.868-4.222 3.868a6.425 6.425 0 0 1-2.862-.7l.454-.993a5.4 5.4 0 0 0 2.373.61c1.71 0 3.072-.8 3.072-2.753V56.1c0-.331.017-.627.017-.627h-.035a2.877 2.877 0 0 1-2.757 1.516c-2.356 0-3.909-1.864-3.909-4.5s1.446-4.423 3.802-4.423zm2.9 4.425c0-2.561-1.222-3.345-2.775-3.345-1.71 0-2.7 1.237-2.7 3.328s1.134 3.45 2.861 3.45c1.385 0 2.611-.854 2.611-3.433z" class="cls-1" data-name="Path 1233" transform="translate(-94.606 -44.79)"/>
                    <path id="Path_1234" d="M144.139 48.066a4.591 4.591 0 1 1-4.624 4.547 4.541 4.541 0 0 1 4.624-4.547zm.018 8.119a3.457 3.457 0 0 0 3.4-3.572 3.412 3.412 0 1 0-6.823 0 3.46 3.46 0 0 0 3.423 3.572z" class="cls-1" data-name="Path 1234" transform="translate(-99.629 -44.79)"/>
                    <path id="Path_1235" d="M156.141 44.567a.349.349 0 0 0-.384-.384h-.733v-1.027h1.239c.75 0 1.064.314 1.064 1.063v9.775a.342.342 0 0 0 .384.384h.733v1.028H157.2c-.75 0-1.064-.314-1.064-1.063z" class="cls-1" data-name="Path 1235" transform="translate(-104.791 -43.156)"/>
                    <path id="Path_1236" d="M162.7 48.052a.349.349 0 0 0-.384-.383h-.733v-1.028h1.239c.751 0 1.065.314 1.065 1.063v6.29a.341.341 0 0 0 .384.384h.733v1.028h-1.234c-.751 0-1.065-.314-1.065-1.063zm-.035-4.9h1.152v1.5h-1.147z" class="cls-1" data-name="Path 1236" transform="translate(-106.975 -43.156)"/>
                    <path id="Path_1237" d="M169.139 49.686a.349.349 0 0 0-.384-.383h-.733v-1.028h1.222c.733 0 1.064.314 1.064.975v.4a5.664 5.664 0 0 1-.035.627h.035a3.729 3.729 0 0 1 3.49-2.212c2.181 0 2.949 1.237 2.949 3.4v4.164a.342.342 0 0 0 .384.384h.733v1.028h-1.239c-.75 0-1.064-.314-1.064-1.063v-4.2c0-1.376-.209-2.6-1.9-2.6a3.334 3.334 0 0 0-3.193 2.475 4.3 4.3 0 0 0-.14 1.185v4.2h-1.186z" class="cls-1" data-name="Path 1237" transform="translate(-109.117 -44.79)"/>
                </g>
            </g>
            <g id="Group_635" data-name="Group 635" transform="translate(75.423 20.928)">
                <g id="Group_634" data-name="Group 634">
                    <path id="Path_1238" d="M193.208 44.26h-1.134v-1.08h5.2a3.322 3.322 0 0 1 3.525 3.485 3.152 3.152 0 0 1-2.373 3.276v.035a1.2 1.2 0 0 1 .419.488l1.762 3.485c.175.366.436.4.873.4h.244v1.08h-.541c-.994 0-1.291-.121-1.693-.923L197.728 51a1.08 1.08 0 0 0-1.239-.732h-2.059v5.157h-1.222zm3.944 4.931a2.26 2.26 0 0 0 2.373-2.492 2.222 2.222 0 0 0-2.356-2.439h-2.739v4.931z" class="cls-1" data-name="Path 1238" transform="translate(-192.074 -43.18)"/>
                    <path id="Path_1239" d="M211.988 48.09c2.426 0 3.682 1.864 3.682 4.042 0 .209-.035.593-.035.593H208.9a3.328 3.328 0 0 0 3.4 3.485 3.912 3.912 0 0 0 2.635-1.081l.576.889a4.983 4.983 0 0 1-3.263 1.255 4.443 4.443 0 0 1-4.589-4.583 4.29 4.29 0 0 1 4.329-4.6zm2.46 3.693a2.49 2.49 0 0 0-2.478-2.7 3.013 3.013 0 0 0-3.019 2.7z" class="cls-1" data-name="Path 1239" transform="translate(-197.262 -44.814)"/>
                    <path id="Path_1240" d="M222.482 49.71a.349.349 0 0 0-.384-.383h-.733V48.3h1.2c.751 0 1.047.314 1.047.923 0 .348-.018.592-.018.592h.035a3.146 3.146 0 0 1 3.019-1.725c2.355 0 3.822 1.881 3.822 4.6 0 2.771-1.658 4.583-3.926 4.583a3.111 3.111 0 0 1-2.879-1.655h-.035s.035.314.035.767v4.164h-1.186zm3.944 6.517c1.552 0 2.827-1.307 2.827-3.537 0-2.143-1.134-3.519-2.775-3.519-1.466 0-2.844 1.045-2.844 3.537-.001 1.759.959 3.519 2.791 3.519z" class="cls-1" data-name="Path 1240" transform="translate(-201.823 -44.814)"/>
                    <path id="Path_1241" d="M241.6 48.09a4.591 4.591 0 1 1-4.624 4.547 4.541 4.541 0 0 1 4.624-4.547zm.017 8.119a3.457 3.457 0 0 0 3.4-3.572 3.412 3.412 0 1 0-6.822 0 3.46 3.46 0 0 0 3.424 3.572z" class="cls-1" data-name="Path 1241" transform="translate(-207.02 -44.814)"/>
                    <path id="Path_1242" d="M253.446 49.77a.348.348 0 0 0-.384-.383h-.733v-1.028h1.222c.733 0 1.065.3 1.065.993v.592a6.237 6.237 0 0 1-.035.662h.035a2.991 2.991 0 0 1 2.774-2.335 2.349 2.349 0 0 1 .471.053v1.167a3.008 3.008 0 0 0-.436-.035 2.812 2.812 0 0 0-2.548 2.265 5.765 5.765 0 0 0-.244 1.708v3.693h-1.187z" class="cls-1" data-name="Path 1242" transform="translate(-212.129 -44.875)"/>
                    <path id="Path_1243" d="M262.87 48.188h-1.152v-.993h1.17v-2.422h1.169v2.422h2.2v.993h-2.2v4.46c0 2.056 1.309 2.318 1.972 2.318a2.007 2.007 0 0 0 .4-.035v1.063a3.422 3.422 0 0 1-.506.035c-1.012 0-3.054-.332-3.054-3.258z" class="cls-1" data-name="Path 1243" transform="translate(-215.254 -43.71)"/>
                    <path id="Path_1244" d="M271.029 54.92a3.576 3.576 0 0 0 2.7 1.324c.977 0 1.849-.47 1.849-1.394 0-1.916-4.921-1.568-4.921-4.391 0-1.585 1.362-2.369 3.124-2.369.89 0 2.67.348 2.67 1.585v.749h-1.117v-.418c0-.644-.942-.889-1.518-.889-1.222 0-1.955.418-1.955 1.272 0 1.969 4.921 1.516 4.921 4.425 0 1.464-1.326 2.457-3.071 2.457a4.212 4.212 0 0 1-3.368-1.533z" class="cls-1" data-name="Path 1244" transform="translate(-218.127 -44.814)"/>
                </g>
            </g>
        </g>
        <g id="Group_690" data-name="Group 690" transform="translate(10.427 9.852)">
            <g id="Group_689" data-name="Group 689">
                <g id="Group_638" data-name="Group 638" transform="translate(32.281 18.543)">
                    <g id="Group_637" data-name="Group 637">
                        <path id="Path_1245" d="M59.427 42.2l-.614-.224a7.933 7.933 0 0 1 3.324-4.273.488.488 0 0 1 .6.1 6.243 6.243 0 0 1 1.45 2.573l-.634.162a5.5 5.5 0 0 0-1.214-2.2 7.429 7.429 0 0 0-2.912 3.862z" class="cls-1" data-name="Path 1245" transform="translate(-58.813 -37.647)"/>
                    </g>
                </g>
                <g id="Group_640" data-name="Group 640" transform="translate(32.905 22.981)">
                    <g id="Group_639" data-name="Group 639">
                        <path id="Path_1246" d="M60.212 52.4l-.464-.46c1.939-1.957 2.185-6.153 2.057-6.992a5.441 5.441 0 0 0-1.42.437l-.266-.6c.255-.113 1.553-.668 2.062-.427a.536.536 0 0 1 .26.436c.186 1.059-.141 5.506-2.229 7.606z" class="cls-1" data-name="Path 1246" transform="translate(-59.748 -44.298)"/>
                    </g>
                </g>
                <g id="Group_642" data-name="Group 642" transform="translate(20.493 22.935)">
                    <g id="Group_641" data-name="Group 641">
                        <path id="Path_1247" d="M45.237 52.188l-.143-.638a6.709 6.709 0 0 0 4.639-4.158c-.538-.639-3.14-3.3-8.466-2.276l-.123-.643c6.335-1.212 9.107 2.507 9.222 2.666l.095.131-.047.155a7.3 7.3 0 0 1-5.177 4.763z" class="cls-1" data-name="Path 1247" transform="translate(-41.144 -44.23)"/>
                    </g>
                </g>
                <g id="Group_644" data-name="Group 644" transform="translate(11.764 26.082)">
                    <g id="Group_643" data-name="Group 643">
                        <path id="Path_1248" d="M30.575 59.656a8.272 8.272 0 0 1-2.241-.314l.176-.63a7.927 7.927 0 0 0 6.472-1.049c-.166-.705-1.238-4.065-6.923-8.187l.384-.53c6.064 4.4 7.25 8.177 7.219 8.877l-.165.291-.113.069a9.057 9.057 0 0 1-4.809 1.473zm4.588-2.1h-.007z" class="cls-1" data-name="Path 1248" transform="translate(-28.06 -48.946)"/>
                    </g>
                </g>
                <g id="Group_646" data-name="Group 646" transform="translate(3.243 17.247)">
                    <g id="Group_645" data-name="Group 645">
                        <path id="Path_1249" d="M18.6 50.089a.538.538 0 0 1-.278-.076 24.625 24.625 0 0 1-3.037-2.121l.435-.489a23.558 23.558 0 0 0 2.88 2.014c.614-.55 3.375-6.367 1-13.507l.62-.206c2.448 7.364-.456 13.747-1.3 14.288a.6.6 0 0 1-.32.097z" class="cls-1" data-name="Path 1249" transform="translate(-15.288 -35.704)"/>
                    </g>
                </g>
                <g id="Group_648" data-name="Group 648" transform="translate(.27 10.539)">
                    <g id="Group_647" data-name="Group 647">
                        <path id="Path_1250" d="M12.022 35.26a.557.557 0 0 1-.514-.344c-.1-.238-.911-3.369-.611-4.426l.629.179a12.894 12.894 0 0 0 .565 3.934 14.045 14.045 0 0 0 5.18-1.871c2.868-1.738 4.318-4.12 4.309-7.081h.654c.024 7.565-8.855 9.57-10.2 9.611z" class="cls-1" data-name="Path 1250" transform="translate(-10.831 -25.649)"/>
                    </g>
                </g>
                <g id="Group_650" data-name="Group 650" transform="translate(9.87 10.591)">
                    <g id="Group_649" data-name="Group 649">
                        <path id="Path_1251" d="M26.469 33.062a1.121 1.121 0 0 1-.469-.081c-.581-.273-.841-2.017-.771-3.147l.652.04a4.935 4.935 0 0 0 .413 2.521 5.243 5.243 0 0 0 2.479-.66 10.062 10.062 0 0 0 5.414-6.007l.626.19a10.709 10.709 0 0 1-5.93 6.486 6.918 6.918 0 0 1-2.414.658z" class="cls-1" data-name="Path 1251" transform="translate(-25.222 -25.727)"/>
                    </g>
                </g>
                <g id="Group_652" data-name="Group 652" transform="translate(20.734 5.165)">
                    <g id="Group_651" data-name="Group 651">
                        <path id="Path_1252" d="M41.961 22.637l-.456-.469a16.6 16.6 0 0 1 6.061-4.082c2.015-.859 5.68-.6 6.528.833l-.563.334c-.609-1.029-3.864-1.351-5.708-.564a16.055 16.055 0 0 0-5.862 3.948z" class="cls-1" data-name="Path 1252" transform="translate(-41.505 -17.594)"/>
                    </g>
                </g>
                <g id="Group_654" data-name="Group 654" transform="translate(14.416 4.856)">
                    <g id="Group_653" data-name="Group 653">
                        <path id="Path_1253" d="M36.638 23.292a10.071 10.071 0 0 1-4.373-1.52.432.432 0 0 1-.213-.273.579.579 0 0 1 .075-.446c.816-1.312 3.79-5.432 7.782-3.339l-.3.579c-3.318-1.741-5.854 1.426-6.854 3 2.168 1.156 4.379 2.094 5.8.511l.487.438a3.09 3.09 0 0 1-2.404 1.05z" class="cls-1" data-name="Path 1253" transform="translate(-32.035 -17.131)"/>
                    </g>
                </g>
                <g id="Group_656" data-name="Group 656" transform="translate(15.912 .126)">
                    <g id="Group_655" data-name="Group 655">
                        <path id="Path_1254" d="M36.671 15.721a7.7 7.7 0 0 1-2.355-2.859.562.562 0 0 1 .1-.569 6.285 6.285 0 0 1 4.509-2.244 6.024 6.024 0 0 1 4.875 2.182l-.484.44a5.445 5.445 0 0 0-4.36-1.967 5.679 5.679 0 0 0-4.01 1.972 7.21 7.21 0 0 0 2.005 2.456z" class="cls-1" data-name="Path 1254" transform="translate(-34.278 -10.041)"/>
                    </g>
                </g>
                <g id="Group_658" data-name="Group 658" transform="translate(21.036 2.172)">
                    <g id="Group_657" data-name="Group 657">
                        <path id="Path_1255" d="M45.381 17.869a3.827 3.827 0 0 1-1.452-.278A3.6 3.6 0 0 1 42 15.755a.549.549 0 0 1 .145-.622c.458-.406 4.6-3.875 8.675-.7l-.4.516c-3.527-2.753-7.157.084-7.784.62a2.992 2.992 0 0 0 1.541 1.411 4.011 4.011 0 0 0 3.162-.229l.262.6a5.562 5.562 0 0 1-2.22.518z" class="cls-1" data-name="Path 1255" transform="translate(-41.958 -13.108)"/>
                    </g>
                </g>
                <g id="Group_660" data-name="Group 660" transform="translate(4.929 3.787)">
                    <g id="Group_659" data-name="Group 659">
                        <path id="Path_1256" d="M25.053 22.8c-2.324 0-4.647-1.067-6.941-3.2L18 19.494a.551.551 0 0 1-.133-.628 11.194 11.194 0 0 1 2.579-3.336l.416.505a10.661 10.661 0 0 0-2.364 3.028l.064.059c3.348 3.106 6.736 3.814 10.073 2.1l.3.582a8.42 8.42 0 0 1-3.882.996zm-6.616-3.786z" class="cls-1" data-name="Path 1256" transform="translate(-17.816 -15.529)"/>
                    </g>
                </g>
                <g id="Group_662" data-name="Group 662" transform="translate(16.712 20.895)">
                    <g id="Group_661" data-name="Group 661">
                        <path id="Path_1257" d="M36.473 51.5a3.668 3.668 0 0 1-1-.126l.178-.629c1.336.376 3.316-.378 4.269-.741.2-.078.338-.129.436-.159a17.271 17.271 0 0 0-2.813-8.282l.527-.388A17.5 17.5 0 0 1 41 50.034a.472.472 0 0 1-.39.415c-.055.011-.267.092-.454.163a11.138 11.138 0 0 1-3.683.888z" class="cls-1" data-name="Path 1257" transform="translate(-35.476 -41.171)"/>
                    </g>
                </g>
                <g id="Group_664" data-name="Group 664" transform="translate(21.233 20.239)">
                    <g id="Group_663" data-name="Group 663">
                        <path id="Path_1258" d="M42.823 42.726c-.324 0-.531-.011-.57-.013l.035-.653c.049 0 4.9.238 6.871-1.872l.478.446c-1.771 1.898-5.403 2.092-6.814 2.092z" class="cls-1" data-name="Path 1258" transform="translate(-42.253 -40.188)"/>
                    </g>
                </g>
                <g id="Group_666" data-name="Group 666" transform="translate(27.428 14.944)">
                    <g id="Group_665" data-name="Group 665">
                        <path id="Path_1259" d="M52.194 38.1c-.55-.534-.67-3.14-.654-3.318v-.016a3.232 3.232 0 0 1 .925-1.341c.239-.249 2.346-1.947 3.748-.759a1.8 1.8 0 0 1 .262.272c.058.075-.063.235-.155.2a2.161 2.161 0 0 0-.9-.124 1.756 1.756 0 0 0-.985.453c-.1.084-.074.217.029.187a3.255 3.255 0 0 1 .939-.142 1.936 1.936 0 0 1 .981.27c.077.049-.009.215-.114.219a3.27 3.27 0 0 0-.918.191 3.375 3.375 0 0 0-1.335 1.109c-.091.115-.007.224.1.135a4.068 4.068 0 0 1 1.546-.845 3.061 3.061 0 0 1 .666-.077c.107 0 .067.181-.05.223-.2.071-.448.166-.721.282-1.174.5-3.055 3.383-3.367 3.08" class="cls-1" data-name="Path 1259" transform="translate(-51.539 -32.251)"/>
                    </g>
                </g>
                <g id="Group_668" data-name="Group 668" transform="translate(21.663 17.093)">
                    <g id="Group_667" data-name="Group 667">
                        <path id="Path_1260" d="M45.146 36.958a10.921 10.921 0 0 1-2.249-.242l.135-.64a7.736 7.736 0 0 0 5.592-.6l.368.542a7.181 7.181 0 0 1-3.846.94z" class="cls-1" data-name="Path 1260" transform="translate(-42.897 -35.472)"/>
                    </g>
                </g>
                <g id="Group_670" data-name="Group 670" transform="translate(8.516 16.502)">
                    <g id="Group_669" data-name="Group 669">
                        <path id="Path_1261" d="M27.736 44.821a6.808 6.808 0 0 1-4.545-1.444l.435-.489c2.153 1.915 5.888 1.154 6.482 1.013a8.668 8.668 0 0 0-1.639-8.88l.489-.434c3.518 3.958 2.281 8.823 1.634 9.775-.051.074-.145.213-1.4.368a11.969 11.969 0 0 1-1.456.091z" class="cls-1" data-name="Path 1261" transform="translate(-23.191 -34.587)"/>
                    </g>
                </g>
                <g id="Group_672" data-name="Group 672" transform="translate(21.859 29.392)">
                    <g id="Group_671" data-name="Group 671">
                        <path id="Path_1262" d="M44.112 61.894l-.091-.648a6.989 6.989 0 0 0 4.747-3.075 8.313 8.313 0 0 0-5.576-3.617l.1-.646a8.725 8.725 0 0 1 6.138 4.136.348.348 0 0 1-.025.354l-.045.063a7.656 7.656 0 0 1-5.248 3.433zm4.764-3.876z" class="cls-1" data-name="Path 1262" transform="translate(-43.191 -53.907)"/>
                    </g>
                </g>
                <g id="Group_674" data-name="Group 674" transform="translate(15.247 9.853)">
                    <g id="Group_673" data-name="Group 673">
                        <path id="Path_1263" d="M36.435 36.419c-.731 0-2.62-1.538-3.155-2.48l.568-.324a6.5 6.5 0 0 0 2.547 2.143 7.571 7.571 0 0 0 2.27-3.042 9.828 9.828 0 0 0 .027-7.854l.608-.242a10.438 10.438 0 0 1-.121 8.544 7.134 7.134 0 0 1-2.627 3.236.4.4 0 0 1-.117.019zm0-.65z" class="cls-1" data-name="Path 1263" transform="translate(-33.28 -24.62)"/>
                    </g>
                </g>
                <g id="Group_676" data-name="Group 676" transform="translate(26.007 22.455)">
                    <g id="Group_675" data-name="Group 675">
                        <path id="Path_1264" d="M55.077 49.256l-.445-.48a10.754 10.754 0 0 0 1.877-4.191 9.049 9.049 0 0 0-6.8.562l-.3-.582c3.353-1.726 7.235-.959 7.661-.331.448.66-1.21 4.297-1.993 5.022z" class="cls-1" data-name="Path 1264" transform="translate(-49.409 -43.51)"/>
                    </g>
                </g>
                <g id="Group_678" data-name="Group 678" transform="translate(28.24 27.347)">
                    <g id="Group_677" data-name="Group 677">
                        <path id="Path_1265" d="M55.573 56.875l-.445-.48a6.919 6.919 0 0 0 1.642-4.11 3.181 3.181 0 0 0-1.512-.654 3.023 3.023 0 0 0-2.119.093l-.383-.53a3.709 3.709 0 0 1 2.645-.2 3.278 3.278 0 0 1 1.959 1c.249.451-.329 3.529-1.787 4.881zm1.194-4.617z" class="cls-1" data-name="Path 1265" transform="translate(-52.756 -50.842)"/>
                    </g>
                </g>
                <g id="Group_680" data-name="Group 680" transform="translate(33.147 13.637)">
                    <g id="Group_679" data-name="Group 679">
                        <path id="Path_1266" d="M60.757 35.082l-.647-.1a7.717 7.717 0 0 1 2.448-4.582.478.478 0 0 1 .586-.015 4.28 4.28 0 0 1 1.486 2.773l-.652.045A3.67 3.67 0 0 0 62.861 31a7.09 7.09 0 0 0-2.104 4.082z" class="cls-1" data-name="Path 1266" transform="translate(-60.11 -30.292)"/>
                    </g>
                </g>
                <g id="Group_682" data-name="Group 682" transform="translate(28.581 7.85)">
                    <g id="Group_681" data-name="Group 681">
                        <path id="Path_1267" d="M53.267 22.444s.035-.5.737-.731a1.335 1.335 0 0 1 1.1.032 1.668 1.668 0 0 1-.821.608 2.412 2.412 0 0 1-1.018.091" class="cls-1" data-name="Path 1267" transform="translate(-53.267 -21.619)"/>
                    </g>
                </g>
                <path id="Path_1268" d="M48.109 26.323l-.649.084a18.264 18.264 0 1 1-10.3-14.151 17.378 17.378 0 0 1 8.118 7.523l.117.218c.039.073.076.141.112.213a.579.579 0 0 1 .675-.016.606.606 0 0 1 .207.343.5.5 0 0 1 .012.1.462.462 0 0 1-.039.173.52.52 0 0 1-.564.31.57.57 0 0 1-.384-.258.583.583 0 0 1-.083-.214l-.193-.063-.04-.013a12.8 12.8 0 0 0-7.151-.069 17.136 17.136 0 0 0-4.854 2.909l.424.5a16.806 16.806 0 0 1 4.624-2.782 12.09 12.09 0 0 1 6.866.1c.011.019.019.038.031.056a1.084 1.084 0 0 0 .626.433 1.108 1.108 0 0 0 .772-.085 1.121 1.121 0 0 0 .556-1.356 1.1 1.1 0 0 0-.488-.6 1.086 1.086 0 0 0-.615-.145 18 18 0 0 0-8.45-7.869 18.944 18.944 0 0 0-25.183 9A18.895 18.895 0 0 0 29.32 47.627a18.9 18.9 0 0 0 18.789-21.3z" class="cls-1" data-name="Path 1268" transform="translate(-10.427 -9.852)"/>
                <g id="Group_684" data-name="Group 684" transform="translate(28.735 17.681)">
                    <g id="Group_683" data-name="Group 683">
                        <path id="Path_1269" d="M54.129 41.656l-.631-.174a9.346 9.346 0 0 1 4.2-5.1.486.486 0 0 1 .576.183c.029.043.067.093.113.151a3.941 3.941 0 0 1 .891 2.135l-.65.073a3.3 3.3 0 0 0-.757-1.806l-.055-.072a9.035 9.035 0 0 0-3.687 4.61z" class="cls-1" data-name="Path 1269" transform="translate(-53.498 -36.354)"/>
                    </g>
                </g>
                <g id="Group_686" data-name="Group 686" transform="translate(23.846 12.739)">
                    <g id="Group_685" data-name="Group 685">
                        <path id="Path_1270" d="M48.505 34.281c-2.778-3.5-2.316-5.261-2.3-5.334l.63.175c0 .015-.351 1.568 2.178 4.752z" class="cls-1" data-name="Path 1270" transform="translate(-46.169 -28.947)"/>
                    </g>
                </g>
                <g id="Group_688" data-name="Group 688" transform="translate(28.157 20.221)">
                    <g id="Group_687" data-name="Group 687">
                        <path id="Rectangle_131" d="M0 0h.654v1.648H0z" class="cls-1" data-name="Rectangle 131" transform="rotate(-47.403 .549 .241)"/>
                    </g>
                </g>
            </g>
        </g>
    </g>
</svg>
