<svg xmlns="http://www.w3.org/2000/svg" width="473.996" height="128.006" viewBox="0 0 473.996 128.006">
    <defs>
        <style>
            .cls-1{fill:#fff}
        </style>
    </defs>
    <g id="Title_logo" data-name="Title logo" transform="translate(1698.438 -1757.537)">
        <g id="Group_488" data-name="Group 488" transform="translate(-1698.438 1757.537)">
            <path id="Path_604" d="M-1685.775 1762.405q-10.917 0-10.917 10.043h-1.747v-6.55q0-6.985 7.423-6.986h40.608v3.493h-19.649v54.145h-7.86v-54.145z" class="cls-1" data-name="Path 604" transform="translate(1698.438 -1758.038)"/>
            <path id="Path_605" d="M-1623.676 1788.411q-1.224-2.14-4.891-2.14h-.873v-1.747h6.986a10.872 10.872 0 0 1 5.021.917 5.069 5.069 0 0 1 2.4 3.012h.437a12.84 12.84 0 0 1 4.235-3.406 13.271 13.271 0 0 1 6.244-1.4 8.688 8.688 0 0 1 5.24 1.311 12.947 12.947 0 0 1 3.057 3.929l-3.493 2.62a5.739 5.739 0 0 0-2.795-1.964 12.415 12.415 0 0 0-4.192-.656 9.942 9.942 0 0 0-4.8 1.179 9.45 9.45 0 0 0-3.493 3.188v32.312h-7.86V1795q-.001-4.449-1.223-6.589z" class="cls-1" data-name="Path 605" transform="translate(1673.28 -1767.058)"/>
            <path id="Path_606" d="M-1563.9 1825.264a11.7 11.7 0 0 1-4.934-3.887 11.546 11.546 0 0 1-2.052-7.161 9.651 9.651 0 0 1 6.157-9.432q6.157-2.795 16.113-2.794h2.62q0-8.558-2.358-11.7a8 8 0 0 0-6.812-3.145 10.727 10.727 0 0 0-6.288 1.66q-2.358 1.66-3.319 5.764h-3.93a24.4 24.4 0 0 1 .349-4.672 6.3 6.3 0 0 1 1.834-3.188 10.186 10.186 0 0 1 5.2-2.314 39.474 39.474 0 0 1 7.9-.743q7.074 0 11.178 3.8t4.1 14.54v23.579h-4.366l-3.057-3.93h-.435a12.135 12.135 0 0 1-4.628 3.406 18.291 18.291 0 0 1-7.6 1.4 14.91 14.91 0 0 1-5.672-1.183zm14.409-4.148a14.085 14.085 0 0 0 3.493-3.843v-11.789h-2.62q-6.465 0-10.218 2.4a7.248 7.248 0 0 0-3.755 6.331 7.81 7.81 0 0 0 2.4 6.157 8.538 8.538 0 0 0 5.9 2.139 7.946 7.946 0 0 0 4.796-1.395z" class="cls-1" data-name="Path 606" transform="translate(1651.933 -1767.058)"/>
            <path id="Path_607" d="M-1508.63 1778.5v-3.5h6.113v-2.62q0-14.845 15.282-14.846 5.5 0 7.423 1.311a12.938 12.938 0 0 1 3.057 3.929l-2.62 2.184q-2.62-3.93-8.3-3.93-6.988 0-6.986 11.353V1775h12.226v3.493h-12.226v37.552h-7.86V1778.5z" class="cls-1" data-name="Path 607" transform="translate(1629.231 -1757.537)"/>
            <path id="Path_608" d="M-1463.688 1778.5v-3.5h6.114v-2.62q0-14.845 15.282-14.846 5.5 0 7.423 1.311a12.926 12.926 0 0 1 3.056 3.929l-2.62 2.184q-2.62-3.93-8.3-3.93-6.988 0-6.986 11.353V1775h12.226v3.493h-12.226v37.552h-7.86V1778.5z" class="cls-1" data-name="Path 608" transform="translate(1612.845 -1757.537)"/>
            <path id="Path_609" d="M-1413.621 1780.443q-1.224-2.14-4.891-2.14h-1.746v-1.747h7.859a11 11 0 0 1 4.847.83 4.835 4.835 0 0 1 2.314 3.013 23.39 23.39 0 0 1 .7 6.637v30.564h-7.86v-30.565q-.002-4.452-1.223-6.592zm1.092-10.786a5.8 5.8 0 0 1-1.441-3.93 3.8 3.8 0 0 1 1.092-2.882 4.049 4.049 0 0 1 2.926-1.048 4.426 4.426 0 0 1 3.45 1.66 5.8 5.8 0 0 1 1.441 3.93 3.807 3.807 0 0 1-1.092 2.882 4.049 4.049 0 0 1-2.925 1.048 4.419 4.419 0 0 1-3.452-1.659z" class="cls-1" data-name="Path 609" transform="translate(1597.01 -1759.091)"/>
            <path id="Path_610" d="M-1372.624 1823.6a17.372 17.372 0 0 1-6.463-7.684 26.64 26.64 0 0 1-2.139-10.873 26.634 26.634 0 0 1 2.139-10.872 17.38 17.38 0 0 1 6.463-7.685 18.929 18.929 0 0 1 10.611-2.839q9.605 0 12.663 3.057a6.476 6.476 0 0 1 1.834 3.624 56.65 56.65 0 0 1 .349 7.729h-1.747q-.35-5.414-3.406-8.165a11.431 11.431 0 0 0-7.947-2.753 10.521 10.521 0 0 0-9.475 4.98q-3.189 4.978-3.188 12.924t3.188 12.927a10.52 10.52 0 0 0 9.475 4.978 14.251 14.251 0 0 0 7.336-1.7 17.28 17.28 0 0 0 5.327-5.283l1.746 1.31a18.223 18.223 0 0 1-6.811 7.029 19.272 19.272 0 0 1-9.344 2.139 18.914 18.914 0 0 1-10.611-2.843z" class="cls-1" data-name="Path 610" transform="translate(1582.778 -1767.058)"/>
            <path id="Path_611" d="M-1298.677 1810.437l-10.479-13.973v20.086h-7.86v-47.158q0-4.453-1.223-6.594t-4.891-2.139h-1.747v-1.747h7.86a11 11 0 0 1 4.847.83 4.835 4.835 0 0 1 2.315 3.012 23.4 23.4 0 0 1 .7 6.637v25.762l10.916-13.973a17.337 17.337 0 0 1 4.8-4.235 13.149 13.149 0 0 1 6.55-1.441h2.62v2.183a11.156 11.156 0 0 0-4.541.961 9.689 9.689 0 0 0-3.755 2.969l-9.607 12.227 10.917 13.973a25.4 25.4 0 0 0 4.76 4.978 11.054 11.054 0 0 0 4.847 2.1v1.659a10.46 10.46 0 0 1-4.366.873q-7.423-.004-12.663-6.99z" class="cls-1" data-name="Path 611" transform="translate(1562.232 -1758.038)"/>
            <path id="Path_612" d="M-1247.584 1823.6a17.6 17.6 0 0 1-6.2-7.684 27.132 27.132 0 0 1-2.1-10.873 27.222 27.222 0 0 1 2.1-10.829 17.927 17.927 0 0 1 6.07-7.728 15.588 15.588 0 0 1 9.3-2.839q8.82 0 13.143 4.934t4.323 14.279l-.175 3.493h-26.461q0 7.335 3.144 11.966a9.906 9.906 0 0 0 8.645 4.628 13 13 0 0 0 6.943-1.747 18.407 18.407 0 0 0 5.283-5.24l1.747 1.31a18.984 18.984 0 0 1-6.724 6.985 17.912 17.912 0 0 1-9 2.183 17.217 17.217 0 0 1-10.038-2.838zm16.068-32.443a7.425 7.425 0 0 0-6.9-4.019 6.578 6.578 0 0 0-4.715 2.054 13.727 13.727 0 0 0-3.275 5.633 25.622 25.622 0 0 0-1.179 8.036h18.339q.001-7.682-2.27-11.699z" class="cls-1" data-name="Path 612" transform="translate(1537.075 -1767.058)"/>
            <path id="Path_613" d="M-1185.848 1811.4q-4.06-6.026-4.061-15.371t4.235-15.369q4.236-6.026 12.358-6.027a22.144 22.144 0 0 1 5.851.7 30.156 30.156 0 0 1 5.065 1.921v-7.86q0-4.453-1.222-6.594t-4.891-2.139h-1.747v-1.747h7.86a11 11 0 0 1 4.847.83 4.838 4.838 0 0 1 2.315 3.012 23.4 23.4 0 0 1 .7 6.637v47.158h-4.366l-3.057-3.93h-.437a15.007 15.007 0 0 1-4.5 3.493 16.407 16.407 0 0 1-7.292 1.31 13.213 13.213 0 0 1-11.658-6.024zm19.693 1.222a17.511 17.511 0 0 0 3.755-3.93v-27.946q-2.62-1.221-4.541-1.921a10.966 10.966 0 0 0-3.755-.7 8.787 8.787 0 0 0-8.253 4.891q-2.665 4.891-2.664 13.011 0 8.036 2.533 12.969t7.511 4.935a9.29 9.29 0 0 0 5.414-1.311z" class="cls-1" data-name="Path 613" transform="translate(1513.022 -1758.038)"/>
        </g>
        <g id="Group_489" data-name="Group 489" transform="translate(-1588.953 1827.032)">
            <path id="Path_614" d="M-1519.488 1870.8q-1.224-2.139-4.891-2.139h-1.747v-1.747h37.2q7.421 0 7.423 6.986v6.55h-1.747q0-10.042-10.917-10.043h-16.243v22.706h23.579v3.493h-23.579v24.452h15.282q6.026 0 9.432-2.183t5.414-7.423l1.747.436-3.057 8.3q-1.572 4.368-6.55 4.366h-30.129v-47.158q.006-4.458-1.217-6.596z" class="cls-1" data-name="Path 614" transform="translate(1526.125 -1866.912)"/>
            <path id="Path_615" d="M-1438.512 1901.76q-3.667-6.374-8.995-6.987v-1.747h7.422a9.064 9.064 0 0 1 5.415 1.834 16.338 16.338 0 0 1 4.454 5.152l5.414 9.17 11.353-16.156h4.366l-13.973 19.649 7.6 12.663q3.58 6.287 9.431 6.986v1.747h-7.859a9.06 9.06 0 0 1-5.415-1.834 16.292 16.292 0 0 1-4.454-5.152l-5.414-9.17-11.353 16.156h-4.366l13.973-19.649z" class="cls-1" data-name="Path 615" transform="translate(1497.46 -1876.434)"/>
            <path id="Path_616" d="M-1371.116 1924.634q-2.8-2.794-2.8-8.559V1889h-6.113v-3.491h6.113v-7.86l4.366-5.239h3.493v13.1h10.479v3.49h-10.479v27.074q0 7.862 6.113 7.861a12.3 12.3 0 0 0 3.537-.437 15.581 15.581 0 0 0 3.012-1.31l.874 1.747a20.692 20.692 0 0 1-4.454 2.488 17.322 17.322 0 0 1-6.463 1 10.379 10.379 0 0 1-7.678-2.789z" class="cls-1" data-name="Path 616" transform="translate(1472.855 -1868.917)"/>
            <path id="Path_617" d="M-1331.6 1888.443q-1.225-2.14-4.891-2.14h-1.747v-1.747h7.86a11 11 0 0 1 4.847.83 4.831 4.831 0 0 1 2.314 3.013 23.367 23.367 0 0 1 .7 6.637v30.564h-7.86v-30.565q-.004-4.452-1.223-6.592zm1.092-10.786a5.794 5.794 0 0 1-1.441-3.93 3.8 3.8 0 0 1 1.092-2.882 4.049 4.049 0 0 1 2.926-1.048 4.426 4.426 0 0 1 3.449 1.66 5.8 5.8 0 0 1 1.44 3.93 3.807 3.807 0 0 1-1.092 2.881 4.049 4.049 0 0 1-2.925 1.048 4.419 4.419 0 0 1-3.453-1.658z" class="cls-1" data-name="Path 617" transform="translate(1457.62 -1867.964)"/>
            <path id="Path_618" d="M-1299.169 1896.411q-1.224-2.14-4.891-2.14h-1.746v-1.747h7.859a11.111 11.111 0 0 1 4.934.873 5.316 5.316 0 0 1 2.489 2.62h.437a15.147 15.147 0 0 1 4.759-3.1 16.449 16.449 0 0 1 6.593-1.267 16.049 16.049 0 0 1 10.7 3.493q4.147 3.494 4.148 12.227v26.2h-7.86v-26.2q0-6.112-2.751-8.951a9.16 9.16 0 0 0-6.855-2.838q-4.63 0-8.733 4.628v33.36h-7.86V1903q-.001-4.449-1.223-6.589z" class="cls-1" data-name="Path 618" transform="translate(1445.794 -1875.932)"/>
            <path id="Path_619" d="M-1217.213 1931.6a17.372 17.372 0 0 1-6.463-7.684 26.64 26.64 0 0 1-2.139-10.873 26.634 26.634 0 0 1 2.139-10.872 17.381 17.381 0 0 1 6.463-7.685 18.928 18.928 0 0 1 10.611-2.839q9.605 0 12.663 3.057a6.475 6.475 0 0 1 1.834 3.624 56.552 56.552 0 0 1 .349 7.729h-1.747q-.35-5.414-3.406-8.166a11.431 11.431 0 0 0-7.947-2.752 10.522 10.522 0 0 0-9.475 4.979q-3.189 4.978-3.188 12.925t3.188 12.927a10.521 10.521 0 0 0 9.475 4.978 14.249 14.249 0 0 0 7.336-1.7 17.277 17.277 0 0 0 5.327-5.283l1.747 1.31a18.226 18.226 0 0 1-6.812 7.029 19.272 19.272 0 0 1-9.344 2.139 18.914 18.914 0 0 1-10.611-2.843z" class="cls-1" data-name="Path 619" transform="translate(1416.628 -1875.932)"/>
            <path id="Path_620" d="M-1155.2 1924.634q-2.8-2.794-2.794-8.559V1889h-6.113v-3.491h6.113v-7.86l4.366-5.239h3.493v13.1h10.479v3.49h-10.479v27.074q0 7.862 6.113 7.861a12.3 12.3 0 0 0 3.536-.437 15.585 15.585 0 0 0 3.013-1.31l.873 1.747a20.684 20.684 0 0 1-4.453 2.488 17.324 17.324 0 0 1-6.463 1 10.379 10.379 0 0 1-7.684-2.789z" class="cls-1" data-name="Path 620" transform="translate(1394.127 -1868.917)"/>
            <path id="Path_621" d="M-1115.684 1888.443q-1.224-2.14-4.891-2.14h-1.746v-1.747h7.859a11 11 0 0 1 4.847.83 4.835 4.835 0 0 1 2.314 3.013 23.389 23.389 0 0 1 .7 6.637v30.564h-7.86v-30.565q-.001-4.452-1.223-6.592zm1.092-10.786a5.8 5.8 0 0 1-1.441-3.93 3.806 3.806 0 0 1 1.092-2.882 4.05 4.05 0 0 1 2.926-1.048 4.426 4.426 0 0 1 3.45 1.66 5.8 5.8 0 0 1 1.441 3.93 3.8 3.8 0 0 1-1.092 2.881 4.049 4.049 0 0 1-2.925 1.048 4.419 4.419 0 0 1-3.452-1.658z" class="cls-1" data-name="Path 621" transform="translate(1378.893 -1867.964)"/>
            <path id="Path_622" d="M-1074.383 1931.6a18.074 18.074 0 0 1-6.636-7.728 25.383 25.383 0 0 1-2.271-10.829 25.393 25.393 0 0 1 2.271-10.829 18.093 18.093 0 0 1 6.636-7.728 18.5 18.5 0 0 1 10.305-2.839 18.5 18.5 0 0 1 10.305 2.839 18.108 18.108 0 0 1 6.637 7.728 25.413 25.413 0 0 1 2.271 10.829 25.4 25.4 0 0 1-2.271 10.829 18.088 18.088 0 0 1-6.637 7.728 18.486 18.486 0 0 1-10.305 2.838 18.481 18.481 0 0 1-10.305-2.838zm16.026-3.012a15.312 15.312 0 0 0 3.842-6.463 28.878 28.878 0 0 0 1.354-9.083 28.885 28.885 0 0 0-1.354-9.082 15.325 15.325 0 0 0-3.842-6.463 8.083 8.083 0 0 0-5.72-2.358 8.081 8.081 0 0 0-5.72 2.358 15.314 15.314 0 0 0-3.842 6.463 28.853 28.853 0 0 0-1.353 9.082 28.846 28.846 0 0 0 1.353 9.083 15.3 15.3 0 0 0 3.842 6.463 8.078 8.078 0 0 0 5.72 2.358 8.08 8.08 0 0 0 5.72-2.353z" class="cls-1" data-name="Path 622" transform="translate(1364.661 -1875.932)"/>
            <path id="Path_623" d="M-1011.779 1896.411q-1.224-2.14-4.891-2.14h-1.747v-1.747h7.86a11.113 11.113 0 0 1 4.934.873 5.322 5.322 0 0 1 2.489 2.62h.436a15.158 15.158 0 0 1 4.76-3.1 16.447 16.447 0 0 1 6.593-1.267 16.049 16.049 0 0 1 10.7 3.493q4.147 3.494 4.148 12.227v26.2h-7.86v-26.2q0-6.112-2.751-8.951a9.16 9.16 0 0 0-6.856-2.838q-4.629 0-8.733 4.628v33.36h-7.86V1903q.001-4.449-1.222-6.589z" class="cls-1" data-name="Path 623" transform="translate(1341.008 -1875.932)"/>
        </g>
        <g id="Group_492" data-name="Group 492" transform="translate(-1638.848 1828.665)">
            <g id="Group_490" data-name="Group 490" transform="translate(.257)">
                <path id="Path_624" d="M-1602.741 1899.495q-1.324-1.605-.738-4.919l2.744-15.56h-3.514l.354-2.007h3.513l.8-4.518 3.041-3.011h2.007l-1.327 7.529h6.023l-.354 2.007h-6.023l-2.744 15.56q-.8 4.519 2.716 4.518a7.571 7.571 0 0 0 2.077-.251 10.785 10.785 0 0 0 1.864-.753l.325 1a14.787 14.787 0 0 1-2.812 1.43 10.8 10.8 0 0 1-3.815.577 5.044 5.044 0 0 1-4.137-1.602z" class="cls-1" data-name="Path 624" transform="translate(1604.249 -1869.481)"/>
                <path id="Path_625" d="M-1576.069 1903.5a8.116 8.116 0 0 1-3.031-4.442 13.7 13.7 0 0 1-.207-6.223 16.809 16.809 0 0 1 2.4-6.224 13.445 13.445 0 0 1 4.6-4.442 12.1 12.1 0 0 1 6.21-1.631 9.276 9.276 0 0 1 5.635 1.631 8.123 8.123 0 0 1 3.031 4.442 13.705 13.705 0 0 1 .208 6.224 16.822 16.822 0 0 1-2.4 6.223 13.448 13.448 0 0 1-4.6 4.442 12.1 12.1 0 0 1-6.21 1.631 9.269 9.269 0 0 1-5.636-1.631zm9.516-1.731a11.213 11.213 0 0 0 2.863-3.714 18.681 18.681 0 0 0 1.7-5.22 16.066 16.066 0 0 0 .142-5.22 7.143 7.143 0 0 0-1.554-3.714 3.877 3.877 0 0 0-3.048-1.355 5.516 5.516 0 0 0-3.527 1.355 11.216 11.216 0 0 0-2.863 3.714 18.636 18.636 0 0 0-1.7 5.22 16.049 16.049 0 0 0-.142 5.22 7.134 7.134 0 0 0 1.554 3.714 3.877 3.877 0 0 0 3.049 1.355 5.516 5.516 0 0 0 3.526-1.353z" class="cls-1" data-name="Path 625" transform="translate(1595.249 -1873.513)"/>
            </g>
            <g id="Group_491" data-name="Group 491" transform="translate(0 38.693)">
                <path id="Path_626" d="M-1604.653 1930.377h36.808v3.012h-36.808z" class="cls-1" data-name="Path 626" transform="translate(1604.653 -1930.377)"/>
            </g>
        </g>
    </g>
</svg>
