<svg xmlns="http://www.w3.org/2000/svg" width="23.87" height="19.394" viewBox="0 0 23.87 19.394">
    <defs>
        <style>
            .cls-1{fill:#9c5e18}
        </style>
    </defs>
    <path id="Twitter" d="M23.87 2.3a9.824 9.824 0 0 1-2.813.772A4.911 4.911 0 0 0 23.21.359a9.787 9.787 0 0 1-3.11 1.187A4.9 4.9 0 0 0 11.627 4.9a4.951 4.951 0 0 0 .128 1.117A13.9 13.9 0 0 1 1.663.9a4.9 4.9 0 0 0 1.515 6.533A4.857 4.857 0 0 1 .961 6.82v.062a4.9 4.9 0 0 0 3.928 4.8 4.889 4.889 0 0 1-1.291.172 4.817 4.817 0 0 1-.921-.089 4.9 4.9 0 0 0 4.575 3.4 9.838 9.838 0 0 1-6.083 2.095A9.871 9.871 0 0 1 0 17.194a13.858 13.858 0 0 0 7.507 2.2 13.837 13.837 0 0 0 13.934-13.93c0-.213-.006-.423-.014-.633A9.953 9.953 0 0 0 23.87 2.3z" class="cls-1"/>
</svg>
