<svg xmlns="http://www.w3.org/2000/svg" id="Whatsapp" width="22.53" height="22.631" viewBox="0 0 22.53 22.631">
    <defs>
        <style>
            .cls-1{fill:#9c5e18}
        </style>
    </defs>
    <g id="Group_625" data-name="Group 625">
        <path id="Path_1225" d="M1191 528.71a9.326 9.326 0 0 0-7.9 14.281l.222.353-.942 3.439 3.529-.925.341.2a9.312 9.312 0 0 0 4.745 1.3 9.324 9.324 0 0 0 0-18.649zm5.484 13.328a2.887 2.887 0 0 1-1.892 1.333 3.843 3.843 0 0 1-1.765-.111 16.033 16.033 0 0 1-1.6-.59 12.491 12.491 0 0 1-4.788-4.231 5.449 5.449 0 0 1-1.145-2.9 3.142 3.142 0 0 1 .981-2.338 1.029 1.029 0 0 1 .747-.351c.187 0 .374 0 .537.01s.4-.065.631.481.795 1.94.865 2.08a.516.516 0 0 1 .023.491 1.9 1.9 0 0 1-.28.468c-.14.164-.294.365-.42.491s-.286.291-.123.572a8.436 8.436 0 0 0 1.559 1.941 7.649 7.649 0 0 0 2.254 1.391c.28.14.444.117.607-.07s.7-.818.888-1.1.374-.234.631-.14 1.635.771 1.915.912.467.21.537.327a2.337 2.337 0 0 1-.165 1.334z" class="cls-1" data-name="Path 1225" transform="translate(-1179.681 -526.816)"/>
        <path id="Path_1226" d="M1180.084 516.423a11.22 11.22 0 0 0-9.721 16.82l-1.592 5.811 5.947-1.559a11.213 11.213 0 0 0 5.361 1.365 11.218 11.218 0 0 0 0-22.437zm0 20.543a9.314 9.314 0 0 1-4.746-1.3l-.341-.2-3.529.925.942-3.44-.222-.353a9.324 9.324 0 1 1 7.9 4.368z" class="cls-1" data-name="Path 1226" transform="translate(-1168.772 -516.423)"/>
    </g>
</svg>
