<svg id="details" xmlns="http://www.w3.org/2000/svg" viewBox="0 0 1466 1080"><defs><style>.cls-1,.cls-2{fill:#fc7a00;}.cls-2{opacity:0.2;}.cls-2,.cls-5,.cls-6,.cls-7{isolation:isolate;}.cls-3,.cls-5,.cls-7{fill:#fff;}.cls-3{stroke:#fc7a00;stroke-linejoin:round;stroke-width:4px;}.cls-4{fill:#3b3b3b;}.cls-5{font-size:20px;font-family:OpenSans-ExtraBold, Open Sans;font-weight:800;}.cls-7{font-size:15px;font-family:OpenSans, Open Sans;}</style></defs><title>Indonesia map V2 no text</title><g id="arrows"><g id="arrows-2"><rect class="cls-1" x="622.48" y="164.61" width="3.06" height="4.6" transform="translate(55.29 473.18) rotate(-43.28)"/><path class="cls-1" d="M630.06,164.38,626.92,161l4.48-4.2,3.14,3.35ZM637.9,157l-3.15-3.35,4.48-4.21,3.15,3.35Zm7.83-7.36-3.14-3.35,4.48-4.2,3.14,3.35Zm7.84-7.35L650.42,139l4.48-4.2,3.15,3.35ZM661.4,135l-3.14-3.36,4.48-4.2,3.14,3.35Zm7.84-7.36-3.15-3.35,4.48-4.2,3.15,3.35Zm7.83-7.35-3.14-3.35,4.48-4.21,3.14,3.35Zm7.84-7.36-3.15-3.35,4.48-4.2,3.15,3.35Z"/><rect class="cls-1" x="690.75" y="100.53" width="3.07" height="4.6" transform="translate(117.08 501.53) rotate(-43.18)"/><polygon class="cls-1" points="694.68 108.93 686.15 100.13 699.76 95.47 694.68 108.93"/></g><g id="arrows-3"><rect class="cls-1" x="709.54" y="251.67" width="3.07" height="4.6" transform="translate(18.76 555.35) rotate(-43.18)"/><path class="cls-1" d="M717.12,251.44,714,248.09l4.48-4.2,3.14,3.35Zm7.84-7.35-3.15-3.35,4.48-4.21,3.15,3.36Zm7.83-7.36-3.14-3.35,4.48-4.2,3.14,3.35Zm7.84-7.35L737.48,226l4.48-4.2,3.15,3.35Zm7.83-7.35-3.14-3.35,4.48-4.21,3.14,3.35Zm7.84-7.36-3.15-3.35,4.48-4.2,3.15,3.35Zm7.83-7.35L761,204l4.48-4.21,3.14,3.35ZM772,200l-3.15-3.35,4.48-4.2,3.15,3.35Z"/><rect class="cls-1" x="777.81" y="187.59" width="3.07" height="4.6" transform="translate(81.08 584.68) rotate(-43.18)"/><polygon class="cls-1" points="781.74 195.99 773.21 187.19 786.82 182.53 781.74 195.99"/></g><g id="arrows-4"><rect class="cls-1" x="796.6" y="338.73" width="3.06" height="4.6" transform="translate(-17.78 637) rotate(-43.07)"/><path class="cls-1" d="M804.18,338.5,801,335.15l4.48-4.21,3.15,3.36Zm7.83-7.35-3.14-3.36,4.48-4.2,3.14,3.35Zm7.84-7.36-3.15-3.35,4.48-4.2,3.15,3.35Zm7.83-7.35-3.14-3.35,4.48-4.21,3.14,3.35Zm7.84-7.36-3.14-3.35,4.47-4.2,3.15,3.35Zm7.84-7.35-3.15-3.35,4.48-4.21,3.14,3.35Zm7.83-7.36L848.05,291l4.47-4.2,3.15,3.35ZM859,287l-3.15-3.35,4.48-4.2,3.14,3.35Z"/><rect class="cls-1" x="864.88" y="274.65" width="3.06" height="4.6" transform="translate(45.06 667.77) rotate(-43.17)"/><polygon class="cls-1" points="868.8 283.05 860.26 274.26 873.88 269.59 868.8 283.05"/></g><g id="arrows-5"><rect class="cls-1" x="883.66" y="425.79" width="3.07" height="4.6" transform="translate(-53.23 721.65) rotate(-43.18)"/><path class="cls-1" d="M891.24,425.56l-3.14-3.35,4.48-4.2,3.14,3.35Zm7.84-7.35-3.15-3.35,4.48-4.21,3.15,3.35Zm7.83-7.36-3.14-3.35,4.48-4.2,3.14,3.35Zm7.84-7.35-3.15-3.35,4.48-4.21,3.15,3.36Zm7.83-7.36-3.14-3.35,4.48-4.2,3.14,3.35Zm7.84-7.35-3.15-3.35,4.48-4.2,3.15,3.35Zm7.83-7.35-3.14-3.35,4.48-4.21,3.14,3.35Zm7.84-7.36-3.15-3.35,4.48-4.2,3.15,3.35Z"/><rect class="cls-1" x="951.93" y="361.71" width="3.07" height="4.6" transform="translate(9.08 750.96) rotate(-43.18)"/><polygon class="cls-1" points="955.86 370.11 947.33 361.31 960.95 356.65 955.86 370.11"/></g><g id="arrows-6"><rect class="cls-1" x="970.72" y="512.85" width="3.06" height="4.6" transform="translate(-88.73 806.63) rotate(-43.28)"/><path class="cls-1" d="M978.3,512.62l-3.14-3.35,4.48-4.2,3.14,3.35Zm7.84-7.35L983,501.92l4.48-4.21,3.15,3.36Zm7.83-7.35-3.14-3.36,4.48-4.2,3.14,3.35Zm7.84-7.36-3.15-3.35,4.48-4.2,3.15,3.35Zm7.83-7.35-3.14-3.35,4.48-4.21,3.14,3.35Zm7.84-7.36-3.15-3.35,4.48-4.2,3.15,3.35Zm7.83-7.35-3.14-3.35,4.48-4.21,3.14,3.35Zm7.84-7.36-3.14-3.35,4.47-4.2,3.15,3.35Z"/><rect class="cls-1" x="1038.99" y="448.77" width="3.07" height="4.6" transform="translate(-26.92 834.1) rotate(-43.18)"/><polygon class="cls-1" points="1042.92 457.17 1034.39 448.37 1048 443.71 1042.92 457.17"/></g></g><g id="marker-f"><circle class="cls-2" cx="1313" cy="788" r="40"/><circle class="cls-3" cx="1313" cy="788" r="8.66"/></g><g id="marker-e"><circle class="cls-2" cx="1112" cy="719" r="40"/><circle class="cls-3" cx="1112" cy="719" r="8.66"/></g><g id="marker-c"><circle class="cls-2" cx="646" cy="344" r="40"/><circle class="cls-3" cx="646" cy="344" r="8.66"/></g><g id="marker-d"><circle class="cls-2" cx="765" cy="444" r="40"/><circle class="cls-3" cx="765" cy="444" r="8.66"/></g><g id="marker-b"><circle class="cls-2" cx="511" cy="291" r="40"/><circle class="cls-3" cx="511" cy="291" r="8.66"/></g><g id="marker-a"><circle class="cls-2" cx="481" cy="222" r="40"/><circle class="cls-3" cx="481" cy="222" r="8.66"/></g><g id="caption-b"><g id="caption-b-2" data-name="caption-b"><rect class="cls-4" x="130.01" y="350" width="531" height="175"/><polygon class="cls-4" points="526.01 355 493.01 355 509.51 332 526.01 355"/><text class="cls-5" transform="translate(157 391.31)">Over one ton of pangolins seized - June 2017</text><g class="cls-6"><text class="cls-7" transform="translate(156.51 418.06)">Over a ton of live pangolins, pangolin parts and scales were seized </text><text class="cls-7" transform="translate(156.51 443.06)">at a warehouse here. The stash included around 225 individual </text><text class="cls-7" transform="translate(156.51 468.06)">pangolins, five large sacks of wet pangolins, and four large sacks of </text><text class="cls-7" transform="translate(156.51 493.06)">dried pangolin skin.</text></g></g></g></svg>