<svg id="details" xmlns="http://www.w3.org/2000/svg" viewBox="0 0 1466 1080"><defs><style>.cls-1{fill:none;stroke-miterlimit:10;stroke-width:6px;}.cls-1,.cls-4{stroke:#fc7a00;}.cls-2,.cls-3{fill:#fc7a00;}.cls-3{opacity:0.2;isolation:isolate;}.cls-4{fill:#fff;stroke-linejoin:round;stroke-width:4px;}</style></defs><title>Indonesia map V3 no text</title><g id="arrows"><line class="cls-1" x1="658" y1="274" x2="587" y2="326"/><polygon class="cls-2" points="657.88 283.98 648.41 271.08 666.85 267.47 657.88 283.98"/><line class="cls-1" x1="578" y1="190" x2="507" y2="242"/><polygon class="cls-2" points="577.88 199.98 568.41 187.08 586.85 183.47 577.88 199.98"/><line class="cls-1" x1="511" y1="107" x2="440" y2="159"/><polygon class="cls-2" points="510.88 116.98 501.41 104.08 519.85 100.47 510.88 116.98"/><line class="cls-1" x1="743" y1="368" x2="672" y2="420"/><polygon class="cls-2" points="742.88 377.98 733.41 365.08 751.85 361.47 742.88 377.98"/></g><g id="marker-f"><circle class="cls-3" cx="936" cy="622" r="40"/><circle class="cls-4" cx="936" cy="622" r="8.66"/></g><g id="marker-e"><circle class="cls-3" cx="805" cy="584" r="40"/><circle class="cls-4" cx="805" cy="584" r="8.66"/></g><g id="marker-c"><circle class="cls-3" cx="496" cy="350" r="40"/><circle class="cls-4" cx="496" cy="350" r="8.66"/></g><g id="marker-d"><circle class="cls-3" cx="578" cy="410" r="40"/><circle class="cls-4" cx="578" cy="410" r="8.66"/></g><g id="marker-b"><circle class="cls-3" cx="427" cy="317" r="40"/><circle class="cls-4" cx="427" cy="317" r="8.66"/></g><g id="marker-a"><circle class="cls-3" cx="399" cy="269" r="40"/><circle class="cls-4" cx="399" cy="269" r="8.66"/></g></svg>